<?xml version="1.0" standalone="no"?>
<!DOCTYPE svg PUBLIC "-//W3C//DTD SVG 1.1//EN" "http://www.w3.org/Graphics/SVG/1.1/DTD/svg11.dtd" >
<svg>
<metadata>
Created by FontForge 20120731 at Fri Jan 15 15:41:30 2016
 By Vít Novotný,,,
Copyright 2006, 2009 for TeX Gyre extensions by B. Jackowski and J.M. Nowacki (on behalf of TeX users groups). This work is released under the GUST Font License --  see http://tug.org/fonts/licenses/GUST-FONT-LICENSE.txt for details.
</metadata>
<defs>
<font id="TeXGyrePagella-Bold" horiz-adv-x="333" >
  <font-face 
    font-family="TeXGyrePagella"
    font-weight="700"
    font-stretch="normal"
    units-per-em="1000"
    panose-1="0 0 8 0 0 0 0 0 0 0"
    ascent="742"
    descent="-258"
    x-height="457"
    cap-height="681"
    bbox="-560 -267 1311 1097"
    underline-thickness="50"
    underline-position="-50"
    unicode-range="U+0020-FB04"
  />
<missing-glyph horiz-adv-x="280" 
 />
    <glyph glyph-name="I_J" unicode="IJ" horiz-adv-x="799" 
d="M357 -3q-78 3 -156 3q-77 0 -155 -3v40l37 3q35 3 41.5 15.5t6.5 79.5v408q0 67 -6.5 79.5t-41.5 15.5l-37 3v40q78 -3 155 -3q78 0 156 3v-40l-37 -3q-35 -3 -41.5 -15.5t-6.5 -79.5v-408q0 -67 6.5 -79.5t41.5 -15.5l37 -3v-40zM753 641l-37 -3q-35 -3 -41.5 -15.5
t-6.5 -79.5v-406q0 -78 -5.5 -117t-22.5 -75q-32 -67 -94.5 -112.5t-123.5 -45.5q-14 0 -30 5v89l11 6q1 -1 4.5 -3t6.5 -5q35 -27 58 -27q30 0 42.5 29.5t12.5 100.5v561q0 67 -6.5 79.5t-41.5 15.5l-37 3v40q78 -3 155 -3q78 0 156 3v-40z" />
    <glyph glyph-name="i_j" unicode="ij" horiz-adv-x="618" 
d="M310 -3q-68 3 -135 3q-65 0 -129 -3v37l35 2q23 2 29.5 13t6.5 51v219q0 44 -4.5 56.5t-21.5 13.5l-45 3v36l15 2q56 8 98 19l70 22l10 -6v-365q0 -40 6.5 -51t29.5 -13l35 -2v-37zM245 599q0 -28 -19.5 -47.5t-47.5 -19.5t-47.5 20t-19.5 48q0 27 20 46.5t48 19.5
q27 0 46.5 -20t19.5 -47zM572 98q0 -115 -11.5 -176t-41.5 -105q-56 -83 -130 -83q-17 0 -31 2l-10 35l4 6h23q40 0 57.5 43t17.5 142v357q0 44 -4.5 56.5t-21.5 13.5l-45 3v36l18 2q51 5 95 19l70 22l10 -6v-367zM578 599q0 -28 -19.5 -47.5t-47.5 -19.5t-47.5 20t-19.5 48
q0 27 20 46.5t48 19.5q27 0 46.5 -20t19.5 -47z" />
    <glyph glyph-name="f_k" unicode="fk" horiz-adv-x="911" 
d="M897 0h-172q-40 54 -193 226h-10v-126q0 -40 6.5 -51t29.5 -13l35 -2v-37q-67 3 -135 3q-64 0 -129 -3v37l35 2q23 2 29.5 13t6.5 51v468q0 44 -4.5 56t-21.5 14l-13 1v-22l-16 -7q-39 24 -67 24q-34 0 -46.5 -19.5t-12.5 -72.5v-108q72 0 131 4l4 -8l-11 -58h-124v-272
q0 -42 6 -50q9 -12 44 -14l35 -2v-37q-78 3 -155 3q-67 0 -135 -3v37l41 2q28 2 35 12.5t7 51.5v272l-79 -5v24q47 23 79 45v43q0 60 9.5 83.5t45.5 53.5l74 62q50 42 93 42q17 0 42 -6v-32q48 5 81 16l72 22l8 -6v-465q79 68 106 97l107 113h130v-38h-31q-24 0 -48 -18
q-28 -20 -63 -49.5t-56 -48.5l-21 -19l196 -220q26 -29 55 -32v-34z" />
    <glyph glyph-name="f_f" unicode="ff" horiz-adv-x="709" 
d="M701 617l-16 -7q-39 24 -67 24q-34 0 -46.5 -19.5t-12.5 -72.5v-108l131 4l4 -8l-11 -58h-124v-272q0 -42 7 -51q9 -12 43 -13l45 -2v-37q-80 3 -160 3q-70 0 -140 -3v37l41 2q28 2 35 12.5t7 51.5v272h-198v-272q0 -42 6 -50q9 -12 44 -14l35 -2v-37q-78 3 -155 3
q-67 0 -135 -3v37l41 2q28 2 35 12.5t7 51.5v272l-79 -5v24q47 23 79 45v43q0 60 9.5 83.5t45.5 53.5l74 62q50 42 93 42q17 0 42 -6v-97l-16 -7q-39 24 -67 24q-34 0 -46.5 -19.5t-12.5 -72.5v-108h198v45q0 60 9.5 83.5t45.5 53.5l74 62q50 42 93 42q17 0 42 -6v-97z" />
    <glyph glyph-name="f_i" unicode="fi" horiz-adv-x="611" 
d="M595 -3q-67 3 -135 3q-64 0 -129 -3v37l35 2q23 2 29.5 13t6.5 51v226q0 65 -38 65h-31l-7 -19h-111v-272q0 -41 6.5 -52t33.5 -12l35 -2v-37q-69 3 -137 3q-71 0 -143 -3v37l41 2q28 2 35 12.5t7 51.5v272l-79 -5v24q47 23 79 45v43q0 60 9.5 83.5t45.5 53.5l74 62
q50 42 93 42q17 0 42 -6v-97l-16 -7q-39 24 -67 24q-34 0 -46.5 -19.5t-12.5 -72.5v-108h111q68 0 118 15l72 22h8v-371q0 -40 6.5 -51t29.5 -13l35 -2v-37zM539 599q0 -28 -19.5 -47.5t-47.5 -19.5t-47.5 20t-19.5 48q0 27 20 46.5t48 19.5q27 0 46.5 -20t19.5 -47z" />
    <glyph glyph-name="f_l" unicode="fl" horiz-adv-x="611" 
d="M593 -3q-67 3 -135 3q-64 0 -129 -3v37l35 2q23 2 29.5 13t6.5 51v468q0 44 -4.5 56t-21.5 14l-27 3v-33l-15 -4q-26 30 -58 30q-52 0 -52 -92v-108q68 0 121 4l4 -8l-11 -58h-114v-272v-9q0 -18 0.5 -25.5t5.5 -15t15 -10.5t29 -4l25 -2v-37q-69 3 -137 3q-71 0 -143 -3
v37l41 2q28 2 35 12.5t7 51.5v272l-79 -5v24q47 23 79 45v43q0 60 9.5 83.5t45.5 53.5l74 62q50 42 89 42l29 -3v-37q79 11 106 20l61 20l8 -6v-614q0 -40 6.5 -51t29.5 -13l35 -2v-37z" />
    <glyph glyph-name="f_f_i" unicode="&#xfb00;i" horiz-adv-x="971" 
d="M882 599q0 -28 -19.5 -47.5t-47.5 -19.5t-47.5 20t-19.5 48q0 27 20 46.5t48 19.5q27 0 46.5 -20t19.5 -47zM938 -3q-68 3 -135 3q-65 0 -129 -3v37l35 2q23 2 29.5 13t6.5 51v226q0 65 -38 65h-31l-7 -19h-111v-272q0 -41 6.5 -52t33.5 -12l35 -2v-37q-69 3 -137 3
q-71 0 -143 -3v37l41 2q28 2 35 12.5t7 51.5v272h-197v-272q0 -42 6 -50q9 -12 44 -14l37 -2v-37q-78 3 -156 3q-68 0 -136 -3v37l41 2q28 2 35 12.5t7 51.5v272l-79 -5v24q47 23 79 45v43q0 60 9.5 83.5t45.5 53.5l74 62q50 42 93 42q17 0 42 -6v-97l-16 -7q-39 24 -67 24
q-34 0 -46.5 -19.5t-12.5 -72.5v-108h197v45q0 60 9.5 83.5t45.5 53.5l74 62q50 42 93 42q16 0 42 -6v-97l-16 -7q-39 24 -67 24q-34 0 -46.5 -19.5t-12.5 -72.5v-108h111q69 0 118 15l72 22h8v-371q0 -40 6.5 -51t29.5 -13l35 -2v-37z" />
    <glyph glyph-name="f_f_l" unicode="ffl" horiz-adv-x="954" 
d="M936 -3q-68 3 -135 3q-65 0 -129 -3v37l35 2q23 2 29.5 13t6.5 51v468q0 44 -4.5 56t-21.5 14l-27 3v-33l-15 -4q-25 30 -58 30q-52 0 -52 -92v-108l121 4l4 -8l-11 -58h-114v-272v-9q0 -18 0.5 -25.5t5.5 -15t15 -10.5t29 -4l25 -2v-37q-69 3 -137 3q-71 0 -143 -3v37
l41 2q28 2 35 12.5t7 51.5v272h-204v-272q0 -42 6 -50q9 -12 44 -14l35 -2v-37q-76 3 -154 3q-68 0 -136 -3v37l41 2q28 2 35 12.5t7 51.5v272l-79 -5v24q47 23 79 45v43q0 60 9.5 83.5t45.5 53.5l74 62q50 42 93 42q17 0 42 -6v-97l-16 -7q-39 24 -67 24q-34 0 -46.5 -19.5
t-12.5 -72.5v-108h204v45q0 60 9.5 83.5t45.5 53.5l74 62q50 42 89 42l29 -3v-37q79 11 106 20l61 20l8 -6v-614q0 -40 6.5 -51t29.5 -13l35 -2v-37z" />
    <glyph glyph-name=".notdef" horiz-adv-x="280" 
 />
    <glyph glyph-name=".null" horiz-adv-x="0" 
 />
    <glyph glyph-name="nonmarkingreturn" 
 />
    <glyph glyph-name="space" unicode=" " horiz-adv-x="250" 
 />
    <glyph glyph-name="exclam" unicode="!" horiz-adv-x="278" 
d="M219 65q0 -31 -23.5 -54t-55.5 -23q-31 0 -54 23t-23 54t23.5 55t55.5 24q30 0 53.5 -24t23.5 -55zM219 688q0 -41 -7 -96l-50 -372l-38 -21l-5 8l-47 358q-3 25 -4 79l100 44h51z" />
    <glyph glyph-name="quotedbl" unicode="&#x22;" horiz-adv-x="402" 
d="M158 624q0 -6 -1 -9l-44 -239h-46l-44 239q-1 4 -1 9q0 27 21 49t47 22t47 -22t21 -49zM380 624q0 -6 -1 -9l-44 -239h-46l-44 239q-1 4 -1 9q0 27 21 49t47 22t47 -22t21 -49z" />
    <glyph glyph-name="numbersign" unicode="#" horiz-adv-x="500" 
d="M496 396h-104l-16 -106h94v-75h-105l-32 -215h-75l32 215h-108l-32 -215h-75l32 215h-103v75h115l16 106h-103v75h114l30 202h75l-30 -202h107l29 202h75l-29 -202h93v-75zM317 396h-107l-16 -106h107z" />
    <glyph glyph-name="dollar" unicode="$" horiz-adv-x="500" 
d="M472 214q0 -62 -27.5 -113t-76.5 -82q-38 -23 -101 -32l2 -101h-51l3 97q-112 4 -188 40l-3 9q6 58 9 149h41v-40q0 -44 29 -66q48 -34 112 -38v240q-61 8 -94 20.5t-55 34.5q-44 43 -44 130q0 94 60 147q45 40 133 59l-2 53h50l-2 -53q92 -1 165 -33l2 -7
q-14 -49 -14 -140h-39q0 80 -15 91q-42 33 -99 35v-212q68 -13 103.5 -27t58.5 -38q43 -44 43 -123zM365 161q0 89 -98 106v-227q98 29 98 121zM221 408v206q-39 -3 -65 -34t-26 -75q0 -82 91 -97z" />
    <glyph glyph-name="percent" unicode="%" horiz-adv-x="889" 
d="M387 536q0 -70 -46.5 -117t-116.5 -47q-69 0 -116 47t-47 116q0 73 46 119t119 46q69 0 115 -47t46 -117zM287 536q0 132 -62 132q-64 0 -64 -129q0 -135 63 -135t63 132zM828 164q0 -70 -46.5 -117t-116.5 -47q-69 0 -116 47t-47 116q0 73 46 119t119 46q69 0 115 -47
t46 -117zM728 164q0 132 -62 132q-64 0 -64 -129q0 -135 63 -135t63 132zM649 714l-366 -723h-49l366 723h49z" />
    <glyph glyph-name="ampersand" unicode="&#x26;" horiz-adv-x="833" 
d="M813 90q-64 -54 -93 -99l-66 -3q-90 0 -171 65q-95 -70 -201 -70q-101 0 -165.5 54t-64.5 139q0 64 34.5 108.5t120.5 88.5q-33 83 -33 130q0 29 11 51.5t40 53.5l35 38q36 38 102 38q52 0 83.5 -28.5t31.5 -75.5q0 -52 -34.5 -94.5t-123.5 -100.5q86 -129 206 -227
q32 49 32 92q0 35 -20 78h-90q24 44 29 66l167 -5q53 0 145 6l3 -9q-15 -34 -20 -70q-70 7 -141 7q3 -24 3 -37q0 -67 -65 -153q79 -49 151 -49q7 0 13 1t10 2.5t11 5t9 5t10 7t10 6.5l17 11zM441 83q-73 63 -122.5 120t-96.5 133q-29 -28 -40 -50t-11 -53q0 -72 53.5 -126
t125.5 -54q48 0 91 30zM390 557q0 29 -16.5 47t-42.5 18q-32 0 -49 -20.5t-17 -57.5q0 -42 34 -118q91 61 91 131z" />
    <glyph glyph-name="quotesingle" unicode="'" horiz-adv-x="227" 
d="M181 624q0 -6 -1 -9l-44 -239h-46l-44 239q-1 4 -1 9q0 27 21 49t47 22t47 -22t21 -49z" />
    <glyph glyph-name="parenleft" unicode="(" 
d="M305 -80l-24 -24q-75 57 -112 100.5t-64 106.5q-40 90 -40 204q0 113 39 204q26 63 63 107.5t112 104.5l26 -22q-33 -40 -49 -69t-30 -70q-28 -89 -28 -254q0 -153 21 -229.5t86 -158.5z" />
    <glyph glyph-name="parenright" unicode=")" 
d="M268 307q0 -114 -40 -204q-27 -63 -64 -106.5t-112 -100.5l-24 24q65 83 86 158.5t21 229.5q0 172 -31 262q-22 63 -76 131l26 22q75 -60 112 -105t63 -107q39 -91 39 -204z" />
    <glyph glyph-name="asterisk" unicode="*" horiz-adv-x="444" 
d="M399 473l-9 -11q-63 25 -154 34q45 -78 80 -118l-2 -12q-35 -7 -85 -34l-15 7q0 76 -11 145q-54 -39 -101 -105l-19 8q-15 42 -39 70l4 7q66 17 137 53q-50 34 -138 59l-3 7q29 45 44 77h16q49 -58 102 -114q13 66 13 142l8 7q41 -15 92 -22l5 -14q-39 -39 -82 -127
q15 3 45 8.5t54 10.5t42 12l6 -3q-1 -9 -1 -20q0 -26 11 -67z" />
    <glyph glyph-name="plus" unicode="+" horiz-adv-x="606" 
d="M560 207h-214v-214h-86v214h-214v86h214v214h86v-214h214v-86z" />
    <glyph glyph-name="comma" unicode="," horiz-adv-x="250" 
d="M227 125q-45 -98 -147 -261l-71 -30l-15 13q69 139 82 256q80 21 134 38z" />
    <glyph glyph-name="hyphen" unicode="-" 
d="M317 295q-24 -53 -32 -100h-261l-8 8q26 72 34 102h258z" />
    <glyph glyph-name="period" unicode="." horiz-adv-x="250" 
d="M203 65q0 -31 -23.5 -54t-55.5 -23q-31 0 -54 23t-23 54t23.5 55t55.5 24q30 0 53.5 -24t23.5 -55z" />
    <glyph glyph-name="slash" unicode="/" horiz-adv-x="296" 
d="M305 720l-224 -737h-90l224 737h90z" />
    <glyph glyph-name="zero" unicode="0" horiz-adv-x="500" 
d="M468 348q0 -189 -54.5 -277t-171.5 -88q-110 0 -159.5 76t-49.5 243q0 176 48 259q56 99 185 99q112 0 161 -87q41 -72 41 -225zM348 252q0 101 -9.5 187.5t-24.5 118.5q-24 52 -69 52q-43 0 -65 -40q-27 -50 -27 -198q0 -218 32 -287q24 -52 70 -52q45 0 69 56.5
t24 162.5z" />
    <glyph glyph-name="one" unicode="1" horiz-adv-x="500" 
d="M455 -3q-89 3 -177 3q-101 0 -203 -3v37l72 3q57 3 57 47v443q0 34 -5 37q-3 3 -10 0l-140 -65q-14 36 -14 70q99 22 299 101l12 -10q-10 -140 -10 -254v-322q0 -44 57 -47l62 -3v-37z" />
    <glyph glyph-name="two" unicode="2" horiz-adv-x="500" 
d="M472 112q-3 -41 -3 -62q0 -29 2 -53q-115 3 -230 3q-108 0 -216 -3v51l167 166q117 117 117 229q0 51 -29.5 81.5t-78.5 30.5q-33 0 -62 -16.5t-35 -38.5l-18 -68l-37 3l18 165q80 60 161 60q93 0 153 -48.5t60 -124.5q0 -101 -103 -202l-174 -171l2 -8l302 11z" />
    <glyph glyph-name="three" unicode="3" horiz-adv-x="500" 
d="M458 225q0 -101 -84 -171.5t-203 -70.5q-68 0 -124 24q-21 128 -25 149l34 9q28 -63 59 -91q41 -35 95 -35q55 0 89.5 37t34.5 96q0 56 -34.5 90t-91.5 34q-34 0 -61 -8l-7 5l19 74h35q51 0 82 28.5t31 76.5q0 41 -27.5 65.5t-74.5 24.5q-89 0 -117 -101h-35l31 154
q79 45 153 45q79 0 130 -40t51 -101q0 -88 -112 -146q59 -7 91 -27q61 -41 61 -121z" />
    <glyph glyph-name="four" unicode="4" horiz-adv-x="500" 
d="M473 -3q-76 3 -154 3q-89 0 -177 -3v37l64 3q57 3 57 74v54h-244l-7 39q81 201 245 441l122 27l7 -12l-6 -288v-125h88l1 -3v-79h-89v-54q0 -69 57 -74l36 -3v-37zM263 247v332q-14 -23 -25 -39t-20 -31t-30 -53l-62 -116q-13 -24 -44 -93h181z" />
    <glyph glyph-name="five" unicode="5" horiz-adv-x="500" 
d="M472 237q0 -106 -83.5 -180t-202.5 -74q-62 0 -113 22q-7 35 -31 134l30 18q53 -116 155 -116q58 0 92.5 37t34.5 99q0 63 -36 100.5t-97 37.5q-65 0 -112 -40l-19 11q6 95 6 124v102q0 50 -6 136l7 8q104 -6 170 -6l177 6l4 -8q-7 -31 -7 -56q0 -26 1 -42l-6 -11
q-87 3 -143 3l-144 -3l-4 -155q75 34 130 34q91 0 144 -49t53 -132z" />
    <glyph glyph-name="six" unicode="6" horiz-adv-x="500" 
d="M469 221q0 -106 -60 -172t-157 -66q-109 0 -163 77q-52 75 -52 204q0 211 149 326q49 38 95 53.5t115 16.5l39 -27l-15 -16q-9 1 -21 1q-54 0 -101 -24.5t-77 -69.5q-23 -35 -35 -79t-18 -119q36 46 69 64.5t77 18.5q71 0 113 -51t42 -137zM351 171q0 68 -26.5 110
t-70.5 42q-89 0 -89 -125q0 -76 26.5 -120.5t71.5 -44.5q42 0 65 36.5t23 101.5z" />
    <glyph glyph-name="seven" unicode="7" horiz-adv-x="500" 
d="M493 608q-37 -59 -93 -172l-110 -224q-20 -41 -47.5 -109.5t-38.5 -105.5q-27 3 -55 3t-55 -3l-6 11l300 518l-4 6h-225q-36 0 -47.5 -9.5t-15.5 -42.5l-8 -64h-39l1 90l-4 142l10 8l99 -2q53 -1 89 -2t44.5 -1t17.5 -0.5t15 -0.5h31l141 3v-45z" />
    <glyph glyph-name="eight" unicode="8" horiz-adv-x="500" 
d="M467 203q0 -94 -66.5 -157t-166.5 -63q-88 0 -144 48t-56 124q0 106 117 165q-54 32 -77 67.5t-23 88.5q0 83 57 133.5t152 50.5q81 0 129 -39t48 -104q0 -42 -21 -74t-73 -67q53 -22 81 -54q43 -49 43 -119zM357 150q0 43 -24 71.5t-80 53.5l-61 27q-39 -35 -54 -63
t-15 -68q0 -59 35.5 -97.5t89.5 -38.5q47 0 78 33t31 82zM353 501q0 48 -28.5 77.5t-75.5 29.5q-43 0 -69 -24.5t-26 -64.5q0 -36 22 -60.5t74 -46.5l44 -19q32 28 45.5 52.5t13.5 55.5z" />
    <glyph glyph-name="nine" unicode="9" horiz-adv-x="500" 
d="M463 390q0 -132 -58.5 -233t-161.5 -146q-53 -24 -138 -28l-38 29l9 18q21 -3 31 -3q51 0 102 28q72 39 101 138q13 41 21 122l-63 -55q-28 -24 -73 -24q-79 0 -121.5 49.5t-42.5 141.5q0 108 58 170.5t159 62.5q105 0 160 -69.5t55 -200.5zM336 444q0 79 -24.5 121.5
t-70.5 42.5q-43 0 -67.5 -35t-24.5 -97q0 -71 27 -112t74 -41q86 0 86 121z" />
    <glyph glyph-name="colon" unicode=":" horiz-adv-x="250" 
d="M203 65q0 -31 -23.5 -54t-55.5 -23q-31 0 -54 23t-23 54t23.5 55t55.5 24q30 0 53.5 -24t23.5 -55zM203 375q0 -31 -23.5 -54t-55.5 -23q-31 0 -54 23t-23 54t23.5 55t55.5 24q30 0 53.5 -24t23.5 -55z" />
    <glyph glyph-name="semicolon" unicode=";" horiz-adv-x="250" 
d="M227 125q-45 -98 -147 -261l-71 -30l-15 13q69 139 82 256q80 21 134 38zM226 375q0 -31 -23.5 -54t-55.5 -23q-31 0 -54 23t-23 54t24 55t55 24q30 0 53.5 -24t23.5 -55z" />
    <glyph glyph-name="less" unicode="&#x3c;" horiz-adv-x="606" 
d="M514 -2l-441 213v78l441 213v-96l-323 -156l323 -156v-96z" />
    <glyph glyph-name="equal" unicode="=" horiz-adv-x="606" 
d="M560 292h-514v86h514v-86zM560 122h-514v86h514v-86z" />
    <glyph glyph-name="greater" unicode="&#x3e;" horiz-adv-x="606" 
d="M514 211l-441 -213v96l323 156l-323 156v96l441 -213v-78z" />
    <glyph glyph-name="question" unicode="?" horiz-adv-x="444" 
d="M411 530q0 -42 -15.5 -71.5t-55.5 -62.5l-77 -64q-62 -51 -62 -91q0 -17 9 -37l1 -2l-34 -14q-26 33 -26 74q0 47 63 124q63 75 63 122q0 35 -27.5 59t-68.5 24q-61 0 -72 -23l-31 -71l-35 9q28 85 32 133q71 48 150 48q85 0 135.5 -42.5t50.5 -114.5zM272 65
q0 -31 -23.5 -54t-54.5 -23q-32 0 -55 22.5t-23 53.5q0 32 24 56t55 24q30 0 53.5 -24t23.5 -55z" />
    <glyph glyph-name="at" unicode="@" horiz-adv-x="747" 
d="M704 399q0 -110 -73 -186q-34 -34 -75 -55t-75 -21q-60 0 -69 82q-33 -45 -57.5 -60.5t-60.5 -15.5q-55 0 -89.5 37.5t-34.5 97.5q0 88 62 155.5t144 67.5q66 0 81 -72l16 64h94l-74 -274q-13 -49 15 -49q34 0 80 55q65 78 65 178q0 94 -74 158t-183 64
q-128 0 -213 -82.5t-85 -207.5q0 -126 86.5 -208.5t218.5 -82.5q59 0 107 22q39 17 65 39.5t60 67.5h64q-37 -64 -76 -98q-99 -87 -231 -87q-148 0 -249 98.5t-101 242.5q0 148 101 250t248 102q132 0 222.5 -81.5t90.5 -200.5zM438 403q0 29 -12.5 48t-33.5 20
q-43 3 -85 -72.5t-42 -156.5q0 -31 13.5 -50.5t35.5 -19.5q42 0 80 68q44 76 44 163z" />
    <glyph glyph-name="A" unicode="A" horiz-adv-x="778" 
d="M757 -3q-79 3 -158 3q-75 0 -152 -3v37l53 3q18 1 19.5 22t-5.5 33l-45 114h-251l-42 -112q-8 -16 -2.5 -36t26.5 -21l50 -3v-37q-57 3 -113 3t-113 -3v37l30 3q33 3 56 60l181 438l57 151h71l259 -605q17 -39 55 -44l24 -3v-37zM446 262l-104 254l-100 -254h204z" />
    <glyph glyph-name="B" unicode="B" horiz-adv-x="667" 
d="M611 216q0 -93 -84 -156t-187 -63q-70 3 -142 3q-63 0 -126 -3v23l32 18q20 11 20 57v448q0 66 -7 80.5t-41 17.5l-37 3v37q84 -3 168 -3q32 0 96 1.5t96 1.5q189 0 189 -135q0 -61 -38 -96q-23 -21 -51.5 -35.5t-92.5 -37.5q103 -6 150 -39q55 -39 55 -122zM461 202
q0 77 -39.5 111.5t-126.5 34.5h-30v-292q23 -4 43 -4q80 0 116.5 36t36.5 114zM440 524q0 56 -28 81.5t-89 25.5q-26 0 -58 -4v-227h30q76 0 110.5 29.5t34.5 94.5z" />
    <glyph glyph-name="C" unicode="C" horiz-adv-x="722" 
d="M695 637q-11 -45 -23 -153h-39l-5 86q-41 38 -81 53.5t-97 15.5q-119 0 -187.5 -74.5t-68.5 -203.5q0 -142 79.5 -227.5t211.5 -85.5q97 0 195 51l12 -12l-22 -49q-55 -31 -105.5 -43t-119.5 -12q-185 0 -293 98t-108 266q0 161 110.5 254.5t300.5 93.5q65 0 115.5 -10
t118.5 -37z" />
    <glyph glyph-name="D" unicode="D" horiz-adv-x="833" 
d="M786 376q0 -162 -104 -263q-118 -116 -303 -116q-26 0 -78 1.5t-78 1.5q-77 0 -155 -3v23l32 18q20 11 20 57v448q0 66 -7 80.5t-41 17.5l-37 3v37q81 -3 162 -3q40 0 119.5 1.5t119.5 1.5q101 0 165 -19.5t108 -63.5q77 -75 77 -222zM636 348q0 146 -66 211
q-73 72 -246 72q-31 0 -63 -4v-570q31 -5 68 -5q162 0 234 71q73 73 73 225z" />
    <glyph glyph-name="E" unicode="E" horiz-adv-x="611" 
d="M577 166l-11 -158l-5 -8q-57 -3 -140 -3q-37 0 -113 1.5t-113 1.5q-61 0 -123 -3v23l32 18q20 11 20 57v448q0 66 -7 80.5t-41 17.5l-37 3v37q95 -3 190 -3q39 0 118 1.5t118 1.5t95 -3l6 -7l-14 -142h-36l-8 75q-2 19 -98 19l-145 -3v-240q20 -2 67 -2h66q31 0 43 4.5
t14 16.5l6 57h40q-3 -54 -3 -107q0 -54 3 -108h-40l-6 50q-4 37 -57 37h-66q-25 0 -67 -3v-267l149 -3q34 0 66.5 5.5t34.5 11.5l23 94h39z" />
    <glyph glyph-name="F" unicode="F" horiz-adv-x="556" 
d="M539 671l-14 -142h-36l-8 75q-2 19 -111 19l-116 -3v-243q20 -2 67 -2h51q31 0 43 4.5t14 16.5l6 53h40q-3 -51 -3 -103q0 -54 3 -108h-40l-6 50q-4 37 -57 37h-51q-25 0 -67 -3v-187q0 -66 7 -79.5t41 -15.5l47 -3v-40q-83 3 -166 3q-77 0 -155 -3v40l37 3
q35 3 41.5 15.5t6.5 79.5v408q0 66 -7 80.5t-41 17.5l-37 3v37q89 -3 178 -3q39 0 116.5 1.5t115.5 1.5q57 0 95 -3z" />
    <glyph glyph-name="G" unicode="G" horiz-adv-x="833" 
d="M776 242q-28 -6 -34.5 -12t-6.5 -24v-163q-90 -34 -155.5 -47t-141.5 -13q-178 0 -284.5 99t-106.5 264q0 162 111 255.5t303 93.5q135 0 261 -47l6 -11q-11 -45 -23 -153h-39l-5 86q-72 69 -205 69q-122 0 -190.5 -74.5t-68.5 -206.5q0 -143 74 -231t195 -88
q60 0 127 25v132q0 19 -12.5 27t-44.5 10l-53 2v41q72 -3 143 -3q75 0 150 3v-34z" />
    <glyph glyph-name="H" unicode="H" horiz-adv-x="833" 
d="M796 -3q-78 3 -156 3q-77 0 -155 -3v40l37 3q35 3 41.5 15.5t6.5 79.5v190l-81 2h-146l-81 -2v-190q0 -67 6.5 -79.5t41.5 -15.5l37 -3v-40q-78 3 -156 3q-77 0 -155 -3v40l37 3q35 3 41.5 15.5t6.5 79.5v408q0 67 -6.5 79.5t-41.5 15.5l-37 3v40q78 -3 155 -3
q78 0 156 3v-40l-37 -3q-35 -3 -41.5 -15.5t-6.5 -79.5v-158q23 -2 81 -2h146q57 0 81 2v158q0 67 -6.5 79.5t-41.5 15.5l-37 3v40q78 -3 155 -3q78 0 156 3v-40l-37 -3q-35 -3 -41.5 -15.5t-6.5 -79.5v-408q0 -67 6.5 -79.5t41.5 -15.5l37 -3v-40z" />
    <glyph glyph-name="I" unicode="I" horiz-adv-x="389" 
d="M350 -3q-78 3 -156 3q-77 0 -155 -3v40l37 3q35 3 41.5 15.5t6.5 79.5v408q0 67 -6.5 79.5t-41.5 15.5l-37 3v40q78 -3 155 -3q78 0 156 3v-40l-37 -3q-35 -3 -41.5 -15.5t-6.5 -79.5v-408q0 -67 6.5 -79.5t41.5 -15.5l37 -3v-40z" />
    <glyph glyph-name="J" unicode="J" horiz-adv-x="389" 
d="M350 641l-37 -3q-35 -3 -41.5 -15.5t-6.5 -79.5v-406q0 -78 -5.5 -117t-22.5 -75q-32 -67 -94.5 -112.5t-123.5 -45.5q-14 0 -30 5v89l11 6q1 -1 4 -3t7 -5q35 -27 58 -27q30 0 42.5 29.5t12.5 100.5v561q0 67 -6.5 79.5t-41.5 15.5l-37 3v40q78 -3 155 -3q78 0 156 3
v-40z" />
    <glyph glyph-name="K" unicode="K" horiz-adv-x="778" 
d="M763 -3q-51 3 -101 3q-51 0 -102 -3l-208 249q-40 49 -53 61.5t-34 24.5v-197q0 -67 6.5 -79.5t41.5 -15.5l37 -3v-40q-78 3 -156 3q-77 0 -155 -3v40l37 3q35 3 41.5 15.5t6.5 79.5v408q0 67 -6.5 79.5t-41.5 15.5l-37 3v40q78 -3 155 -3q78 0 156 3v-40l-37 -3
q-35 -3 -41.5 -15.5t-6.5 -79.5v-200l197 193q94 94 94 120v25q45 -3 91 -3t91 3v-39q-47 -4 -69.5 -11t-40.5 -23l-222 -207l266 -313q42 -49 91 -50v-41z" />
    <glyph glyph-name="L" unicode="L" horiz-adv-x="611" 
d="M577 174l-11 -166l-5 -8q-57 -3 -140 -3q-37 0 -113 1.5t-113 1.5q-61 0 -123 -3v23l32 18q20 11 20 57v448q0 67 -6.5 79.5t-41.5 15.5l-37 3v40q78 -3 155 -3q78 0 156 3v-40l-37 -3q-35 -3 -41.5 -15.5t-6.5 -79.5v-485l153 -3q32 0 64 5.5t33 11.5l23 102h39z" />
    <glyph glyph-name="M" unicode="M" horiz-adv-x="1000" 
d="M968 -3q-78 3 -156 3q-77 0 -155 -3v40l37 3q35 3 41.5 15.5t6.5 79.5v416l-206 -429q-36 -74 -60 -132h-34q-19 47 -36 83l-230 479v-417q0 -66 7 -80.5t41 -17.5l37 -3v-37q-57 3 -114 3q-58 0 -115 -3v37l37 3q34 3 41 17.5t7 80.5v408q0 66 -7 80.5t-41 17.5l-37 3
v37q60 -3 120 -3t120 3l75 -161l158 -330l183 378l49 113q57 -3 115 -3t116 3v-37l-37 -3q-34 -3 -41 -17.5t-7 -80.5v-408q0 -67 6.5 -79.5t41.5 -15.5l37 -3v-40z" />
    <glyph glyph-name="N" unicode="N" horiz-adv-x="833" 
d="M798 644l-37 -3q-34 -3 -41 -17.5t-7 -80.5v-454l3 -101l-7 -4l-82 13l-122 139l-326 392v-393q0 -66 7 -80.5t41 -17.5l37 -3v-37q-57 3 -114 3q-58 0 -115 -3v37l37 3q34 3 41 17.5t7 80.5v408q0 66 -7 80.5t-41 17.5l-37 3v37q60 -3 120 -3q42 0 84 3
q83 -110 103 -133l312 -364v359q0 66 -7 80.5t-41 17.5l-37 3v37q57 -3 115 -3q57 0 114 3v-37z" />
    <glyph glyph-name="O" unicode="O" horiz-adv-x="833" 
d="M787 346q0 -171 -100.5 -267t-279.5 -96q-172 0 -266 91t-94 258q0 172 101 267.5t282 95.5q169 0 263 -92t94 -257zM637 325q0 179 -86 263q-53 51 -130 51q-95 0 -154 -57q-70 -70 -70 -227q0 -181 85 -264q52 -52 132 -52q110 0 166.5 72.5t56.5 213.5z" />
    <glyph glyph-name="P" unicode="P" horiz-adv-x="611" 
d="M594 531q0 -91 -64 -151.5t-161 -60.5q-14 0 -58 7v39h18h18q47 0 75 36t28 96q0 134 -125 134q-37 0 -60 -9v-487q0 -66 7 -79.5t41 -15.5l47 -3v-40q-82 3 -165 3q-78 0 -156 -3v40l37 3q35 3 41.5 15.5t6.5 79.5v408q0 66 -7 80.5t-41 17.5l-37 3v37q87 -3 173 -3
q32 0 96.5 1.5t96.5 1.5q71 0 130 -40t59 -110z" />
    <glyph glyph-name="Q" unicode="Q" horiz-adv-x="833" 
d="M787 346q0 -195 -132 -292q-92 -69 -260 -69q-8 -1 -21 -1q67 -14 100 -26l120 -42q63 -22 107 -22q15 0 69 19l11 4v-37l-103 -64q-35 0 -72 10l-199 54q-70 19 -99 19q-32 0 -97 -45l-11 31q94 75 161 100q-115 14 -179 56q-135 89 -135 290q0 172 100.5 268t279.5 96
q172 0 266 -91t94 -258zM637 325q0 179 -86 263q-53 51 -130 51q-95 0 -154 -57q-70 -70 -70 -227q0 -181 85 -264q52 -52 132 -52q110 0 166.5 72.5t56.5 213.5z" />
    <glyph glyph-name="R" unicode="R" horiz-adv-x="722" 
d="M708 -3q-48 3 -97 3q-45 0 -90 -3l-210 342v23q55 0 87 19q66 39 66 122q0 61 -36.5 94.5t-103.5 33.5q-38 0 -59 -9v-487q0 -67 6.5 -79.5t41.5 -15.5l37 -3v-40q-78 3 -156 3q-77 0 -155 -3v40l37 3q35 3 41.5 15.5t6.5 79.5v408q0 66 -7 80.5t-41 17.5l-37 3v37
q88 -3 178 -3q33 0 99.5 1.5t99.5 1.5q190 0 190 -147q0 -61 -43 -110q-37 -40 -106 -68l181 -274q16 -24 29 -31.5t41 -13.5v-40z" />
    <glyph glyph-name="S" unicode="S" horiz-adv-x="611" 
d="M559 220q0 -109 -80 -173t-214 -64q-105 0 -208 46q15 78 15 173h40l7 -88q24 -35 68.5 -56t95.5 -21q65 0 107.5 37t42.5 92q0 71 -83 96l-140 42q-71 21 -108.5 66.5t-37.5 109.5q0 101 70 158t195 57q94 0 185 -34l5 -12q-14 -45 -14 -142h-41l-6 82q-56 55 -136 55
q-60 0 -97 -32.5t-37 -84.5q0 -38 25 -62t81 -39l114 -30q151 -40 151 -176z" />
    <glyph glyph-name="T" unicode="T" horiz-adv-x="667" 
d="M650 676q-10 -63 -13 -159h-40l-5 69q-3 9 -5.5 14.5t-6.5 9.5t-6.5 6t-9 2.5t-10 0.5h-15h-18.5h-117v-484q0 -67 6.5 -79.5t41.5 -15.5l37 -3v-40q-78 3 -156 3q-77 0 -155 -3v40l37 3q35 3 41.5 15.5t6.5 79.5v484h-117q-3 0 -15.5 0.5t-16.5 0t-13.5 -2t-13 -5
t-7.5 -10t-5 -16.5l-5 -69h-40q-4 106 -13 159l6 5q156 -3 311 -3q156 0 310 3z" />
    <glyph glyph-name="U" unicode="U" horiz-adv-x="778" 
d="M760 644l-37 -3q-34 -3 -41 -17.5t-7 -80.5v-292q0 -136 -70 -202t-214 -66q-129 0 -204.5 52.5t-75.5 141.5v366q0 66 -7 80.5t-41 17.5l-37 3v37q78 -3 155 -3q78 0 156 3v-37l-37 -3q-34 -3 -41 -17.5t-7 -80.5v-248q0 -78 8 -118.5t28 -64.5q40 -47 140 -47
q99 0 141 43q26 26 36.5 70.5t10.5 123.5v241q0 66 -7 80.5t-41 17.5l-37 3v37q57 -3 115 -3q57 0 114 3v-37z" />
    <glyph glyph-name="V" unicode="V" horiz-adv-x="778" 
d="M763 644l-32 -3q-29 -3 -47 -47l-208 -498q-8 -18 -21 -53.5t-17 -45.5h-76l-239 572q-16 38 -29.5 54.5t-32.5 17.5l-41 3v37q79 -3 158 -3q81 0 162 3v-37l-50 -3q-10 -1 -18 -6.5t-8 -12.5q0 -21 21 -72l157 -387l142 353q31 78 31 99q0 23 -37 26l-46 3v37
q57 -3 115 -3q57 0 116 3v-37z" />
    <glyph glyph-name="W" unicode="W" horiz-adv-x="1000" 
d="M988 644l-33 -3q-24 -3 -43 -69l-122 -432l-33 -143h-73q-4 12 -17 48.5t-21 56.5l-149 375l-155 -355l-47 -125h-70l-139 602q-8 39 -37 42l-32 3v37q78 -3 156 -3q67 0 134 3v-37l-42 -3q-12 -1 -21 -8.5t-9 -16.5q0 -12 3 -26l82 -383l150 355q20 48 31 74.5t20 49.5
h45q32 -92 49 -133l137 -343l97 378q4 15 4 30q0 21 -35 23l-46 3v37q52 -3 106 -3t110 3v-37z" />
    <glyph glyph-name="X" unicode="X" horiz-adv-x="667" 
d="M650 -3q-48 3 -95 3q-48 0 -96 -3l-149 266l-140 -201q-14 -20 -36 -62h-117v34l31 3q20 2 33 18l199 261l-94 166q-43 76 -86 123q-18 18 -41 18q-13 0 -32 -6l-5 41l183 37q37 -28 73 -91l95 -169l165 243h111v-34l-28 -3q-15 -1 -23.5 -8t-24.5 -28l-170 -224
q65 -113 128 -221l33 -58l-1 1q21 -37 33.5 -50.5t28.5 -15.5l25 -3v-37z" />
    <glyph glyph-name="Y" unicode="Y" horiz-adv-x="667" 
d="M660 659l-176 -261q-26 -39 -53 -100v-163q0 -67 6.5 -79.5t41.5 -15.5l37 -3v-40q-78 3 -156 3q-77 0 -155 -3v40l37 3q35 3 41.5 15.5t6.5 79.5v139q-23 51 -44 85l-101 163q-39 63 -64.5 81.5t-65.5 18.5v37l159 36q35 -20 59.5 -49.5t54.5 -86.5l107 -203l188 322h77
v-19z" />
    <glyph glyph-name="Z" unicode="Z" horiz-adv-x="667" 
d="M627 174q-14 -80 -16 -177q-143 3 -284 3q-151 0 -303 -3v38q59 74 104 139l306 446h-222q-53 0 -68 -7.5t-19 -38.5l-8 -55h-37v162q136 -3 272 -3t271 3v-35q-49 -60 -83 -110l-325 -479h276q74 0 81 39l15 78h40z" />
    <glyph glyph-name="bracketleft" unicode="[" 
d="M291 -104q-91 2 -149 2l-69 -2q6 115 6 292v219q0 84 -1.5 162.5t-3.5 114.5l-1 36q42 -2 69 -2l149 2v-38h-49q-37 0 -56 -22q-7 -9 -7 -99v-513q0 -81 5 -89q6 -11 22.5 -18t35.5 -7h49v-38z" />
    <glyph glyph-name="backslash" unicode="\" horiz-adv-x="606" 
d="M534 0h-90l-372 720h90z" />
    <glyph glyph-name="bracketright" unicode="]" 
d="M260 -104q-42 2 -69 2l-149 -2v38h49q19 0 35.5 7t22.5 18q5 8 5 89v513q0 90 -7 99q-19 22 -56 22h-49v38q91 -2 149 -2l69 2q-6 -124 -6 -313v-219q0 -79 1.5 -152t2.5 -106z" />
    <glyph glyph-name="asciicircum" unicode="^" horiz-adv-x="606" 
d="M554 275h-95l-156 294l-156 -294h-95l206 403h90z" />
    <glyph glyph-name="underscore" unicode="_" horiz-adv-x="500" 
d="M500 -125h-500v50h500v-50z" />
    <glyph glyph-name="grave" unicode="`" 
d="M255 506h-56q-119 73 -135 84l-4 2q-24 15 -33.5 27t-9.5 28q0 20 12 32t32 12q32 0 65 -37z" />
    <glyph glyph-name="a" unicode="a" horiz-adv-x="500" 
d="M478 -3q-43 3 -88 3q-46 0 -91 -3l-5 8l5 62l-93 -72q-15 -12 -49 -12q-57 0 -87 31.5t-30 92.5q0 64 38 97t133 53l88 18q-2 61 -27 89.5t-75 28.5q-20 0 -38 -4.5t-20 -9.5l-22 -50l-30 7v69l53 32q56 34 120 34q76 0 118 -37.5t42 -103.5v-232q0 -35 5.5 -47.5
t22.5 -13.5l30 -3v-37zM299 115v118l-45 -12q-53 -14 -72.5 -32.5t-19.5 -55.5q0 -29 13.5 -46t37.5 -17q22 0 46.5 12.5t39.5 32.5z" />
    <glyph glyph-name="b" unicode="b" horiz-adv-x="611" 
d="M556 281q0 -58 -22.5 -111t-60.5 -84q-43 -36 -114 -78q-43 -25 -87 -25q-63 0 -131 37l-39 -32l-22 8q9 80 9 166v406q0 44 -4.5 56.5t-21.5 13.5l-53 3v36q80 8 121 21l72 22l8 -6v-331l61 49q49 39 103 39q79 0 130 -53.5t51 -136.5zM430 221q0 75 -32.5 117.5
t-90.5 42.5q-63 0 -96 -50v-225q39 -55 101 -55q55 0 86.5 46t31.5 124z" />
    <glyph glyph-name="c" unicode="c" horiz-adv-x="444" 
d="M414 63l-21 -46q-64 -34 -134 -34q-108 0 -165 63.5t-57 182.5q0 65 27 107.5t94 82.5l52 31q36 21 90 21q46 0 103 -20l7 -13q-13 -61 -20 -141h-36l-7 60q-2 17 -28 30t-60 13q-98 0 -98 -139q0 -96 42.5 -151.5t116.5 -55.5q39 0 85 19z" />
    <glyph glyph-name="d" unicode="d" horiz-adv-x="611" 
d="M577 -3q-51 3 -101 3q-45 0 -90 -3l-5 8l5 75l-104 -85q-15 -12 -49 -12q-88 0 -139.5 63.5t-51.5 170.5q0 126 84 181l72 47q41 26 88 26q37 0 80 -17l20 -8v122q0 44 -4.5 56.5t-21.5 13.5l-53 3v36q80 8 121 21l72 22l8 -6v-614q0 -40 6.5 -51t29.5 -13l33 -2v-37z
M386 160v184q-48 63 -112 63q-106 0 -106 -152q0 -81 31.5 -129t84.5 -48q41 0 71.5 24t30.5 58z" />
    <glyph glyph-name="e" unicode="e" horiz-adv-x="500" 
d="M461 243q-81 -20 -158 -20h-131q3 -63 25 -100q19 -31 52.5 -50t71.5 -19q55 0 118 35l12 -15l-22 -48q-49 -25 -82 -34t-76 -9q-112 0 -170.5 62t-58.5 181q0 138 95 194l47 28q39 23 87 23q87 0 138.5 -48t51.5 -128v-52zM334 276q0 74 -20 106.5t-63 32.5
q-44 0 -64.5 -33t-20.5 -106l32 -1q15 -1 25 -1t12.5 -0.5t4 -0.5h3h7.5z" />
    <glyph glyph-name="f" unicode="f" horiz-adv-x="389" 
d="M381 617l-16 -7q-39 24 -67 24q-34 0 -46.5 -19.5t-12.5 -72.5v-108q72 0 131 4l4 -8l-11 -58h-124v-272q0 -32 3 -46q5 -16 47 -18l45 -2v-37q-79 3 -160 3q-70 0 -140 -3v37l41 2q28 2 35 12.5t7 51.5v272l-79 -5v24q47 23 79 45v43q0 60 9.5 83.5t45.5 53.5l74 62
q50 42 93 42q17 0 42 -6v-97z" />
    <glyph glyph-name="g" unicode="g" horiz-adv-x="556" 
d="M535 -42q0 -100 -81 -162t-212 -62q-99 0 -157.5 38.5t-58.5 103.5q0 46 26 62l81 48q-37 10 -52.5 25t-15.5 42q0 36 17 48l71 54q-45 15 -69 41q-37 40 -37 96q0 79 60.5 129t156.5 50q93 0 152 -43q16 -1 36 -1q31 0 82 5l-5 -64l-77 4q5 -24 5 -47q0 -72 -44 -116
q-64 -64 -174 -64q-4 0 -40 2q-29 -17 -29 -39q0 -32 47 -30l146 4h24q148 0 148 -124zM334 299q0 122 -82 122t-82 -110q0 -56 22.5 -88t61.5 -32q80 0 80 108zM424 -95q0 48 -30.5 64t-121.5 16q-79 0 -101 -11q-23 -11 -37 -34.5t-14 -51.5q0 -47 40.5 -75.5t107.5 -28.5
t111.5 34.5t44.5 86.5z" />
    <glyph glyph-name="h" unicode="h" horiz-adv-x="611" 
d="M587 -3q-51 3 -101 3q-45 0 -90 -3v272q0 61 -22.5 88.5t-71.5 27.5q-33 0 -59 -21t-26 -47v-217q0 -40 6.5 -51t29.5 -13l35 -2v-37q-68 3 -135 3q-65 0 -129 -3v37l35 2q23 2 29.5 13t6.5 51v468q0 44 -4.5 56.5t-21.5 13.5l-45 3v36q77 10 113 21l72 22l8 -6v-324
l80 62q23 19 70 19q76 0 116 -42q35 -38 35 -143v-186q0 -40 6.5 -51t29.5 -13l33 -2v-37z" />
    <glyph glyph-name="i" unicode="i" 
d="M298 -3q-68 3 -135 3q-65 0 -129 -3v37l35 2q23 2 29.5 13t6.5 51v219q0 44 -4.5 56.5t-21.5 13.5l-45 3v36l15 2q56 8 98 19l70 22l10 -6v-365q0 -40 6.5 -51t29.5 -13l35 -2v-37zM233 599q0 -28 -19.5 -47.5t-47.5 -19.5t-47.5 20t-19.5 48q0 27 20 46.5t48 19.5
q27 0 46.5 -20t19.5 -47z" />
    <glyph glyph-name="j" unicode="j" 
d="M227 98q0 -115 -11.5 -176t-41.5 -105q-56 -83 -130 -83q-17 0 -31 2l-10 35l4 6h23q40 0 57.5 43t17.5 142v357q0 44 -4.5 56.5t-21.5 13.5l-45 3v36l18 2q51 5 95 19l70 22l10 -6v-367zM233 599q0 -28 -19.5 -47.5t-47.5 -19.5t-47.5 20t-19.5 48q0 27 20 46.5t48 19.5
q27 0 46.5 -20t19.5 -47z" />
    <glyph glyph-name="k" unicode="k" horiz-adv-x="611" 
d="M597 0h-172q-82 101 -154 182q-20 22 -39 44h-10v-126q0 -40 6.5 -51t29.5 -13l35 -2v-37q-67 3 -135 3q-64 0 -129 -3v37l35 2q23 2 29.5 13t6.5 51v468q0 44 -4.5 56.5t-21.5 13.5l-53 3v36q80 8 121 21l72 22l8 -6v-465q73 63 106 97l107 113h130v-38h-31
q-24 0 -48 -18q-28 -20 -63 -49.5t-56 -48.5l-21 -19l196 -220q26 -29 55 -32v-34z" />
    <glyph glyph-name="l" unicode="l" 
d="M296 -3q-68 3 -135 3q-65 0 -129 -3v37l35 2q23 2 29.5 13t6.5 51v468q0 44 -4.5 56.5t-21.5 13.5l-53 3v36q80 8 121 21l72 22l8 -6v-614q0 -40 6.5 -51t29.5 -13l35 -2v-37z" />
    <glyph glyph-name="m" unicode="m" horiz-adv-x="889" 
d="M864 -3q-49 3 -98 3q-46 0 -93 -3v272q0 116 -86 116q-30 0 -55.5 -21.5t-25.5 -46.5v-217q0 -40 6.5 -51t29.5 -13l35 -2v-37q-66 3 -131 3q-64 0 -129 -3v37l31 2q24 1 30 12t6 52v169q0 116 -86 116q-30 0 -55.5 -21.5t-25.5 -46.5v-217q0 -41 6 -52t30 -12l27 -2v-37
q-63 3 -127 3q-65 0 -129 -3v37l35 2q23 2 29.5 13t6.5 51v219q0 44 -4.5 56.5t-21.5 13.5l-45 3v36q42 2 76 10t111 33l6 -6v-75l80 62q25 19 71 19q52 0 83.5 -19t48.5 -62l80 62q25 19 72 19q80 0 111.5 -40.5t31.5 -144.5v-186q0 -40 6.5 -51t29.5 -13l33 -2v-37z" />
    <glyph glyph-name="n" unicode="n" horiz-adv-x="611" 
d="M587 -3q-51 3 -101 3q-45 0 -90 -3v273q0 60 -22.5 87.5t-71.5 27.5q-33 0 -59 -21t-26 -47v-217q0 -40 6.5 -51t29.5 -13l35 -2v-37q-68 3 -135 3q-65 0 -129 -3v37l35 2q23 2 29.5 13t6.5 51v219q0 44 -4.5 56.5t-21.5 13.5l-45 3v36q42 2 76 10t111 33l6 -6v-75l80 62
q23 19 70 19q76 0 116 -42q35 -38 35 -143v-186q0 -40 6.5 -51t29.5 -13l33 -2v-37z" />
    <glyph glyph-name="o" unicode="o" horiz-adv-x="556" 
d="M517 236q0 -121 -65 -187t-185 -66q-109 0 -168 63t-59 178q0 119 64 183t183 64q111 0 170.5 -60.5t59.5 -174.5zM381 205q0 218 -106 218q-52 0 -75.5 -42t-23.5 -133q0 -217 109 -217q51 0 73.5 41t22.5 133z" />
    <glyph glyph-name="p" unicode="p" horiz-adv-x="611" 
d="M567 286q0 -141 -102 -218q-13 -10 -17 -13q-91 -72 -137 -72q-29 0 -89 17v-155q0 -41 6.5 -52t29.5 -12l45 -2v-37q-72 3 -145 3q-64 0 -129 -3v37l35 2q23 2 29.5 13t6.5 51v474q0 44 -4.5 56.5t-21.5 13.5l-45 3v36l11 1q58 6 102 20l70 22l10 -6v-82l61 49
q49 39 103 39q78 0 129.5 -52.5t51.5 -132.5zM441 221q0 75 -32.5 117.5t-90.5 42.5q-63 0 -96 -50v-225q39 -55 101 -55q55 0 86.5 46t31.5 124z" />
    <glyph glyph-name="q" unicode="q" horiz-adv-x="611" 
d="M589 -258q-67 3 -135 3q-64 0 -129 -3v37l35 2q23 2 29.5 13t6.5 51v230l-96 -77q-18 -15 -60 -15q-87 0 -137.5 61.5t-50.5 167.5q0 74 26 118t91 81q107 60 154 60q46 0 116 -34l22 -11l52 42l21 -14q-16 -79 -16 -130v-479q0 -40 6.5 -51t29.5 -13l35 -2v-37zM396 160
v184q-48 63 -112 63q-106 0 -106 -152q0 -81 31.5 -129t84.5 -48q41 0 71.5 24t30.5 58z" />
    <glyph glyph-name="r" unicode="r" horiz-adv-x="389" 
d="M389 465l-5 -129l-24 -10q-21 36 -57 36q-29 0 -54.5 -20.5t-25.5 -43.5v-198q0 -42 8 -52t40 -12l39 -2v-37q-75 3 -151 3q-65 0 -129 -3v37l35 2q23 2 29.5 13t6.5 51v219q0 44 -4.5 56.5t-21.5 13.5l-45 3v36q77 10 113 21l70 22l10 -6v-95l44 48q29 31 46.5 42
t38.5 11q22 0 37 -6z" />
    <glyph glyph-name="s" unicode="s" horiz-adv-x="444" 
d="M405 155q0 -77 -58 -124.5t-153 -47.5q-74 0 -155 28l7 141h39l5 -69q44 -52 112 -52q43 0 67.5 21t24.5 56q0 26 -14 40.5t-49 22.5l-86 21q-106 26 -106 125q0 75 53.5 114.5t154.5 39.5q70 0 123 -23l-8 -122h-36l-10 58q-2 15 -29 27t-58 12q-41 0 -64.5 -17.5
t-23.5 -47.5q0 -24 12.5 -36.5t42.5 -19.5l82 -18q68 -15 97.5 -45t29.5 -84z" />
    <glyph glyph-name="t" unicode="t" 
d="M324 60l-49 -59q-15 -18 -65 -18q-65 0 -94.5 30t-29.5 97v259l-64 -4v22l66 43v60q0 21 -4 92q78 29 122 50l14 -10q-12 -67 -12 -136v-58q57 0 114 6l-8 -65h-106v-238q0 -37 13.5 -51t48.5 -14q19 0 46 13z" />
    <glyph glyph-name="u" unicode="u" horiz-adv-x="611" 
d="M583 -3q-51 3 -101 3q-47 0 -95 -3l5 83l-76 -74q-23 -23 -69 -23q-73 0 -112 40.5t-39 116.5v179q0 44 -4.5 56.5t-21.5 13.5l-45 3v36q75 10 113 21l70 22l10 -6v-261q0 -72 17.5 -101.5t60.5 -29.5q40 0 68 26.5t28 63.5v156q0 44 -4.5 56.5t-21.5 13.5l-45 3v36
q76 10 113 21l70 22l10 -6v-365q0 -41 6 -52t30 -12l33 -2v-37z" />
    <glyph glyph-name="v" unicode="v" horiz-adv-x="556" 
d="M545 421l-30 -5q-22 -4 -36 -34l-128 -288q-18 -40 -38 -97h-86l-143 360q-24 61 -48 62l-25 2v38q64 -3 130 -3q65 0 129 3v-38l-41 -2q-23 -2 -23 -17q0 -16 14 -51l88 -221l35 80l61 151q9 23 9 41q0 15 -23 17l-38 2v38q48 -3 97 -3q48 0 96 3v-38z" />
    <glyph glyph-name="w" unicode="w" horiz-adv-x="833" 
d="M820 421l-34 -2q-19 -1 -36 -47l-92 -260q-12 -36 -21 -64.5t-11 -39.5l-3 -11h-81l-132 307q-58 -114 -79 -161t-58 -146h-79l-107 384q-6 20 -15 28.5t-26 9.5l-33 2v38q68 -3 136 -3q67 0 135 3v-38l-47 -2q-19 0 -19 -22q0 -11 2 -19l59 -227l57 125l87 195h50
l138 -317q27 73 39 112l36 113q3 12 3 19q0 19 -29 21l-42 2v38q51 -3 101 -3t101 3v-38z" />
    <glyph glyph-name="x" unicode="x" horiz-adv-x="500" 
d="M483 -3q-39 3 -77 3q-39 0 -78 -3l-100 169l-64 -88l-52 -78h-91v34q44 3 69 36l110 140l-80 136q-20 33 -36 45.5t-41 12.5q-10 0 -15 -1l-8 36q82 15 146 32q30 -24 62 -77l52 -85l108 150h95v-37q-28 -1 -41.5 -8.5t-36.5 -34.5l-97 -114l89 -152q25 -43 43.5 -60
t42.5 -19v-37z" />
    <glyph glyph-name="y" unicode="y" horiz-adv-x="556" 
d="M546 421l-26 -5q-22 -5 -41 -47l-199 -463q-74 -172 -176 -172q-35 0 -73 17l18 95l11 4q33 -37 70 -37q26 0 50.5 24t41.5 67l23 56l-158 404q-21 54 -42 55l-35 2v38q66 -3 133 -3q66 0 132 3v-38l-35 -2q-26 -2 -26 -23q0 -8 17 -53l84 -218l101 252q4 10 4 22
q0 18 -27 20l-33 2v38q46 -3 93 -3t93 3v-38z" />
    <glyph glyph-name="z" unicode="z" horiz-adv-x="500" 
d="M464 155q-12 -82 -12 -153l-5 -5q-137 3 -273 3q-78 0 -158 -3v33l104 136l170 238h-118q-42 0 -56.5 -11.5t-19.5 -47.5l-3 -25h-38l3 134l7 3q118 -3 236 -3q77 0 153 3v0v-1v-1v-1v-1v-1v-1v-1v-2v-1v-1v-1v-2v-1v-2v-1v-2v-1v-2v-2v-8l-268 -369h163q36 0 49.5 13
t20.5 56l5 31h40z" />
    <glyph glyph-name="braceleft" unicode="{" horiz-adv-x="310" 
d="M288 -117q-106 0 -144 23q-48 30 -48 110v174q0 54 -17 75t-74 36v2q57 15 74 36t17 75v178q0 80 48 110q38 23 144 23v-2q-57 -16 -76 -39.5t-19 -77.5v-177q0 -61 -20.5 -87t-81.5 -40q61 -13 81.5 -40.5t20.5 -92.5v-167q0 -54 19 -77.5t76 -39.5v-2z" />
    <glyph glyph-name="bar" unicode="|" horiz-adv-x="606" 
d="M346 -104h-86v824h86v-824z" />
    <glyph glyph-name="braceright" unicode="}" horiz-adv-x="310" 
d="M305 301q-57 -15 -74 -36t-17 -75v-174q0 -80 -48 -110q-38 -23 -144 -23v2q57 16 76 39.5t19 77.5v167q0 66 20.5 92.5t81.5 40.5q-61 14 -81.5 40t-20.5 87v177q0 54 -19 77.5t-76 39.5v2q119 0 155 -31q37 -31 37 -102v-178q0 -54 17 -75t74 -36v-2z" />
    <glyph glyph-name="asciitilde" unicode="~" horiz-adv-x="606" 
d="M555 287q-35 -60 -68.5 -86.5t-73.5 -26.5q-33 0 -109 33q-83 36 -109 36q-24 0 -42 -14.5t-41 -51.5l-61 39q35 60 68.5 86.5t73.5 26.5q33 0 109 -33q83 -36 109 -36q24 0 42 14.5t41 51.5z" />
    <glyph glyph-name="uni00A0" unicode="&#xa0;" 
 />
    <glyph glyph-name="exclamdown" unicode="&#xa1;" horiz-adv-x="278" 
d="M215 389q0 -31 -23.5 -55t-55.5 -24q-30 0 -53.5 24t-23.5 55t23.5 54t55.5 23q31 0 54 -23t23 -54zM210 -190l-100 -44h-51q0 41 7 96l50 372l38 21l5 -8l47 -358q3 -25 4 -79z" />
    <glyph glyph-name="cent" unicode="&#xa2;" horiz-adv-x="500" 
d="M450 64l-21 -47l-4 -4q-66 -30 -126 -30q-6 0 -59 5l-10 1l-32 -95h-42l36 106q-62 32 -90.5 82.5t-28.5 131.5q0 77 29 129q15 27 64 58l52 33q65 40 118 42l26 78h41l-25 -81q42 -10 63 -20l5 -9q-13 -58 -18 -148h-38l-6 60q-1 10 -10.5 20t-20.5 13l-91 -302
q39 -32 96 -32q43 0 83 20zM313 400q-8 1 -21 1q-96 0 -96 -138q0 -71 34 -139z" />
    <glyph glyph-name="sterling" unicode="&#xa3;" horiz-adv-x="500" 
d="M501 178l-10 -179q-43 -15 -83 -15q-67 0 -162 26q-80 22 -133 22q-21 0 -51 -25q-23 -20 -44 -26l-20 59l64 52q27 22 34.5 60t9.5 168h-90v43h90v43q0 82 55 144q45 52 116.5 89t126.5 37q43 0 76 -27l-10 -136h-31l-3 35q-2 28 -24 45t-57 17q-54 0 -79 -33.5
t-32 -113.5l-8 -100h168v-43h-173q-27 -137 -114 -227q63 19 104 19q22 0 97 -11q60 -9 88 -9q43 0 50 30l11 56h34z" />
    <glyph glyph-name="currency" unicode="&#xa4;" horiz-adv-x="500" 
d="M468 484l-46 -48q39 -51 39 -122q0 -69 -40 -125l46 -48l-45 -45l-47 49q-53 -43 -125 -43q-73 0 -125 42l-48 -48l-45 45l49 49q-42 53 -42 123q0 74 42 122l-49 49l47 47l48 -48q54 41 124 41q67 0 120 -40l48 49zM384 314q0 55 -39.5 94t-95.5 39q-54 0 -93.5 -40
t-39.5 -95t40 -94.5t95 -39.5t94 40t39 96z" />
    <glyph glyph-name="yen" unicode="&#xa5;" horiz-adv-x="500" 
d="M483 659l-135 -277h118v-40h-134q-15 -33 -15 -58v-38h149v-40h-149v-71q0 -68 4.5 -80t30.5 -15l26 -3v-40q-54 3 -109 3q-58 0 -115 -3v40l26 3q26 3 30.5 15.5t4.5 79.5v71h-149v40h149v40q0 16 -19 48q-4 6 -5 8h-125v40h108l-63 140q-27 60 -47 80.5t-47 19.5v37
l115 36q24 -19 41.5 -48t40.5 -88l80 -203l133 322h56v-19z" />
    <glyph glyph-name="brokenbar" unicode="&#xa6;" horiz-adv-x="606" 
d="M346 390h-86v330h86v-330zM346 -104h-86v330h86v-330z" />
    <glyph glyph-name="section" unicode="&#xa7;" horiz-adv-x="500" 
d="M471 261q0 -43 -15 -73.5t-56 -72.5q55 -41 55 -104q0 -91 -74.5 -159.5t-172.5 -68.5q-50 0 -84.5 10t-74.5 35l14 155h39q-1 -9 -1 -20q0 -31 9 -64q51 -55 131 -55q53 0 93.5 32.5t40.5 75.5q0 33 -28 58q-27 23 -107 49l-61 20q-82 27 -115.5 61.5t-33.5 92.5
q0 36 13 63t46 58l19 18q-47 41 -47 98q0 41 21.5 88.5t53.5 77.5q29 27 72 43t86 16q61 0 130 -33q-11 -51 -17 -147h-38q0 51 -7 80q-29 31 -101 31q-56 0 -93 -26.5t-37 -67.5q0 -36 26.5 -57t99.5 -43l67 -20l4 -1q77 -20 110 -54.5t33 -95.5zM397 200q0 37 -26.5 61.5
t-88.5 45.5l-143 48q-35 -42 -35 -75q0 -27 31 -50.5t100 -49.5l133 -49q29 39 29 69z" />
    <glyph glyph-name="dieresis" unicode="&#xa8;" 
d="M341 599q0 -28 -19.5 -47.5t-47.5 -19.5t-47.5 20t-19.5 48q0 27 20 46.5t48 19.5q27 0 46.5 -20t19.5 -47zM126 599q0 -28 -19.5 -47.5t-47.5 -19.5t-47.5 19.5t-19.5 47.5t20 47.5t48 19.5q27 0 46.5 -20t19.5 -47z" />
    <glyph glyph-name="copyright" unicode="&#xa9;" horiz-adv-x="747" 
d="M728 337q0 -146 -104 -249.5t-250 -103.5t-249.5 103.5t-103.5 249.5t103.5 250t249.5 104t250 -104t104 -250zM680 337q0 127 -89.5 216.5t-216.5 89.5t-216 -89.5t-89 -216.5t89 -216t216 -89t216.5 89t89.5 216zM568 494q-6 -21 -14 -85h-30l-3 47q-41 34 -98 34
q-66 0 -103 -38t-37 -104q0 -72 43.5 -116t116.5 -44q57 0 113 28l11 -10l-15 -30q-59 -30 -132 -30q-111 0 -175.5 52.5t-64.5 142.5q0 86 66 136t179 50q67 0 138 -25z" />
    <glyph glyph-name="ordfeminine" unicode="&#xaa;" horiz-adv-x="438" 
d="M361 376q-9 0 -27.5 0.5t-29.5 0.5q-12 0 -30.5 -0.5t-28.5 -0.5l-3 4l3 38l-60 -44q-10 -7 -31 -7q-77 0 -77 75q0 29 12.5 46t41.5 28q25 10 57 16l57 10q-1 28 -10 43q-7 12 -23 21t-29 8q-3 0 -6 -1l-36 -8l-14 -30l-22 4v39l77 37q12 5 33 5q52 0 80.5 -23t28.5 -65
v-148q0 -23 18 -24l19 -2v-22zM245 446v71l-29 -7q-34 -8 -47 -19.5t-13 -33.5q0 -17 9 -27.5t24 -10.5q31 0 56 27zM361 288h-284v48h284v-48z" />
    <glyph glyph-name="guillemotleft" unicode="&#xab;" horiz-adv-x="500" 
d="M261 64l-27 -20q-122 125 -198 187v25q140 123 198 182l27 -22l-110 -173zM463 64l-27 -20q-122 125 -198 187v25q140 123 198 182l27 -22l-110 -173z" />
    <glyph glyph-name="logicalnot" unicode="&#xac;" horiz-adv-x="606" 
d="M560 378v-213h-86v127h-428v86h514z" />
    <glyph glyph-name="uni00AD" unicode="&#xad;" 
d="M317 295q-24 -53 -32 -100h-261l-8 8q26 72 34 102h258z" />
    <glyph glyph-name="registered" unicode="&#xae;" horiz-adv-x="747" 
d="M728 337q0 -146 -104 -249.5t-250 -103.5t-249.5 103.5t-103.5 249.5t103.5 250t249.5 104t250 -104t104 -250zM680 337q0 127 -89.5 216.5t-216.5 89.5t-216 -89.5t-89 -216.5t89 -216t216 -89t216.5 89t89.5 216zM569 182v-29q-38 2 -58 2q-19 0 -57 -2l-119 181v19
q31 0 48 8q36 20 36 62q0 26 -22 44.5t-51 18.5q-18 0 -26 -3v-253q0 -45 20 -46l23 -2v-29q-62 2 -92 2t-92 -2v29l24 2q20 1 20 46v214q0 46 -20 47l-24 2v28q53 -3 105 -3q19 0 57.5 1.5t57.5 1.5q47 0 82 -22t35 -60q0 -32 -25 -59q-20 -20 -59 -36l102 -141
q15 -18 35 -21z" />
    <glyph glyph-name="macron" unicode="&#xaf;" 
d="M332 564h-331v71h331v-71z" />
    <glyph glyph-name="degree" unicode="&#xb0;" horiz-adv-x="400" 
d="M350 510q0 -62 -44 -106t-106 -44t-106 44t-44 106q0 63 44 106.5t108 43.5q60 0 104 -44.5t44 -105.5zM289 510q0 36 -26.5 62.5t-62.5 26.5q-37 0 -63 -25.5t-26 -62.5t26 -63.5t63 -26.5t63 26t26 63z" />
    <glyph glyph-name="plusminus" unicode="&#xb1;" horiz-adv-x="606" 
d="M560 293h-214v-130h-86v130h-214v86h214v214h86v-214h214v-86zM560 0h-514v86h514v-86z" />
    <glyph glyph-name="two.superior" unicode="&#xb2;" horiz-adv-x="300" 
d="M287 259q-53 1 -83 1.5t-57 0.5q-9 0 -135 -2v35l101 99q69 67 69 133q0 28 -16.5 45t-44.5 17q-19 0 -35 -9t-20 -21l-12 -42l-28 2l11 102q51 37 100 37q57 0 94 -29.5t37 -75.5q0 -61 -63 -122l-103 -99l181 6l4 -6q-2 -20 -2 -37q0 -20 1 -27z" />
    <glyph glyph-name="three.superior" unicode="&#xb3;" horiz-adv-x="300" 
d="M278 397q0 -61 -51.5 -103.5t-123.5 -42.5q-41 0 -78 15l-16 93l26 6q19 -40 39.5 -57t51.5 -17t51 21t20 54q0 32 -19.5 51t-52.5 19q-18 0 -38 -6l-7 6l12 48h24q29 0 47 16t18 42q0 23 -15.5 36.5t-42.5 13.5q-51 0 -68 -59h-28l20 96q51 28 95 28q49 0 80.5 -24.5
t31.5 -61.5q0 -52 -60 -85q84 -11 84 -89z" />
    <glyph glyph-name="acute" unicode="&#xb4;" 
d="M316 647q0 -16 -9.5 -28t-33.5 -27q-2 -1 -3 -2t-2.5 -1.5t-9.5 -5.5t-20.5 -13t-39.5 -25t-64 -39h-56l129 148q33 37 65 37q20 0 32 -12t12 -32z" />
    <glyph glyph-name="uni00B5" unicode="&#xb5;" horiz-adv-x="611" 
d="M583 -3q-21 1 -47 1q-28 2 -55 2l-94 -3l5 83l-85 -85q-12 -12 -52 -12q-50 0 -85 23q16 -102 16 -151q0 -32 -25 -54.5t-65 -25.5v544q0 44 -4.5 56.5t-21.5 13.5l-45 3v36q74 9 113 21l70 22l10 -6v-261q0 -72 17.5 -101.5t60.5 -29.5q40 0 68 26.5t28 63.5v156
q0 44 -4.5 56.5t-21.5 13.5l-45 3v36q75 10 113 21l70 22l10 -6v-365q0 -40 6.5 -51t29.5 -13l33 -2v-37z" />
    <glyph glyph-name="paragraph" unicode="&#xb6;" horiz-adv-x="641" 
d="M599 -161l-202 3l-202 -3v41l49 2q23 1 29.5 12t6.5 52v378q-109 8 -183 63q-78 58 -78 142q0 69 58.5 113t150.5 41l56 -2l152 -3q3 0 16.5 0.5t22.5 0.5l124 2v-41h-47q-21 0 -29.5 -17t-8.5 -60v-617q0 -41 6.5 -52t29.5 -12l49 -2v-41zM426 -111v745h-58v-745h58z
M280 371v263q-6 1 -15 1q-49 0 -82 -34.5t-33 -87.5q0 -54 34 -91.5t96 -50.5z" />
    <glyph glyph-name="periodcentered" unicode="&#xb7;" horiz-adv-x="250" 
d="M203 250q0 -32 -23 -55t-55 -23t-55 23t-23 55t23 55t55 23t55 -23t23 -55z" />
    <glyph glyph-name="cedilla" unicode="&#xb8;" 
d="M300 -138q0 -40 -36 -63.5t-97 -23.5q-40 0 -94 18l16 37q44 -9 67 -9q50 0 50 37q0 35 -38 35q-4 0 -36 -4l-10 8l43 110h41l-28 -78q23 6 45 6q35 0 56 -19.5t21 -53.5z" />
    <glyph glyph-name="one.superior" unicode="&#xb9;" horiz-adv-x="300" 
d="M277 259q-10 0 -47.5 1t-61.5 1q-22 0 -46.5 -0.5t-79.5 -1.5v29l46 1q31 0 31 25v261q0 15 -1 18l-2 2l-1 -1l-87 -40q-10 24 -10 43v1v5q61 14 183 60l10 -8q-6 -96 -6 -151v-190q0 -24 31 -25l41 -1v-29z" />
    <glyph glyph-name="ordmasculine" unicode="&#xba;" horiz-adv-x="488" 
d="M399 517q0 -71 -43 -110.5t-120 -39.5q-71 0 -109 38t-38 109q0 70 42 108t119 38q72 0 110.5 -37t38.5 -106zM311 500q0 131 -70 131q-64 0 -64 -103q0 -132 71 -132q33 0 48 24.5t15 79.5zM399 288h-310v48h310v-48z" />
    <glyph glyph-name="guillemotright" unicode="&#xbb;" horiz-adv-x="500" 
d="M262 231q-75 -61 -198 -187l-27 20l110 179l-110 173l27 22q65 -66 198 -182v-25zM464 231q-75 -61 -198 -187l-27 20l110 179l-110 173l27 22q65 -66 198 -182v-25z" />
    <glyph glyph-name="onequarter" unicode="&#xbc;" horiz-adv-x="750" 
d="M735 -2q-60 2 -98 2l-117 -2v30l38 2q37 2 37 45v24h-155l-4 23q12 35 31 68l78 129q19 31 50 68l76 16l8 -7v-244h54v-53h-54v-24q0 -41 37 -45l19 -2v-30zM292 261q-71 2 -116 2q-25 0 -53.5 -0.5t-77.5 -1.5v30l42 2q38 2 38 45v235q0 23 -6 23l-6 -2l-85 -38
q-9 31 -9 48q72 19 198 61l8 -5l-4 -43q-3 -37 -3 -47v-232q0 -43 37 -45l37 -2v-30zM660 660l-403 -660h-69l403 660h69zM595 152v179l-106 -179h106z" />
    <glyph glyph-name="onehalf" unicode="&#xbd;" horiz-adv-x="750" 
d="M627 660l-403 -660h-69l403 660h69zM282 261q-71 2 -116 2q-25 0 -53.5 -0.5t-77.5 -1.5v30l42 2q38 2 38 45v235q0 23 -6 23l-4 -1l-87 -39q-9 31 -9 48q72 19 198 61l8 -5l-4 -43q-3 -37 -3 -47v-232q0 -43 37 -45l37 -2v-30zM745 -2q-133 2 -144 2q-28 0 -146 -2v37
l108 101q70 66 70 128q0 30 -18.5 47.5t-50.5 17.5q-24 0 -36.5 -9t-19.5 -32l-10 -33l-28 4l12 101q52 37 104 37q61 0 100 -29.5t39 -75.5q0 -65 -67 -127l-96 -90v-8l178 9l5 -5q-2 -18 -2 -39q0 -19 2 -34z" />
    <glyph glyph-name="threequarters" unicode="&#xbe;" horiz-adv-x="750" 
d="M632 660l-403 -660h-69l403 660h69zM298 405q0 -60 -54.5 -102t-132.5 -42q-44 0 -80 14l-16 90l22 5q35 -72 96 -72q35 0 59.5 22.5t24.5 55.5q0 32 -22.5 52.5t-57.5 20.5q-20 0 -41 -5l-5 3l13 44h22q34 0 54 17t20 46q0 25 -17 38.5t-48 13.5q-57 0 -74 -58h-26
l20 92q51 27 100 27q51 0 84 -24t33 -61q0 -52 -74 -88q100 -9 100 -89zM735 -2q-60 2 -98 2l-117 -2v30l38 2q37 2 37 45v24h-155l-4 23q12 35 31 68l78 129q19 31 50 68l76 16l8 -7v-244h54v-53h-54v-24q0 -41 37 -45l19 -2v-30zM595 152v179l-106 -179h106z" />
    <glyph glyph-name="questiondown" unicode="&#xbf;" horiz-adv-x="444" 
d="M401 -52q-28 -85 -32 -133q-71 -48 -150 -48q-85 0 -135.5 42.5t-50.5 114.5q0 42 15.5 71.5t55.5 62.5l77 64q62 51 62 91q0 17 -9 37l-1 2l34 14q26 -33 26 -74q0 -47 -63 -124q-63 -75 -63 -122q0 -35 27.5 -59t68.5 -24q61 0 72 23l31 71zM328 390q0 -32 -24 -56
t-55 -24q-30 0 -53.5 24t-23.5 55t23.5 54t54.5 23q32 0 55 -22.5t23 -53.5z" />
    <glyph glyph-name="Agrave" unicode="&#xc0;" horiz-adv-x="778" 
d="M757 -3q-79 3 -158 3q-75 0 -152 -3v37l53 3q18 1 19.5 22t-5.5 33l-45 114h-251l-42 -112q-8 -16 -2.5 -36t26.5 -21l50 -3v-37q-57 3 -113 3t-113 -3v37l30 3q33 3 56 60l181 438l57 151h71l259 -605q17 -39 55 -44l24 -3v-37zM446 262l-104 254l-100 -254h204z
M496 733h-60l-150 71q-27 12 -37 21.5t-10 22.5q0 16 13 26t34 10q35 0 71 -30z" />
    <glyph glyph-name="Aacute" unicode="&#xc1;" horiz-adv-x="778" 
d="M757 -3q-79 3 -158 3q-75 0 -152 -3v37l53 3q18 1 19.5 22t-5.5 33l-45 114h-251l-42 -112q-8 -16 -2.5 -36t26.5 -21l50 -3v-37q-57 3 -113 3t-113 -3v37l30 3q33 3 56 60l181 438l57 151h71l259 -605q17 -39 55 -44l24 -3v-37zM446 262l-104 254l-100 -254h204z
M529 848q0 -13 -10 -22.5t-37 -21.5l-150 -71h-60l139 121q36 30 71 30q21 0 34 -10t13 -26z" />
    <glyph glyph-name="Acircumflex" unicode="&#xc2;" horiz-adv-x="778" 
d="M757 -3q-79 3 -158 3q-75 0 -152 -3v37l53 3q18 1 19.5 22t-5.5 33l-45 114h-251l-42 -112q-8 -16 -2.5 -36t26.5 -21l50 -3v-37q-57 3 -113 3t-113 -3v37l30 3q33 3 56 60l181 438l57 151h71l259 -605q17 -39 55 -44l24 -3v-37zM446 262l-104 254l-100 -254h204z
M566 738h-62l-121 81l-122 -81h-59l131 143h101z" />
    <glyph glyph-name="Atilde" unicode="&#xc3;" horiz-adv-x="778" 
d="M757 -3q-79 3 -158 3q-75 0 -152 -3v37l53 3q18 1 19.5 22t-5.5 33l-45 114h-251l-42 -112q-8 -16 -2.5 -36t26.5 -21l50 -3v-37q-57 3 -113 3t-113 -3v37l30 3q33 3 56 60l181 438l57 151h71l259 -605q17 -39 55 -44l24 -3v-37zM446 262l-104 254l-100 -254h204z
M567 872q-18 -65 -46.5 -95.5t-71.5 -30.5q-31 0 -84 25q-47 23 -77 23q-31 0 -46 -47h-40q6 55 38.5 90t77.5 35q29 0 80 -24t75 -24q18 0 27.5 9.5t23.5 38.5h43z" />
    <glyph glyph-name="Adieresis" unicode="&#xc4;" horiz-adv-x="778" 
d="M757 -3q-79 3 -158 3q-75 0 -152 -3v37l53 3q18 1 19.5 22t-5.5 33l-45 114h-251l-42 -112q-8 -16 -2.5 -36t26.5 -21l50 -3v-37q-57 3 -113 3t-113 -3v37l30 3q33 3 56 60l181 438l57 151h71l259 -605q17 -39 55 -44l24 -3v-37zM446 262l-104 254l-100 -254h204z
M559 809q0 -28 -19.5 -47.5t-47.5 -19.5t-47.5 20t-19.5 48q0 27 20 46.5t48 19.5q27 0 46.5 -20t19.5 -47zM344 809q0 -28 -19.5 -47.5t-47.5 -19.5t-47.5 19.5t-19.5 47.5t20 47.5t48 19.5q27 0 46.5 -20t19.5 -47z" />
    <glyph glyph-name="Aring" unicode="&#xc5;" horiz-adv-x="778" 
d="M757 -3q-79 3 -158 3q-75 0 -152 -3v37l53 3q18 1 19.5 22t-5.5 33l-45 114h-251l-42 -112q-8 -16 -2.5 -36t26.5 -21l50 -3v-37q-57 3 -113 3t-113 -3v37l30 3q33 3 56 60l181 438l57 151h71l259 -605q17 -39 55 -44l24 -3v-37zM446 262l-104 254l-100 -254h204z
M485 826q0 -41 -29.5 -70.5t-70.5 -29.5t-70.5 29.5t-29.5 71.5q0 41 29.5 70t72.5 29q40 0 69 -29.5t29 -70.5zM435 826q0 20 -14.5 35t-34.5 15q-22 0 -36.5 -14.5t-14.5 -35.5t14.5 -35.5t35.5 -14.5t35.5 14.5t14.5 35.5z" />
    <glyph glyph-name="AE" unicode="&#xc6;" horiz-adv-x="1000" 
d="M954 166l-11 -158l-5 -8q-95 -5 -141 -4l-161 3l-65 1l-122 -3v23l32 18q20 11 20 57v119h-260l-62 -107q-19 -33 -19 -55q10 -15 24 -15l54 -3v-37l-118 3l-108 -3v37l38 3q21 1 54 57l290 490q17 28 17 40q0 15 -43 17l-52 3v37l262 -3l142 2q81 2 83 2h39q44 0 95 -4
l6 -7l-14 -142h-36l-8 75q-1 8 -29.5 14t-68.5 6q-70 0 -145 -4v-240q20 -2 67 -2h66q31 0 43 4.5t14 16.5l6 57h40q-3 -54 -3 -107q0 -54 3 -108h-40l-6 50q-4 37 -57 37h-66q-25 0 -67 -3v-267l131 -3q69 -1 116 14l3 3l23 94h39zM501 267v339l-7 17h-7l-216 -356h230z
" />
    <glyph glyph-name="Ccedilla" unicode="&#xc7;" horiz-adv-x="722" 
d="M695 637q-11 -45 -23 -153h-39l-5 86q-41 38 -81 53.5t-97 15.5q-119 0 -187.5 -74.5t-68.5 -203.5q0 -142 79.5 -227.5t211.5 -85.5q97 0 195 51l12 -12l-22 -49q-55 -31 -105 -43t-119 -12q-29 0 -49 2l-24 -56q24 6 46 6q35 0 55.5 -19.5t20.5 -53.5q0 -40 -36 -63.5
t-97 -23.5q-42 0 -94 18l16 37q44 -9 67 -9q50 0 50 37q0 35 -38 35q-9 0 -36 -4l-10 8l41 93q-90 15 -148 48q-79 46 -122.5 126.5t-43.5 182.5q0 161 110.5 254.5t300.5 93.5q65 0 115.5 -10t118.5 -37z" />
    <glyph glyph-name="Egrave" unicode="&#xc8;" horiz-adv-x="611" 
d="M577 166l-11 -158l-5 -8q-57 -3 -140 -3q-37 0 -113 1.5t-113 1.5q-61 0 -123 -3v23l32 18q20 11 20 57v448q0 66 -7 80.5t-41 17.5l-37 3v37q95 -3 190 -3q39 0 118 1.5t118 1.5t95 -3l6 -7l-14 -142h-36l-8 75q-2 19 -98 19l-145 -3v-240q20 -2 67 -2h66q31 0 43 4.5
t14 16.5l6 57h40q-3 -54 -3 -107q0 -54 3 -108h-40l-6 50q-4 37 -57 37h-66q-25 0 -67 -3v-267l149 -3q34 0 66.5 5.5t34.5 11.5l23 94h39zM429 733h-60l-150 71q-27 12 -37 21.5t-10 22.5q0 16 13 26t34 10q35 0 71 -30z" />
    <glyph glyph-name="Eacute" unicode="&#xc9;" horiz-adv-x="611" 
d="M577 166l-11 -158l-5 -8q-57 -3 -140 -3q-37 0 -113 1.5t-113 1.5q-61 0 -123 -3v23l32 18q20 11 20 57v448q0 66 -7 80.5t-41 17.5l-37 3v37q95 -3 190 -3q39 0 118 1.5t118 1.5t95 -3l6 -7l-14 -142h-36l-8 75q-2 19 -98 19l-145 -3v-240q20 -2 67 -2h66q31 0 43 4.5
t14 16.5l6 57h40q-3 -54 -3 -107q0 -54 3 -108h-40l-6 50q-4 37 -57 37h-66q-25 0 -67 -3v-267l149 -3q34 0 66.5 5.5t34.5 11.5l23 94h39zM462 848q0 -13 -10 -22.5t-37 -21.5l-150 -71h-60l139 121q36 30 71 30q21 0 34 -10t13 -26z" />
    <glyph glyph-name="Ecircumflex" unicode="&#xca;" horiz-adv-x="611" 
d="M577 166l-11 -158l-5 -8q-57 -3 -140 -3q-37 0 -113 1.5t-113 1.5q-61 0 -123 -3v23l32 18q20 11 20 57v448q0 66 -7 80.5t-41 17.5l-37 3v37q95 -3 190 -3q39 0 118 1.5t118 1.5t95 -3l6 -7l-14 -142h-36l-8 75q-2 19 -98 19l-145 -3v-240q20 -2 67 -2h66q31 0 43 4.5
t14 16.5l6 57h40q-3 -54 -3 -107q0 -54 3 -108h-40l-6 50q-4 37 -57 37h-66q-25 0 -67 -3v-267l149 -3q34 0 66.5 5.5t34.5 11.5l23 94h39zM499 738h-62l-121 81l-122 -81h-59l131 143h101z" />
    <glyph glyph-name="Edieresis" unicode="&#xcb;" horiz-adv-x="611" 
d="M577 166l-11 -158l-5 -8q-57 -3 -140 -3q-37 0 -113 1.5t-113 1.5q-61 0 -123 -3v23l32 18q20 11 20 57v448q0 66 -7 80.5t-41 17.5l-37 3v37q95 -3 190 -3q39 0 118 1.5t118 1.5t95 -3l6 -7l-14 -142h-36l-8 75q-2 19 -98 19l-145 -3v-240q20 -2 67 -2h66q31 0 43 4.5
t14 16.5l6 57h40q-3 -54 -3 -107q0 -54 3 -108h-40l-6 50q-4 37 -57 37h-66q-25 0 -67 -3v-267l149 -3q34 0 66.5 5.5t34.5 11.5l23 94h39zM492 809q0 -28 -19.5 -47.5t-47.5 -19.5t-47.5 20t-19.5 48q0 27 20 46.5t48 19.5q27 0 46.5 -20t19.5 -47zM277 809
q0 -28 -19.5 -47.5t-47.5 -19.5t-47.5 19.5t-19.5 47.5t20 47.5t48 19.5q27 0 46.5 -20t19.5 -47z" />
    <glyph glyph-name="Igrave" unicode="&#xcc;" horiz-adv-x="389" 
d="M350 -3q-78 3 -156 3q-77 0 -155 -3v40l37 3q35 3 41.5 15.5t6.5 79.5v408q0 67 -6.5 79.5t-41.5 15.5l-37 3v40q78 -3 155 -3q78 0 156 3v-40l-37 -3q-35 -3 -41.5 -15.5t-6.5 -79.5v-408q0 -67 6.5 -79.5t41.5 -15.5l37 -3v-40zM307 733h-60l-150 71q-27 12 -37 21.5
t-10 22.5q0 16 13 26t34 10q35 0 71 -30z" />
    <glyph glyph-name="Iacute" unicode="&#xcd;" horiz-adv-x="389" 
d="M350 -3q-78 3 -156 3q-77 0 -155 -3v40l37 3q35 3 41.5 15.5t6.5 79.5v408q0 67 -6.5 79.5t-41.5 15.5l-37 3v40q78 -3 155 -3q78 0 156 3v-40l-37 -3q-35 -3 -41.5 -15.5t-6.5 -79.5v-408q0 -67 6.5 -79.5t41.5 -15.5l37 -3v-40zM340 848q0 -13 -10 -22.5t-37 -21.5
l-150 -71h-60l139 121q36 30 71 30q21 0 34 -10t13 -26z" />
    <glyph glyph-name="Icircumflex" unicode="&#xce;" horiz-adv-x="389" 
d="M350 -3q-78 3 -156 3q-77 0 -155 -3v40l37 3q35 3 41.5 15.5t6.5 79.5v408q0 67 -6.5 79.5t-41.5 15.5l-37 3v40q78 -3 155 -3q78 0 156 3v-40l-37 -3q-35 -3 -41.5 -15.5t-6.5 -79.5v-408q0 -67 6.5 -79.5t41.5 -15.5l37 -3v-40zM377 738h-62l-121 81l-122 -81h-59
l131 143h101z" />
    <glyph glyph-name="Idieresis" unicode="&#xcf;" horiz-adv-x="389" 
d="M350 -3q-78 3 -156 3q-77 0 -155 -3v40l37 3q35 3 41.5 15.5t6.5 79.5v408q0 67 -6.5 79.5t-41.5 15.5l-37 3v40q78 -3 155 -3q78 0 156 3v-40l-37 -3q-35 -3 -41.5 -15.5t-6.5 -79.5v-408q0 -67 6.5 -79.5t41.5 -15.5l37 -3v-40zM370 809q0 -28 -19.5 -47.5t-47.5 -19.5
t-47.5 20t-19.5 48q0 27 20 46.5t48 19.5q27 0 46.5 -20t19.5 -47zM155 809q0 -28 -19.5 -47.5t-47.5 -19.5t-47.5 19.5t-19.5 47.5t20 47.5t48 19.5q27 0 46.5 -20t19.5 -47z" />
    <glyph glyph-name="Eth" unicode="&#xd0;" horiz-adv-x="833" 
d="M786 376q0 -162 -104 -263q-118 -116 -303 -116q-26 0 -78 1.5t-78 1.5q-77 0 -155 -3v23l32 18q20 11 20 57v243h-110v42h110v163q0 66 -7 80.5t-41 17.5l-37 3v37q81 -3 162 -3q40 0 119.5 1.5t119.5 1.5q101 0 165 -19.5t108 -63.5q77 -75 77 -222zM636 348
q0 146 -66 211q-73 72 -246 72q-31 0 -63 -4v-247h151v-42h-151v-281q31 -5 68 -5q162 0 234 71q73 73 73 225z" />
    <glyph glyph-name="Ntilde" unicode="&#xd1;" horiz-adv-x="833" 
d="M798 644l-37 -3q-34 -3 -41 -17.5t-7 -80.5v-454l3 -101l-7 -4l-82 13l-122 139l-326 392v-393q0 -66 7 -80.5t41 -17.5l37 -3v-37q-57 3 -114 3q-58 0 -115 -3v37l37 3q34 3 41 17.5t7 80.5v408q0 66 -7 80.5t-41 17.5l-37 3v37q60 -3 120 -3q42 0 84 3
q83 -110 103 -133l312 -364v359q0 66 -7 80.5t-41 17.5l-37 3v37q57 -3 115 -3q57 0 114 3v-37zM600 872q-18 -65 -46.5 -95.5t-71.5 -30.5q-31 0 -84 25q-47 23 -77 23q-31 0 -46 -47h-40q6 55 38.5 90t77.5 35q29 0 80 -24t75 -24q18 0 27.5 9.5t23.5 38.5h43z" />
    <glyph glyph-name="Ograve" unicode="&#xd2;" horiz-adv-x="833" 
d="M787 346q0 -171 -100.5 -267t-279.5 -96q-172 0 -266 91t-94 258q0 172 101 267.5t282 95.5q169 0 263 -92t94 -257zM637 325q0 179 -86 263q-53 51 -130 51q-95 0 -154 -57q-70 -70 -70 -227q0 -181 85 -264q52 -52 132 -52q110 0 166.5 72.5t56.5 213.5zM531 733h-60
l-150 71q-27 12 -37 21.5t-10 22.5q0 16 13 26t34 10q35 0 71 -30z" />
    <glyph glyph-name="Oacute" unicode="&#xd3;" horiz-adv-x="833" 
d="M787 346q0 -171 -100.5 -267t-279.5 -96q-172 0 -266 91t-94 258q0 172 101 267.5t282 95.5q169 0 263 -92t94 -257zM637 325q0 179 -86 263q-53 51 -130 51q-95 0 -154 -57q-70 -70 -70 -227q0 -181 85 -264q52 -52 132 -52q110 0 166.5 72.5t56.5 213.5zM564 848
q0 -13 -10 -22.5t-37 -21.5l-150 -71h-60l139 121q36 30 71 30q21 0 34 -10t13 -26z" />
    <glyph glyph-name="Ocircumflex" unicode="&#xd4;" horiz-adv-x="833" 
d="M787 346q0 -171 -100.5 -267t-279.5 -96q-172 0 -266 91t-94 258q0 172 101 267.5t282 95.5q169 0 263 -92t94 -257zM637 325q0 179 -86 263q-53 51 -130 51q-95 0 -154 -57q-70 -70 -70 -227q0 -181 85 -264q52 -52 132 -52q110 0 166.5 72.5t56.5 213.5zM601 738h-62
l-121 81l-122 -81h-59l131 143h101z" />
    <glyph glyph-name="Otilde" unicode="&#xd5;" horiz-adv-x="833" 
d="M787 346q0 -171 -100.5 -267t-279.5 -96q-172 0 -266 91t-94 258q0 172 101 267.5t282 95.5q169 0 263 -92t94 -257zM637 325q0 179 -86 263q-53 51 -130 51q-95 0 -154 -57q-70 -70 -70 -227q0 -181 85 -264q52 -52 132 -52q110 0 166.5 72.5t56.5 213.5zM602 872
q-18 -65 -46.5 -95.5t-71.5 -30.5q-31 0 -84 25q-47 23 -77 23q-31 0 -46 -47h-40q6 55 38.5 90t77.5 35q29 0 80 -24t75 -24q18 0 27.5 9.5t23.5 38.5h43z" />
    <glyph glyph-name="Odieresis" unicode="&#xd6;" horiz-adv-x="833" 
d="M787 346q0 -171 -100.5 -267t-279.5 -96q-172 0 -266 91t-94 258q0 172 101 267.5t282 95.5q169 0 263 -92t94 -257zM637 325q0 179 -86 263q-53 51 -130 51q-95 0 -154 -57q-70 -70 -70 -227q0 -181 85 -264q52 -52 132 -52q110 0 166.5 72.5t56.5 213.5zM594 809
q0 -28 -19.5 -47.5t-47.5 -19.5t-47.5 20t-19.5 48q0 27 20 46.5t48 19.5q27 0 46.5 -20t19.5 -47zM379 809q0 -28 -19.5 -47.5t-47.5 -19.5t-47.5 19.5t-19.5 47.5t20 47.5t48 19.5q27 0 46.5 -20t19.5 -47z" />
    <glyph glyph-name="multiply" unicode="&#xd7;" horiz-adv-x="606" 
d="M515 99l-61 -61l-151 151l-151 -151l-61 61l151 151l-151 151l61 61l151 -151l151 151l61 -61l-151 -151z" />
    <glyph glyph-name="Oslash" unicode="&#xd8;" horiz-adv-x="833" 
d="M808 659l-89 -82q38 -55 53 -104t15 -120q0 -177 -99.5 -273.5t-282.5 -96.5q-77 0 -146 21q-33 10 -52.5 21.5t-46.5 36.5l-90 -82l-38 40l91 83q-42 49 -59 99t-17 124q0 176 99.5 272.5t281.5 96.5q72 0 136 -18q37 -11 60.5 -23t57.5 -37l89 81zM592 534
q-33 58 -71 81.5t-97 23.5q-227 0 -227 -290q0 -97 25 -157zM637 333q0 94 -22 148l-373 -343q38 -55 75.5 -77t92.5 -22q227 0 227 294z" />
    <glyph glyph-name="Ugrave" unicode="&#xd9;" horiz-adv-x="778" 
d="M760 644l-37 -3q-34 -3 -41 -17.5t-7 -80.5v-292q0 -136 -70 -202t-214 -66q-129 0 -204.5 52.5t-75.5 141.5v366q0 66 -7 80.5t-41 17.5l-37 3v37q78 -3 155 -3q78 0 156 3v-37l-37 -3q-34 -3 -41 -17.5t-7 -80.5v-248q0 -78 8 -118.5t28 -64.5q40 -47 140 -47
q99 0 141 43q26 26 36.5 70.5t10.5 123.5v241q0 66 -7 80.5t-41 17.5l-37 3v37q57 -3 115 -3q57 0 114 3v-37zM546 733h-60l-150 71q-27 12 -37 21.5t-10 22.5q0 16 13 26t34 10q35 0 71 -30z" />
    <glyph glyph-name="Uacute" unicode="&#xda;" horiz-adv-x="778" 
d="M760 644l-37 -3q-34 -3 -41 -17.5t-7 -80.5v-292q0 -136 -70 -202t-214 -66q-129 0 -204.5 52.5t-75.5 141.5v366q0 66 -7 80.5t-41 17.5l-37 3v37q78 -3 155 -3q78 0 156 3v-37l-37 -3q-34 -3 -41 -17.5t-7 -80.5v-248q0 -78 8 -118.5t28 -64.5q40 -47 140 -47
q99 0 141 43q26 26 36.5 70.5t10.5 123.5v241q0 66 -7 80.5t-41 17.5l-37 3v37q57 -3 115 -3q57 0 114 3v-37zM579 848q0 -13 -10 -22.5t-37 -21.5l-150 -71h-60l139 121q36 30 71 30q21 0 34 -10t13 -26z" />
    <glyph glyph-name="Ucircumflex" unicode="&#xdb;" horiz-adv-x="778" 
d="M760 644l-37 -3q-34 -3 -41 -17.5t-7 -80.5v-292q0 -136 -70 -202t-214 -66q-129 0 -204.5 52.5t-75.5 141.5v366q0 66 -7 80.5t-41 17.5l-37 3v37q78 -3 155 -3q78 0 156 3v-37l-37 -3q-34 -3 -41 -17.5t-7 -80.5v-248q0 -78 8 -118.5t28 -64.5q40 -47 140 -47
q99 0 141 43q26 26 36.5 70.5t10.5 123.5v241q0 66 -7 80.5t-41 17.5l-37 3v37q57 -3 115 -3q57 0 114 3v-37zM616 738h-62l-121 81l-122 -81h-59l131 143h101z" />
    <glyph glyph-name="Udieresis" unicode="&#xdc;" horiz-adv-x="778" 
d="M760 644l-37 -3q-34 -3 -41 -17.5t-7 -80.5v-292q0 -136 -70 -202t-214 -66q-129 0 -204.5 52.5t-75.5 141.5v366q0 66 -7 80.5t-41 17.5l-37 3v37q78 -3 155 -3q78 0 156 3v-37l-37 -3q-34 -3 -41 -17.5t-7 -80.5v-248q0 -78 8 -118.5t28 -64.5q40 -47 140 -47
q99 0 141 43q26 26 36.5 70.5t10.5 123.5v241q0 66 -7 80.5t-41 17.5l-37 3v37q57 -3 115 -3q57 0 114 3v-37zM609 809q0 -28 -19.5 -47.5t-47.5 -19.5t-47.5 20t-19.5 48q0 27 20 46.5t48 19.5q27 0 46.5 -20t19.5 -47zM394 809q0 -28 -19.5 -47.5t-47.5 -19.5t-47.5 19.5
t-19.5 47.5t20 47.5t48 19.5q27 0 46.5 -20t19.5 -47z" />
    <glyph glyph-name="Yacute" unicode="&#xdd;" horiz-adv-x="667" 
d="M660 659l-176 -261q-26 -39 -53 -100v-163q0 -67 6.5 -79.5t41.5 -15.5l37 -3v-40q-78 3 -156 3q-77 0 -155 -3v40l37 3q35 3 41.5 15.5t6.5 79.5v139q-23 51 -44 85l-101 163q-39 63 -64.5 81.5t-65.5 18.5v37l159 36q35 -20 59.5 -49.5t54.5 -86.5l107 -203l188 322h77
v-19zM506 848q0 -13 -10 -22.5t-37 -21.5l-150 -71h-60l139 121q36 30 71 30q21 0 34 -10t13 -26z" />
    <glyph glyph-name="Thorn" unicode="&#xde;" horiz-adv-x="611" 
d="M574 396q0 -88 -59 -150t-143 -62q-18 2 -31 3.5t-17.5 2t-7.5 1t-5 0.5v25v20q11 -7 43 -7q76 0 76 123q0 82 -28 118q-21 26 -67 26q-47 0 -70 -9v-352q0 -68 6.5 -80.5t41.5 -14.5l47 -3v-40q-82 3 -165 3q-78 0 -156 -3v40l37 3q35 3 41.5 15.5t6.5 79.5v408
q1 66 -6.5 80.5t-41.5 17.5l-37 3v37q78 -3 155 -3q78 0 156 3v-37l-37 -3q-32 -2 -40 -14t-8 -55v-23q36 -3 72 -3q120 0 169 -25q68 -34 68 -125z" />
    <glyph glyph-name="germandbls" unicode="&#xdf;" horiz-adv-x="611" 
d="M565 167q0 -58 -52 -107l-45 -42q-16 -15 -28 -20q-41 -15 -78 -15q-32 0 -73 21v-7q-60 3 -119 3q-70 0 -140 -3v37l39 2q23 2 29.5 13t6.5 51v268h-71v23l69 45v73q0 52 71 116q56 51 101.5 73t95.5 22q68 0 109 -39t41 -104q0 -44 -24 -146l-6 -26l-13 -9
q-25 19 -54 19q-23 0 -36 -10.5t-13 -28.5q0 -33 52 -60q3 -2 5 -3l79 -46q29 -17 41.5 -40t12.5 -60zM465 100q0 25 -16.5 43t-66.5 48q-57 35 -75.5 58.5t-18.5 60.5q0 74 92 138q26 18 61 18q7 46 7 66q0 53 -31.5 87t-80.5 34q-64 0 -92 -47q-17 -29 -17 -113v-394
q0 -35 6.5 -47.5t25.5 -14.5l29 -3l9 78l33 6l4 -54q36 -24 64 -24t47.5 17t19.5 43z" />
    <glyph glyph-name="agrave" unicode="&#xe0;" horiz-adv-x="500" 
d="M478 -3q-43 3 -88 3q-46 0 -91 -3l-5 8l5 62l-93 -72q-15 -12 -49 -12q-57 0 -87 31.5t-30 92.5q0 64 38 97t133 53l88 18q-2 61 -27 89.5t-75 28.5q-20 0 -38 -4.5t-20 -9.5l-22 -50l-30 7v69l53 32q56 34 120 34q76 0 118 -37.5t42 -103.5v-232q0 -35 5.5 -47.5
t22.5 -13.5l30 -3v-37zM299 115v118l-45 -12q-53 -14 -72.5 -32.5t-19.5 -55.5q0 -29 13.5 -46t37.5 -17q22 0 46.5 12.5t39.5 32.5zM349 506h-56q-119 73 -135 84l-4 2q-24 15 -33.5 27t-9.5 28q0 20 12 32t32 12q32 0 65 -37z" />
    <glyph glyph-name="aacute" unicode="&#xe1;" horiz-adv-x="500" 
d="M478 -3q-43 3 -88 3q-46 0 -91 -3l-5 8l5 62l-93 -72q-15 -12 -49 -12q-57 0 -87 31.5t-30 92.5q0 64 38 97t133 53l88 18q-2 61 -27 89.5t-75 28.5q-20 0 -38 -4.5t-20 -9.5l-22 -50l-30 7v69l53 32q56 34 120 34q76 0 118 -37.5t42 -103.5v-232q0 -35 5.5 -47.5
t22.5 -13.5l30 -3v-37zM299 115v118l-45 -12q-53 -14 -72.5 -32.5t-19.5 -55.5q0 -29 13.5 -46t37.5 -17q22 0 46.5 12.5t39.5 32.5zM409 647q0 -16 -9.5 -28t-33.5 -27q-2 -1 -3 -2t-2.5 -1.5t-9.5 -5.5t-20.5 -13t-39.5 -25t-64 -39h-56l129 148q33 37 65 37q20 0 32 -12
t12 -32z" />
    <glyph glyph-name="acircumflex" unicode="&#xe2;" horiz-adv-x="500" 
d="M478 -3q-43 3 -88 3q-46 0 -91 -3l-5 8l5 62l-93 -72q-15 -12 -49 -12q-57 0 -87 31.5t-30 92.5q0 64 38 97t133 53l88 18q-2 61 -27 89.5t-75 28.5q-20 0 -38 -4.5t-20 -9.5l-22 -50l-30 7v69l53 32q56 34 120 34q76 0 118 -37.5t42 -103.5v-232q0 -35 5.5 -47.5
t22.5 -13.5l30 -3v-37zM299 115v118l-45 -12q-53 -14 -72.5 -32.5t-19.5 -55.5q0 -29 13.5 -46t37.5 -17q22 0 46.5 12.5t39.5 32.5zM428 512h-57l-112 98l-113 -98h-55l121 175h93z" />
    <glyph glyph-name="atilde" unicode="&#xe3;" horiz-adv-x="500" 
d="M478 -3q-43 3 -88 3q-46 0 -91 -3l-5 8l5 62l-93 -72q-15 -12 -49 -12q-57 0 -87 31.5t-30 92.5q0 64 38 97t133 53l88 18q-2 61 -27 89.5t-75 28.5q-20 0 -38 -4.5t-20 -9.5l-22 -50l-30 7v69l53 32q56 34 120 34q76 0 118 -37.5t42 -103.5v-232q0 -35 5.5 -47.5
t22.5 -13.5l30 -3v-37zM299 115v118l-45 -12q-53 -14 -72.5 -32.5t-19.5 -55.5q0 -29 13.5 -46t37.5 -17q22 0 46.5 12.5t39.5 32.5zM442 662q-18 -65 -46.5 -95.5t-71.5 -30.5q-31 0 -84 25q-47 23 -77 23q-31 0 -46 -47h-40q6 55 38.5 90t77.5 35q29 0 80 -24t75 -24
q18 0 27.5 9.5t23.5 38.5h43z" />
    <glyph glyph-name="adieresis" unicode="&#xe4;" horiz-adv-x="500" 
d="M478 -3q-43 3 -88 3q-46 0 -91 -3l-5 8l5 62l-93 -72q-15 -12 -49 -12q-57 0 -87 31.5t-30 92.5q0 64 38 97t133 53l88 18q-2 61 -27 89.5t-75 28.5q-20 0 -38 -4.5t-20 -9.5l-22 -50l-30 7v69l53 32q56 34 120 34q76 0 118 -37.5t42 -103.5v-232q0 -35 5.5 -47.5
t22.5 -13.5l30 -3v-37zM299 115v118l-45 -12q-53 -14 -72.5 -32.5t-19.5 -55.5q0 -29 13.5 -46t37.5 -17q22 0 46.5 12.5t39.5 32.5zM434 599q0 -28 -19.5 -47.5t-47.5 -19.5t-47.5 20t-19.5 48q0 27 20 46.5t48 19.5q27 0 46.5 -20t19.5 -47zM219 599q0 -28 -19.5 -47.5
t-47.5 -19.5t-47.5 19.5t-19.5 47.5t20 47.5t48 19.5q27 0 46.5 -20t19.5 -47z" />
    <glyph glyph-name="aring" unicode="&#xe5;" horiz-adv-x="500" 
d="M478 -3q-43 3 -88 3q-46 0 -91 -3l-5 8l5 62l-93 -72q-15 -12 -49 -12q-57 0 -87 31.5t-30 92.5q0 64 38 97t133 53l88 18q-2 61 -27 89.5t-75 28.5q-20 0 -38 -4.5t-20 -9.5l-22 -50l-30 7v69l53 32q56 34 120 34q76 0 118 -37.5t42 -103.5v-232q0 -35 5.5 -47.5
t22.5 -13.5l30 -3v-37zM299 115v118l-45 -12q-53 -14 -72.5 -32.5t-19.5 -55.5q0 -29 13.5 -46t37.5 -17q22 0 46.5 12.5t39.5 32.5zM360 599q0 -41 -29.5 -70.5t-70.5 -29.5t-70.5 29.5t-29.5 71.5q0 41 29.5 70t72.5 29q40 0 69 -29.5t29 -70.5zM310 599q0 20 -14.5 35
t-34.5 15q-22 0 -36.5 -14.5t-14.5 -35.5t14.5 -35.5t35.5 -14.5t35.5 14.5t14.5 35.5z" />
    <glyph glyph-name="ae" unicode="&#xe6;" horiz-adv-x="778" 
d="M731 243q-80 -20 -158 -20h-131q3 -61 24 -98q19 -32 53 -51.5t72 -19.5q55 0 118 35l12 -15l-22 -48q-48 -25 -82 -34t-78 -9q-68 0 -114.5 22.5t-80.5 72.5l-114 -82q-19 -13 -63 -13q-53 0 -87 35t-34 89q0 59 29 90q30 34 156 60l88 18q-3 58 -22 86q-28 39 -85 39
q-37 0 -72 -24l-16 -42l-32 4v67l53 32q56 34 122 34q46 0 76 -11.5t62 -40.5q63 52 142 52q83 0 133.5 -48.5t50.5 -127.5v-52zM604 276q-1 74 -20.5 106.5t-62.5 32.5t-63 -32.5t-22 -106.5l32 -1l48 -2h4zM319 115v114l-55 -13q-92 -22 -92 -88q0 -58 58 -58
q25 0 49.5 12.5t39.5 32.5z" />
    <glyph glyph-name="ccedilla" unicode="&#xe7;" horiz-adv-x="444" 
d="M414 63l-21 -46q-62 -34 -135 -34l-24 -54q24 6 46 6q35 0 55.5 -19.5t20.5 -53.5q0 -40 -36 -63.5t-97 -23.5q-41 0 -94 18l16 37q44 -9 67 -9q50 0 50 37q0 35 -38 35q-9 0 -36 -4l-10 8l40 89q-89 12 -135 74t-46 169q0 65 27 107.5t94 82.5l52 31q36 21 90 21
q46 0 103 -20l7 -13q-13 -61 -20 -141h-36l-7 60q-2 17 -28 30t-60 13q-98 0 -98 -139q0 -96 42.5 -151.5t116.5 -55.5q39 0 85 19z" />
    <glyph glyph-name="egrave" unicode="&#xe8;" horiz-adv-x="500" 
d="M461 243q-81 -20 -158 -20h-131q3 -63 25 -100q19 -31 52.5 -50t71.5 -19q55 0 118 35l12 -15l-22 -48q-49 -25 -82 -34t-76 -9q-112 0 -170.5 62t-58.5 181q0 138 95 194l47 28q39 23 87 23q87 0 138.5 -48t51.5 -128v-52zM334 276q0 74 -20 106.5t-63 32.5
q-44 0 -64.5 -33t-20.5 -106l32 -1q15 -1 25 -1t12.5 -0.5t4 -0.5h3h7.5zM360 506h-56q-119 73 -135 84l-4 2q-24 15 -33.5 27t-9.5 28q0 20 12 32t32 12q32 0 65 -37z" />
    <glyph glyph-name="eacute" unicode="&#xe9;" horiz-adv-x="500" 
d="M461 243q-81 -20 -158 -20h-131q3 -63 25 -100q19 -31 52.5 -50t71.5 -19q55 0 118 35l12 -15l-22 -48q-49 -25 -82 -34t-76 -9q-112 0 -170.5 62t-58.5 181q0 138 95 194l47 28q39 23 87 23q87 0 138.5 -48t51.5 -128v-52zM334 276q0 74 -20 106.5t-63 32.5
q-44 0 -64.5 -33t-20.5 -106l32 -1q15 -1 25 -1t12.5 -0.5t4 -0.5h3h7.5zM420 647q0 -16 -9.5 -28t-33.5 -27q-2 -1 -3 -2t-2.5 -1.5t-9.5 -5.5t-20.5 -13t-39.5 -25t-64 -39h-56l129 148q33 37 65 37q20 0 32 -12t12 -32z" />
    <glyph glyph-name="ecircumflex" unicode="&#xea;" horiz-adv-x="500" 
d="M461 243q-81 -20 -158 -20h-131q3 -63 25 -100q19 -31 52.5 -50t71.5 -19q55 0 118 35l12 -15l-22 -48q-49 -25 -82 -34t-76 -9q-112 0 -170.5 62t-58.5 181q0 138 95 194l47 28q39 23 87 23q87 0 138.5 -48t51.5 -128v-52zM334 276q0 74 -20 106.5t-63 32.5
q-44 0 -64.5 -33t-20.5 -106l32 -1q15 -1 25 -1t12.5 -0.5t4 -0.5h3h7.5zM439 512h-57l-112 98l-113 -98h-55l121 175h93z" />
    <glyph glyph-name="edieresis" unicode="&#xeb;" horiz-adv-x="500" 
d="M461 243q-81 -20 -158 -20h-131q3 -63 25 -100q19 -31 52.5 -50t71.5 -19q55 0 118 35l12 -15l-22 -48q-49 -25 -82 -34t-76 -9q-112 0 -170.5 62t-58.5 181q0 138 95 194l47 28q39 23 87 23q87 0 138.5 -48t51.5 -128v-52zM334 276q0 74 -20 106.5t-63 32.5
q-44 0 -64.5 -33t-20.5 -106l32 -1q15 -1 25 -1t12.5 -0.5t4 -0.5h3h7.5zM445 599q0 -28 -19.5 -47.5t-47.5 -19.5t-47.5 20t-19.5 48q0 27 20 46.5t48 19.5q27 0 46.5 -20t19.5 -47zM230 599q0 -28 -19.5 -47.5t-47.5 -19.5t-47.5 19.5t-19.5 47.5t20 47.5t48 19.5
q27 0 46.5 -20t19.5 -47z" />
    <glyph glyph-name="igrave" unicode="&#xec;" 
d="M298 -3q-68 3 -135 3q-65 0 -129 -3v37l35 2q23 2 29.5 13t6.5 51v219q0 44 -4.5 56.5t-21.5 13.5l-45 3v36l15 2q56 8 98 19l70 22l10 -6v-365q0 -40 6.5 -51t29.5 -13l35 -2v-37zM255 506h-56q-119 73 -135 84l-4 2q-24 15 -33.5 27t-9.5 28q0 20 12 32t32 12
q32 0 65 -37z" />
    <glyph glyph-name="iacute" unicode="&#xed;" 
d="M298 -3q-68 3 -135 3q-65 0 -129 -3v37l35 2q23 2 29.5 13t6.5 51v219q0 44 -4.5 56.5t-21.5 13.5l-45 3v36l15 2q56 8 98 19l70 22l10 -6v-365q0 -40 6.5 -51t29.5 -13l35 -2v-37zM315 647q0 -16 -9.5 -28t-33.5 -27q-2 -1 -3 -2t-2.5 -1.5t-9.5 -5.5t-20.5 -13
t-39.5 -25t-64 -39h-56l129 148q33 37 65 37q20 0 32 -12t12 -32z" />
    <glyph glyph-name="icircumflex" unicode="&#xee;" 
d="M298 -3q-68 3 -135 3q-65 0 -129 -3v37l35 2q23 2 29.5 13t6.5 51v219q0 44 -4.5 56.5t-21.5 13.5l-45 3v36l15 2q56 8 98 19l70 22l10 -6v-365q0 -40 6.5 -51t29.5 -13l35 -2v-37zM334 512h-57l-112 98l-113 -98h-55l121 175h93z" />
    <glyph glyph-name="idieresis" unicode="&#xef;" 
d="M298 -3q-68 3 -135 3q-65 0 -129 -3v37l35 2q23 2 29.5 13t6.5 51v219q0 44 -4.5 56.5t-21.5 13.5l-45 3v36l15 2q56 8 98 19l70 22l10 -6v-365q0 -40 6.5 -51t29.5 -13l35 -2v-37zM340 599q0 -28 -19.5 -47.5t-47.5 -19.5t-47.5 20t-19.5 48q0 27 20 46.5t48 19.5
q27 0 46.5 -20t19.5 -47zM125 599q0 -28 -19.5 -47.5t-47.5 -19.5t-47.5 19.5t-19.5 47.5t20 47.5t48 19.5q27 0 46.5 -20t19.5 -47z" />
    <glyph glyph-name="eth" unicode="&#xf0;" horiz-adv-x="556" 
d="M517 269q0 -133 -68 -209.5t-186 -76.5q-106 0 -164.5 63.5t-58.5 177.5q0 116 62.5 181.5t172.5 65.5q28 0 55 -9q-13 49 -61 106l-133 -62l-18 38l121 56q-45 44 -95 68l40 52q89 -43 138 -81l134 62l18 -38l-116 -54q56 -56 84.5 -97.5t48.5 -96.5q26 -73 26 -146z
M381 225q0 198 -107 198q-52 0 -75 -41.5t-23 -134.5q0 -216 106 -216q51 0 75 47t24 147z" />
    <glyph glyph-name="ntilde" unicode="&#xf1;" horiz-adv-x="611" 
d="M587 -3q-51 3 -101 3q-45 0 -90 -3v273q0 60 -22.5 87.5t-71.5 27.5q-33 0 -59 -21t-26 -47v-217q0 -40 6.5 -51t29.5 -13l35 -2v-37q-68 3 -135 3q-65 0 -129 -3v37l35 2q23 2 29.5 13t6.5 51v219q0 44 -4.5 56.5t-21.5 13.5l-45 3v36q42 2 76 10t111 33l6 -6v-75l80 62
q23 19 70 19q76 0 116 -42q35 -38 35 -143v-186q0 -40 6.5 -51t29.5 -13l33 -2v-37zM489 662q-18 -65 -46.5 -95.5t-71.5 -30.5q-31 0 -84 25q-47 23 -77 23q-31 0 -46 -47h-40q6 55 38.5 90t77.5 35q29 0 80 -24t75 -24q18 0 27.5 9.5t23.5 38.5h43z" />
    <glyph glyph-name="ograve" unicode="&#xf2;" horiz-adv-x="556" 
d="M517 236q0 -121 -65 -187t-185 -66q-109 0 -168 63t-59 178q0 119 64 183t183 64q111 0 170.5 -60.5t59.5 -174.5zM381 205q0 218 -106 218q-52 0 -75.5 -42t-23.5 -133q0 -217 109 -217q51 0 73.5 41t22.5 133zM366 506h-56q-119 73 -135 84l-4 2q-24 15 -33.5 27
t-9.5 28q0 20 12 32t32 12q32 0 65 -37z" />
    <glyph glyph-name="oacute" unicode="&#xf3;" horiz-adv-x="556" 
d="M517 236q0 -121 -65 -187t-185 -66q-109 0 -168 63t-59 178q0 119 64 183t183 64q111 0 170.5 -60.5t59.5 -174.5zM381 205q0 218 -106 218q-52 0 -75.5 -42t-23.5 -133q0 -217 109 -217q51 0 73.5 41t22.5 133zM426 647q0 -16 -9.5 -28t-33.5 -27q-2 -1 -3 -2t-2.5 -1.5
t-9.5 -5.5t-20.5 -13t-39.5 -25t-64 -39h-56l129 148q33 37 65 37q20 0 32 -12t12 -32z" />
    <glyph glyph-name="ocircumflex" unicode="&#xf4;" horiz-adv-x="556" 
d="M517 236q0 -121 -65 -187t-185 -66q-109 0 -168 63t-59 178q0 119 64 183t183 64q111 0 170.5 -60.5t59.5 -174.5zM381 205q0 218 -106 218q-52 0 -75.5 -42t-23.5 -133q0 -217 109 -217q51 0 73.5 41t22.5 133zM445 512h-57l-112 98l-113 -98h-55l121 175h93z" />
    <glyph glyph-name="otilde" unicode="&#xf5;" horiz-adv-x="556" 
d="M517 236q0 -121 -65 -187t-185 -66q-109 0 -168 63t-59 178q0 119 64 183t183 64q111 0 170.5 -60.5t59.5 -174.5zM381 205q0 218 -106 218q-52 0 -75.5 -42t-23.5 -133q0 -217 109 -217q51 0 73.5 41t22.5 133zM459 662q-18 -65 -46.5 -95.5t-71.5 -30.5q-31 0 -84 25
q-47 23 -77 23q-31 0 -46 -47h-40q6 55 38.5 90t77.5 35q29 0 80 -24t75 -24q18 0 27.5 9.5t23.5 38.5h43z" />
    <glyph glyph-name="odieresis" unicode="&#xf6;" horiz-adv-x="556" 
d="M517 236q0 -121 -65 -187t-185 -66q-109 0 -168 63t-59 178q0 119 64 183t183 64q111 0 170.5 -60.5t59.5 -174.5zM381 205q0 218 -106 218q-52 0 -75.5 -42t-23.5 -133q0 -217 109 -217q51 0 73.5 41t22.5 133zM451 599q0 -28 -19.5 -47.5t-47.5 -19.5t-47.5 20
t-19.5 48q0 27 20 46.5t48 19.5q27 0 46.5 -20t19.5 -47zM236 599q0 -28 -19.5 -47.5t-47.5 -19.5t-47.5 19.5t-19.5 47.5t20 47.5t48 19.5q27 0 46.5 -20t19.5 -47z" />
    <glyph glyph-name="divide" unicode="&#xf7;" horiz-adv-x="606" 
d="M560 207h-514v86h514v-86zM381 420q0 -32 -23 -55t-55 -23t-55 23t-23 55t23 55t55 23t55 -23t23 -55zM381 80q0 -32 -23 -55t-55 -23t-55 23t-23 55t23 55t55 23t55 -23t23 -55z" />
    <glyph glyph-name="oslash" unicode="&#xf8;" horiz-adv-x="556" 
d="M534 446l-60 -56q24 -35 33.5 -67t9.5 -80q0 -126 -64.5 -193t-185.5 -67q-48 0 -84 13t-76 44l-61 -58l-23 23l63 59q-46 59 -46 160q0 119 63.5 183t182.5 64q105 0 168 -57l56 54zM368 333q-15 49 -36 69.5t-56 20.5q-100 0 -100 -165q0 -44 8 -100zM381 207
q0 52 -7 87l-184 -175q18 -47 40 -67.5t56 -20.5q50 0 72.5 41.5t22.5 134.5z" />
    <glyph glyph-name="ugrave" unicode="&#xf9;" horiz-adv-x="611" 
d="M583 -3q-51 3 -101 3q-47 0 -95 -3l5 83l-76 -74q-23 -23 -69 -23q-73 0 -112 40.5t-39 116.5v179q0 44 -4.5 56.5t-21.5 13.5l-45 3v36q75 10 113 21l70 22l10 -6v-261q0 -72 17.5 -101.5t60.5 -29.5q40 0 68 26.5t28 63.5v156q0 44 -4.5 56.5t-21.5 13.5l-45 3v36
q76 10 113 21l70 22l10 -6v-365q0 -41 6 -52t30 -12l33 -2v-37zM394 506h-56q-119 73 -135 84l-4 2q-24 15 -33.5 27t-9.5 28q0 20 12 32t32 12q32 0 65 -37z" />
    <glyph glyph-name="uacute" unicode="&#xfa;" horiz-adv-x="611" 
d="M583 -3q-51 3 -101 3q-47 0 -95 -3l5 83l-76 -74q-23 -23 -69 -23q-73 0 -112 40.5t-39 116.5v179q0 44 -4.5 56.5t-21.5 13.5l-45 3v36q75 10 113 21l70 22l10 -6v-261q0 -72 17.5 -101.5t60.5 -29.5q40 0 68 26.5t28 63.5v156q0 44 -4.5 56.5t-21.5 13.5l-45 3v36
q76 10 113 21l70 22l10 -6v-365q0 -41 6 -52t30 -12l33 -2v-37zM454 647q0 -16 -9.5 -28t-33.5 -27l-4 -2q-16 -11 -135 -84h-56l129 148q33 37 65 37q20 0 32 -12t12 -32z" />
    <glyph glyph-name="ucircumflex" unicode="&#xfb;" horiz-adv-x="611" 
d="M583 -3q-51 3 -101 3q-47 0 -95 -3l5 83l-76 -74q-23 -23 -69 -23q-73 0 -112 40.5t-39 116.5v179q0 44 -4.5 56.5t-21.5 13.5l-45 3v36q75 10 113 21l70 22l10 -6v-261q0 -72 17.5 -101.5t60.5 -29.5q40 0 68 26.5t28 63.5v156q0 44 -4.5 56.5t-21.5 13.5l-45 3v36
q76 10 113 21l70 22l10 -6v-365q0 -41 6 -52t30 -12l33 -2v-37zM473 512h-57l-112 98l-113 -98h-55l121 175h93z" />
    <glyph glyph-name="udieresis" unicode="&#xfc;" horiz-adv-x="611" 
d="M583 -3q-51 3 -101 3q-47 0 -95 -3l5 83l-76 -74q-23 -23 -69 -23q-73 0 -112 40.5t-39 116.5v179q0 44 -4.5 56.5t-21.5 13.5l-45 3v36q75 10 113 21l70 22l10 -6v-261q0 -72 17.5 -101.5t60.5 -29.5q40 0 68 26.5t28 63.5v156q0 44 -4.5 56.5t-21.5 13.5l-45 3v36
q76 10 113 21l70 22l10 -6v-365q0 -41 6 -52t30 -12l33 -2v-37zM479 599q0 -28 -19.5 -47.5t-47.5 -19.5t-47.5 20t-19.5 48q0 27 20 46.5t48 19.5q27 0 46.5 -20t19.5 -47zM264 599q0 -28 -19.5 -47.5t-47.5 -19.5t-47.5 19.5t-19.5 47.5t20 47.5t48 19.5q27 0 46.5 -20
t19.5 -47z" />
    <glyph glyph-name="yacute" unicode="&#xfd;" horiz-adv-x="556" 
d="M546 421l-26 -5q-22 -5 -41 -47l-199 -463q-74 -172 -176 -172q-35 0 -73 17l18 95l11 4q33 -37 70 -37q26 0 50.5 24t41.5 67l23 56l-158 404q-21 54 -42 55l-35 2v38q66 -3 133 -3q66 0 132 3v-38l-35 -2q-26 -2 -26 -23q0 -8 17 -53l84 -218l101 252q4 10 4 22
q0 18 -27 20l-33 2v38q46 -3 93 -3t93 3v-38zM432 647q0 -16 -9.5 -28t-33.5 -27q-2 -1 -3 -2t-2.5 -1.5t-9.5 -5.5t-20.5 -13t-39.5 -25t-64 -39h-56l129 148q33 37 65 37q20 0 32 -12t12 -32z" />
    <glyph glyph-name="thorn" unicode="&#xfe;" horiz-adv-x="611" 
d="M563 286q0 -141 -102 -218q-9 -7 -17 -13q-91 -72 -137 -72q-29 0 -89 17v-155q0 -41 6.5 -52t29.5 -12l45 -2v-37q-72 3 -145 3q-64 0 -129 -3v37l35 2q23 2 29.5 13t6.5 51v723q0 44 -4.5 56.5t-21.5 13.5l-53 3v36q80 8 121 21l72 22l8 -6v-331l61 49q49 39 103 39
q78 0 129.5 -52.5t51.5 -132.5zM437 221q0 75 -32.5 117.5t-90.5 42.5q-63 0 -96 -50v-225q39 -55 101 -55q55 0 86.5 46t31.5 124z" />
    <glyph glyph-name="ydieresis" unicode="&#xff;" horiz-adv-x="556" 
d="M546 421l-26 -5q-22 -5 -41 -47l-199 -463q-74 -172 -176 -172q-35 0 -73 17l18 95l11 4q33 -37 70 -37q26 0 50.5 24t41.5 67l23 56l-158 404q-21 54 -42 55l-35 2v38q66 -3 133 -3q66 0 132 3v-38l-35 -2q-26 -2 -26 -23q0 -8 17 -53l84 -218l101 252q4 10 4 22
q0 18 -27 20l-33 2v38q46 -3 93 -3t93 3v-38zM457 599q0 -28 -19.5 -47.5t-47.5 -19.5t-47.5 20t-19.5 48q0 27 20 46.5t48 19.5q27 0 46.5 -20t19.5 -47zM242 599q0 -28 -19.5 -47.5t-47.5 -19.5t-47.5 19.5t-19.5 47.5t20 47.5t48 19.5q27 0 46.5 -20t19.5 -47z" />
    <glyph glyph-name="Amacron" unicode="&#x100;" horiz-adv-x="778" 
d="M757 -3q-79 3 -158 3q-75 0 -152 -3v37l53 3q18 1 19.5 22t-5.5 33l-45 114h-251l-42 -112q-8 -16 -2.5 -36t26.5 -21l50 -3v-37q-57 3 -113 3t-113 -3v37l30 3q33 3 56 60l181 438l57 151h71l259 -605q17 -39 55 -44l24 -3v-37zM446 262l-104 254l-100 -254h204z
M550 774h-331v71h331v-71z" />
    <glyph glyph-name="amacron" unicode="&#x101;" horiz-adv-x="500" 
d="M478 -3q-43 3 -88 3q-46 0 -91 -3l-5 8l5 62l-93 -72q-15 -12 -49 -12q-57 0 -87 31.5t-30 92.5q0 64 38 97t133 53l88 18q-2 61 -27 89.5t-75 28.5q-20 0 -38 -4.5t-20 -9.5l-22 -50l-30 7v69l53 32q56 34 120 34q76 0 118 -37.5t42 -103.5v-232q0 -35 5.5 -47.5
t22.5 -13.5l30 -3v-37zM299 115v118l-45 -12q-53 -14 -72.5 -32.5t-19.5 -55.5q0 -29 13.5 -46t37.5 -17q22 0 46.5 12.5t39.5 32.5zM425 564h-331v71h331v-71z" />
    <glyph glyph-name="Abreve" unicode="&#x102;" horiz-adv-x="778" 
d="M757 -3q-79 3 -158 3q-75 0 -152 -3v37l53 3q18 1 19.5 22t-5.5 33l-45 114h-251l-42 -112q-8 -16 -2.5 -36t26.5 -21l50 -3v-37q-57 3 -113 3t-113 -3v37l30 3q33 3 56 60l181 438l57 151h71l259 -605q17 -39 55 -44l24 -3v-37zM446 262l-104 254l-100 -254h204z
M548 876q-16 -133 -164 -133q-75 0 -117.5 33.5t-46.5 99.5h48q16 -70 112 -70q49 0 84.5 21.5t35.5 46.5v2h48z" />
    <glyph glyph-name="abreve" unicode="&#x103;" horiz-adv-x="500" 
d="M478 -3q-43 3 -88 3q-46 0 -91 -3l-5 8l5 62l-93 -72q-15 -12 -49 -12q-57 0 -87 31.5t-30 92.5q0 64 38 97t133 53l88 18q-2 61 -27 89.5t-75 28.5q-20 0 -38 -4.5t-20 -9.5l-22 -50l-30 7v69l53 32q56 34 120 34q76 0 118 -37.5t42 -103.5v-232q0 -35 5.5 -47.5
t22.5 -13.5l30 -3v-37zM299 115v118l-45 -12q-53 -14 -72.5 -32.5t-19.5 -55.5q0 -29 13.5 -46t37.5 -17q22 0 46.5 12.5t39.5 32.5zM411 681q-6 -67 -26 -99q-40 -64 -125 -64q-94 0 -133 74q-16 33 -19 89h44q16 -87 104 -87q56 0 87 36q24 28 24 49v2h44z" />
    <glyph glyph-name="Aogonek" unicode="&#x104;" horiz-adv-x="778" 
d="M757 -197l-53 -37q-23 -16 -84 -16q-41 0 -63.5 29.5t-22.5 71.5q0 90 94 149h-29l-152 -3v37l53 3q18 1 19.5 22t-5.5 33l-45 114h-251l-42 -112q-8 -16 -2.5 -36t26.5 -21l50 -3v-37q-57 3 -113 3t-113 -3v37l30 3q33 3 56 60l181 438l57 151h71l259 -605
q17 -39 55 -44l24 -3v-37l-47 2q-39 0 -71 -47q-27 -39 -27 -76q0 -60 42 -60q52 0 61 23l12 30l30 -7v-59zM446 262l-104 254l-100 -254h204z" />
    <glyph glyph-name="aogonek" unicode="&#x105;" horiz-adv-x="500" 
d="M478 -197l-53 -37q-23 -16 -84 -16q-41 0 -63.5 29.5t-22.5 71.5q0 92 93 148l-49 -2l-5 8l5 62l-93 -72q-15 -12 -49 -12q-57 0 -87 31.5t-30 92.5q0 64 38 97t133 53l88 18q-2 61 -27 89.5t-75 28.5q-20 0 -38 -4.5t-20 -9.5l-22 -50l-30 7v69l53 32q56 34 120 34
q76 0 118 -37.5t42 -103.5v-232q0 -35 5.5 -47.5t22.5 -13.5l30 -3v-37l-35 2q-50 1 -83 -47q-27 -39 -27 -76q0 -60 42 -60q52 0 61 23l12 30l30 -7v-59zM299 115v118l-45 -12q-53 -14 -72.5 -32.5t-19.5 -55.5q0 -29 13.5 -46t37.5 -17q22 0 46.5 12.5t39.5 32.5z" />
    <glyph glyph-name="Cacute" unicode="&#x106;" horiz-adv-x="722" 
d="M695 637q-11 -45 -23 -153h-39l-5 86q-41 38 -81 53.5t-97 15.5q-119 0 -187.5 -74.5t-68.5 -203.5q0 -142 79.5 -227.5t211.5 -85.5q97 0 195 51l12 -12l-22 -49q-55 -31 -105.5 -43t-119.5 -12q-185 0 -293 98t-108 266q0 161 110.5 254.5t300.5 93.5q65 0 115.5 -10
t118.5 -37zM562 848q0 -13 -10 -22.5t-37 -21.5l-150 -71h-60l139 121q36 30 71 30q21 0 34 -10t13 -26z" />
    <glyph glyph-name="cacute" unicode="&#x107;" horiz-adv-x="444" 
d="M414 63l-21 -46q-64 -34 -134 -34q-108 0 -165 63.5t-57 182.5q0 65 27 107.5t94 82.5l52 31q36 21 90 21q46 0 103 -20l7 -13q-13 -61 -20 -141h-36l-7 60q-2 17 -28 30t-60 13q-98 0 -98 -139q0 -96 42.5 -151.5t116.5 -55.5q39 0 85 19zM408 647q0 -16 -9.5 -28
t-33.5 -27q-2 -1 -3 -2t-2.5 -1.5t-9.5 -5.5t-20.5 -13t-39.5 -25t-64 -39h-56l129 148q33 37 65 37q20 0 32 -12t12 -32z" />
    <glyph glyph-name="Ccircumflex" unicode="&#x108;" horiz-adv-x="722" 
d="M695 637q-11 -45 -23 -153h-39l-5 86q-41 38 -81 53.5t-97 15.5q-119 0 -187.5 -74.5t-68.5 -203.5q0 -142 79.5 -227.5t211.5 -85.5q97 0 195 51l12 -12l-22 -49q-55 -31 -105.5 -43t-119.5 -12q-185 0 -293 98t-108 266q0 161 110.5 254.5t300.5 93.5q65 0 115.5 -10
t118.5 -37zM599 738h-62l-121 81l-122 -81h-59l131 143h101z" />
    <glyph glyph-name="ccircumflex" unicode="&#x109;" horiz-adv-x="444" 
d="M414 63l-21 -46q-64 -34 -134 -34q-108 0 -165 63.5t-57 182.5q0 65 27 107.5t94 82.5l52 31q36 21 90 21q46 0 103 -20l7 -13q-13 -61 -20 -141h-36l-7 60q-2 17 -28 30t-60 13q-98 0 -98 -139q0 -96 42.5 -151.5t116.5 -55.5q39 0 85 19zM427 512h-57l-112 98l-113 -98
h-55l121 175h93z" />
    <glyph glyph-name="Cdotaccent" unicode="&#x10a;" horiz-adv-x="722" 
d="M695 637q-11 -45 -23 -153h-39l-5 86q-41 38 -81 53.5t-97 15.5q-119 0 -187.5 -74.5t-68.5 -203.5q0 -142 79.5 -227.5t211.5 -85.5q97 0 195 51l12 -12l-22 -49q-55 -31 -105.5 -43t-119.5 -12q-185 0 -293 98t-108 266q0 161 110.5 254.5t300.5 93.5q65 0 115.5 -10
t118.5 -37zM485 809q0 -28 -19.5 -47.5t-47.5 -19.5t-47.5 20t-19.5 48q0 27 20 46.5t48 19.5q27 0 46.5 -20t19.5 -47z" />
    <glyph glyph-name="cdotaccent" unicode="&#x10b;" horiz-adv-x="444" 
d="M414 63l-21 -46q-64 -34 -134 -34q-108 0 -165 63.5t-57 182.5q0 65 27 107.5t94 82.5l52 31q36 21 90 21q46 0 103 -20l7 -13q-13 -61 -20 -141h-36l-7 60q-2 17 -28 30t-60 13q-98 0 -98 -139q0 -96 42.5 -151.5t116.5 -55.5q39 0 85 19zM326 599q0 -28 -19.5 -47.5
t-47.5 -19.5t-47.5 20t-19.5 48q0 27 20 46.5t48 19.5q27 0 46.5 -20t19.5 -47z" />
    <glyph glyph-name="Ccaron" unicode="&#x10c;" horiz-adv-x="722" 
d="M695 637q-11 -45 -23 -153h-39l-5 86q-41 38 -81 53.5t-97 15.5q-119 0 -187.5 -74.5t-68.5 -203.5q0 -142 79.5 -227.5t211.5 -85.5q97 0 195 51l12 -12l-22 -49q-55 -31 -105.5 -43t-119.5 -12q-185 0 -293 98t-108 266q0 161 110.5 254.5t300.5 93.5q65 0 115.5 -10
t118.5 -37zM599 881l-131 -143h-101l-132 143h62l121 -81l122 81h59z" />
    <glyph glyph-name="ccaron" unicode="&#x10d;" horiz-adv-x="444" 
d="M414 63l-21 -46q-64 -34 -134 -34q-108 0 -165 63.5t-57 182.5q0 65 27 107.5t94 82.5l52 31q36 21 90 21q46 0 103 -20l7 -13q-13 -61 -20 -141h-36l-7 60q-2 17 -28 30t-60 13q-98 0 -98 -139q0 -96 42.5 -151.5t116.5 -55.5q39 0 85 19zM427 687l-123 -175h-93
l-121 175h55l113 -98l112 98h57z" />
    <glyph glyph-name="Dcaron" unicode="&#x10e;" horiz-adv-x="833" 
d="M786 376q0 -162 -104 -263q-118 -116 -303 -116q-26 0 -78 1.5t-78 1.5q-77 0 -155 -3v23l32 18q20 11 20 57v448q0 66 -7 80.5t-41 17.5l-37 3v37q81 -3 162 -3q40 0 119.5 1.5t119.5 1.5q101 0 165 -19.5t108 -63.5q77 -75 77 -222zM636 348q0 146 -66 211
q-73 72 -246 72q-31 0 -63 -4v-570q31 -5 68 -5q162 0 234 71q73 73 73 225zM561 881l-131 -143h-101l-132 143h62l121 -81l122 81h59z" />
    <glyph glyph-name="dcaron" unicode="&#x10f;" horiz-adv-x="611" 
d="M577 -3q-51 3 -101 3q-45 0 -90 -3l-5 8l5 75l-104 -85q-15 -12 -49 -12q-88 0 -139.5 63.5t-51.5 170.5q0 126 84 181l72 47q41 26 88 26q37 0 80 -17l20 -8v122q0 44 -4.5 56.5t-21.5 13.5l-53 3v36q80 8 121 21l72 22l8 -6v-614q0 -40 6.5 -51t29.5 -13l33 -2v-37z
M386 160v184q-48 63 -112 63q-106 0 -106 -152q0 -81 31.5 -129t84.5 -48q41 0 71.5 24t30.5 58zM712 709q-20 -47 -93 -159l-53 -22l-12 13q5 10 8.5 19.5l7 19t5.5 15.5t4.5 16.5t3.5 14.5t3 16t2.5 15.5l2.5 17.5t3 18q62 8 107 27z" />
    <glyph glyph-name="Dcroat" unicode="&#x110;" horiz-adv-x="833" 
d="M786 376q0 -162 -104 -263q-118 -116 -303 -116q-26 0 -78 1.5t-78 1.5q-77 0 -155 -3v23l32 18q20 11 20 57v243h-110v42h110v163q0 66 -7 80.5t-41 17.5l-37 3v37q81 -3 162 -3q40 0 119.5 1.5t119.5 1.5q101 0 165 -19.5t108 -63.5q77 -75 77 -222zM636 348
q0 146 -66 211q-73 72 -246 72q-31 0 -63 -4v-247h151v-42h-151v-281q31 -5 68 -5q162 0 234 71q73 73 73 225z" />
    <glyph glyph-name="dcroat" unicode="&#x111;" horiz-adv-x="611" 
d="M591 538h-83v-438q0 -40 6.5 -51t29.5 -13l33 -2v-37q-21 1 -47 1l-54 2l-90 -3l-5 8l5 75l-104 -85q-15 -12 -49 -12q-88 0 -139.5 63.5t-51.5 170.5q0 125 84 181l72 47q40 26 87 26q38 0 81 -17l20 -8v92h-126v42h126q-1 37 -5.5 47t-20.5 11l-53 3v36q80 8 121 21
l72 22l8 -6v-134h83v-42zM386 160v184q-48 63 -113 63q-105 0 -105 -152q0 -81 31.5 -129t84.5 -48q41 0 71.5 24t30.5 58z" />
    <glyph glyph-name="Emacron" unicode="&#x112;" horiz-adv-x="611" 
d="M577 166l-11 -158l-5 -8q-57 -3 -140 -3q-37 0 -113 1.5t-113 1.5q-61 0 -123 -3v23l32 18q20 11 20 57v448q0 66 -7 80.5t-41 17.5l-37 3v37q95 -3 190 -3q39 0 118 1.5t118 1.5t95 -3l6 -7l-14 -142h-36l-8 75q-2 19 -98 19l-145 -3v-240q20 -2 67 -2h66q31 0 43 4.5
t14 16.5l6 57h40q-3 -54 -3 -107q0 -54 3 -108h-40l-6 50q-4 37 -57 37h-66q-25 0 -67 -3v-267l149 -3q34 0 66.5 5.5t34.5 11.5l23 94h39zM483 774h-331v71h331v-71z" />
    <glyph glyph-name="emacron" unicode="&#x113;" horiz-adv-x="500" 
d="M461 243q-81 -20 -158 -20h-131q3 -63 25 -100q19 -31 52.5 -50t71.5 -19q55 0 118 35l12 -15l-22 -48q-49 -25 -82 -34t-76 -9q-112 0 -170.5 62t-58.5 181q0 138 95 194l47 28q39 23 87 23q87 0 138.5 -48t51.5 -128v-52zM334 276q0 74 -20 106.5t-63 32.5
q-44 0 -64.5 -33t-20.5 -106l32 -1q15 -1 25 -1t12.5 -0.5t4 -0.5h3h7.5zM436 564h-331v71h331v-71z" />
    <glyph glyph-name="Ebreve" unicode="&#x114;" horiz-adv-x="611" 
d="M577 166l-11 -158l-5 -8q-57 -3 -140 -3q-37 0 -113 1.5t-113 1.5q-61 0 -123 -3v23l32 18q20 11 20 57v448q0 66 -7 80.5t-41 17.5l-37 3v37q95 -3 190 -3q39 0 118 1.5t118 1.5t95 -3l6 -7l-14 -142h-36l-8 75q-2 19 -98 19l-145 -3v-240q20 -2 67 -2h66q31 0 43 4.5
t14 16.5l6 57h40q-3 -54 -3 -107q0 -54 3 -108h-40l-6 50q-4 37 -57 37h-66q-25 0 -67 -3v-267l149 -3q34 0 66.5 5.5t34.5 11.5l23 94h39zM481 876q-16 -133 -164 -133q-75 0 -117.5 33.5t-46.5 99.5h48q16 -70 112 -70q49 0 84.5 21.5t35.5 46.5v2h48z" />
    <glyph glyph-name="ebreve" unicode="&#x115;" horiz-adv-x="500" 
d="M461 243q-81 -20 -158 -20h-131q3 -63 25 -100q19 -31 52.5 -50t71.5 -19q55 0 118 35l12 -15l-22 -48q-49 -25 -82 -34t-76 -9q-112 0 -170.5 62t-58.5 181q0 138 95 194l47 28q39 23 87 23q87 0 138.5 -48t51.5 -128v-52zM334 276q0 74 -20 106.5t-63 32.5
q-44 0 -64.5 -33t-20.5 -106l32 -1q15 -1 25 -1t12.5 -0.5t4 -0.5h3h7.5zM422 681q-6 -67 -26 -99q-40 -64 -125 -64q-94 0 -133 74q-16 33 -19 89h44q16 -87 104 -87q55 0 87 36q24 28 24 49v2h44z" />
    <glyph glyph-name="Edotaccent" unicode="&#x116;" horiz-adv-x="611" 
d="M577 166l-11 -158l-5 -8q-57 -3 -140 -3q-37 0 -113 1.5t-113 1.5q-61 0 -123 -3v23l32 18q20 11 20 57v448q0 66 -7 80.5t-41 17.5l-37 3v37q95 -3 190 -3q39 0 118 1.5t118 1.5t95 -3l6 -7l-14 -142h-36l-8 75q-2 19 -98 19l-145 -3v-240q20 -2 67 -2h66q31 0 43 4.5
t14 16.5l6 57h40q-3 -54 -3 -107q0 -54 3 -108h-40l-6 50q-4 37 -57 37h-66q-25 0 -67 -3v-267l149 -3q34 0 66.5 5.5t34.5 11.5l23 94h39zM385 809q0 -28 -19.5 -47.5t-47.5 -19.5t-47.5 20t-19.5 48q0 27 20 46.5t48 19.5q27 0 46.5 -20t19.5 -47z" />
    <glyph glyph-name="edotaccent" unicode="&#x117;" horiz-adv-x="500" 
d="M461 243q-81 -20 -158 -20h-131q3 -63 25 -100q19 -31 52.5 -50t71.5 -19q55 0 118 35l12 -15l-22 -48q-49 -25 -82 -34t-76 -9q-112 0 -170.5 62t-58.5 181q0 138 95 194l47 28q39 23 87 23q87 0 138.5 -48t51.5 -128v-52zM334 276q0 74 -20 106.5t-63 32.5
q-44 0 -64.5 -33t-20.5 -106l32 -1q15 -1 25 -1t12.5 -0.5t4 -0.5h3h7.5zM338 599q0 -28 -19.5 -47.5t-47.5 -19.5t-47.5 20t-19.5 48q0 27 20 46.5t48 19.5q27 0 46.5 -20t19.5 -47z" />
    <glyph glyph-name="Eogonek" unicode="&#x118;" horiz-adv-x="611" 
d="M577 166l-11 -158l-5 -8l-45 -2q-46 -1 -77 -46q-27 -39 -27 -76q0 -60 42 -60q52 0 61 23l12 30l30 -7v-59l-53 -37q-23 -16 -84 -16q-41 0 -63.5 29.5t-22.5 71.5q0 90 89 146h-2q-37 0 -113 1.5t-113 1.5q-61 0 -123 -3v23l32 18q20 11 20 57v448q0 66 -7 80.5
t-41 17.5l-37 3v37q95 -3 190 -3q39 0 118 1.5t118 1.5t95 -3l6 -7l-14 -142h-36l-8 75q-2 19 -98 19l-145 -3v-240q20 -2 67 -2h66q31 0 43 4.5t14 16.5l6 57h40q-3 -54 -3 -107q0 -54 3 -108h-40l-6 50q-4 37 -57 37h-66q-25 0 -67 -3v-267l149 -3q34 0 66.5 5.5
t34.5 11.5l23 94h39z" />
    <glyph glyph-name="eogonek" unicode="&#x119;" horiz-adv-x="500" 
d="M461 243q-81 -20 -158 -20h-131q3 -63 25 -100q19 -31 52.5 -50t71.5 -19q55 0 118 35l12 -15l-22 -48q-18 -9 -44 -21q-34 -13 -62 -53q-27 -39 -27 -76q0 -60 42 -60q52 0 61 23l12 30l30 -7v-59l-53 -37q-23 -16 -84 -16q-41 0 -63.5 29.5t-22.5 71.5q0 79 69 132h-16
q-112 0 -170.5 62t-58.5 181q0 138 95 194l47 28q39 23 87 23q87 0 138.5 -48t51.5 -128v-52zM334 276q0 74 -20 106.5t-63 32.5q-44 0 -64.5 -33t-20.5 -106l32 -1q15 -1 25 -1t12.5 -0.5t4 -0.5h3h7.5z" />
    <glyph glyph-name="Ecaron" unicode="&#x11a;" horiz-adv-x="611" 
d="M577 166l-11 -158l-5 -8q-57 -3 -140 -3q-37 0 -113 1.5t-113 1.5q-61 0 -123 -3v23l32 18q20 11 20 57v448q0 66 -7 80.5t-41 17.5l-37 3v37q95 -3 190 -3q39 0 118 1.5t118 1.5t95 -3l6 -7l-14 -142h-36l-8 75q-2 19 -98 19l-145 -3v-240q20 -2 67 -2h66q31 0 43 4.5
t14 16.5l6 57h40q-3 -54 -3 -107q0 -54 3 -108h-40l-6 50q-4 37 -57 37h-66q-25 0 -67 -3v-267l149 -3q34 0 66.5 5.5t34.5 11.5l23 94h39zM499 881l-131 -143h-101l-132 143h62l121 -81l122 81h59z" />
    <glyph glyph-name="ecaron" unicode="&#x11b;" horiz-adv-x="500" 
d="M461 243q-81 -20 -158 -20h-131q3 -63 25 -100q19 -31 52.5 -50t71.5 -19q55 0 118 35l12 -15l-22 -48q-49 -25 -82 -34t-76 -9q-112 0 -170.5 62t-58.5 181q0 138 95 194l47 28q39 23 87 23q87 0 138.5 -48t51.5 -128v-52zM334 276q0 74 -20 106.5t-63 32.5
q-44 0 -64.5 -33t-20.5 -106l32 -1q15 -1 25 -1t12.5 -0.5t4 -0.5h3h7.5zM439 687l-123 -175h-93l-121 175h55l113 -98l112 98h57z" />
    <glyph glyph-name="Gcircumflex" unicode="&#x11c;" horiz-adv-x="833" 
d="M776 242q-28 -6 -34.5 -12t-6.5 -24v-163q-90 -34 -155.5 -47t-141.5 -13q-178 0 -284.5 99t-106.5 264q0 162 111 255.5t303 93.5q135 0 261 -47l6 -11q-11 -45 -23 -153h-39l-5 86q-72 69 -205 69q-122 0 -190.5 -74.5t-68.5 -206.5q0 -143 74 -231t195 -88
q60 0 127 25v132q0 19 -12.5 27t-44.5 10l-53 2v41q72 -3 143 -3q75 0 150 3v-34zM592 738h-62l-121 81l-122 -81h-59l131 143h101z" />
    <glyph glyph-name="gcircumflex" unicode="&#x11d;" horiz-adv-x="556" 
d="M535 -42q0 -100 -81 -162t-212 -62q-99 0 -157.5 38.5t-58.5 103.5q0 46 26 62l81 48q-37 10 -52.5 25t-15.5 42q0 36 17 48l71 54q-45 15 -69 41q-37 40 -37 96q0 79 60.5 129t156.5 50q93 0 152 -43q16 -1 36 -1q31 0 82 5l-5 -64l-77 4q5 -24 5 -47q0 -72 -44 -116
q-64 -64 -174 -64q-4 0 -40 2q-29 -17 -29 -39q0 -32 47 -30l146 4h24q148 0 148 -124zM334 299q0 122 -82 122t-82 -110q0 -56 22.5 -88t61.5 -32q80 0 80 108zM424 -95q0 48 -30.5 64t-121.5 16q-79 0 -101 -11q-23 -11 -37 -34.5t-14 -51.5q0 -47 40.5 -75.5t107.5 -28.5
t111.5 34.5t44.5 86.5zM432 512h-57l-112 98l-113 -98h-55l121 175h93z" />
    <glyph glyph-name="Gbreve" unicode="&#x11e;" horiz-adv-x="833" 
d="M776 242q-28 -6 -34.5 -12t-6.5 -24v-163q-90 -34 -155.5 -47t-141.5 -13q-178 0 -284.5 99t-106.5 264q0 162 111 255.5t303 93.5q135 0 261 -47l6 -11q-11 -45 -23 -153h-39l-5 86q-72 69 -205 69q-122 0 -190.5 -74.5t-68.5 -206.5q0 -143 74 -231t195 -88
q60 0 127 25v132q0 19 -12.5 27t-44.5 10l-53 2v41q72 -3 143 -3q75 0 150 3v-34zM574 876q-16 -133 -164 -133q-75 0 -117.5 33.5t-46.5 99.5h48q16 -70 112 -70q49 0 84.5 21.5t35.5 46.5v2h48z" />
    <glyph glyph-name="gbreve" unicode="&#x11f;" horiz-adv-x="556" 
d="M535 -42q0 -100 -81 -162t-212 -62q-99 0 -157.5 38.5t-58.5 103.5q0 46 26 62l81 48q-37 10 -52.5 25t-15.5 42q0 36 17 48l71 54q-45 15 -69 41q-37 40 -37 96q0 79 60.5 129t156.5 50q93 0 152 -43q16 -1 36 -1q31 0 82 5l-5 -64l-77 4q5 -24 5 -47q0 -72 -44 -116
q-64 -64 -174 -64q-4 0 -40 2q-29 -17 -29 -39q0 -32 47 -30l146 4h24q148 0 148 -124zM334 299q0 122 -82 122t-82 -110q0 -56 22.5 -88t61.5 -32q80 0 80 108zM424 -95q0 48 -30.5 64t-121.5 16q-79 0 -101 -11q-23 -11 -37 -34.5t-14 -51.5q0 -47 40.5 -75.5t107.5 -28.5
t111.5 34.5t44.5 86.5zM415 681q-6 -67 -26 -99q-40 -64 -125 -64q-94 0 -133 74q-16 33 -19 89h44q16 -87 104 -87q56 0 87 36q24 28 24 49v2h44z" />
    <glyph glyph-name="Gdotaccent" unicode="&#x120;" horiz-adv-x="833" 
d="M776 242q-28 -6 -34.5 -12t-6.5 -24v-163q-90 -34 -155.5 -47t-141.5 -13q-178 0 -284.5 99t-106.5 264q0 162 111 255.5t303 93.5q135 0 261 -47l6 -11q-11 -45 -23 -153h-39l-5 86q-72 69 -205 69q-122 0 -190.5 -74.5t-68.5 -206.5q0 -143 74 -231t195 -88
q60 0 127 25v132q0 19 -12.5 27t-44.5 10l-53 2v41q72 -3 143 -3q75 0 150 3v-34zM478 809q0 -28 -19.5 -47.5t-47.5 -19.5t-47.5 20t-19.5 48q0 27 20 46.5t48 19.5q27 0 46.5 -20t19.5 -47z" />
    <glyph glyph-name="gdotaccent" unicode="&#x121;" horiz-adv-x="556" 
d="M535 -42q0 -100 -81 -162t-212 -62q-99 0 -157.5 38.5t-58.5 103.5q0 46 26 62l81 48q-37 10 -52.5 25t-15.5 42q0 36 17 48l71 54q-45 15 -69 41q-37 40 -37 96q0 79 60.5 129t156.5 50q93 0 152 -43q16 -1 36 -1q31 0 82 5l-5 -64l-77 4q5 -24 5 -47q0 -72 -44 -116
q-64 -64 -174 -64q-4 0 -40 2q-29 -17 -29 -39q0 -32 47 -30l146 4h24q148 0 148 -124zM334 299q0 122 -82 122t-82 -110q0 -56 22.5 -88t61.5 -32q80 0 80 108zM424 -95q0 48 -30.5 64t-121.5 16q-79 0 -101 -11q-23 -11 -37 -34.5t-14 -51.5q0 -47 40.5 -75.5t107.5 -28.5
t111.5 34.5t44.5 86.5zM331 599q0 -28 -19.5 -47.5t-47.5 -19.5t-47.5 20t-19.5 48q0 27 20 46.5t48 19.5q27 0 46.5 -20t19.5 -47z" />
    <glyph glyph-name="Gcommaaccent" unicode="&#x122;" horiz-adv-x="833" 
d="M776 242q-28 -6 -34.5 -12t-6.5 -24v-163q-90 -34 -155.5 -47t-141.5 -13q-178 0 -284.5 99t-106.5 264q0 162 111 255.5t303 93.5q135 0 261 -47l6 -11q-11 -45 -23 -153h-39l-5 86q-72 69 -205 69q-122 0 -190.5 -74.5t-68.5 -206.5q0 -143 74 -231t195 -88
q60 0 127 25v132q0 19 -12.5 27t-44.5 10l-53 2v41q72 -3 143 -3q75 0 150 3v-34zM465 -77q-20 -47 -93 -159l-53 -22l-12 13q5 10 8.5 19.5l7 19t5.5 15.5t4.5 16.5t3.5 14.5t3 16t2.5 15.5l2.5 17.5t3 18q62 8 107 27z" />
    <glyph glyph-name="gcommaaccent" unicode="&#x123;" horiz-adv-x="556" 
d="M343 705q-5 -10 -8.5 -19.5l-7 -19t-5.5 -15.5t-4.5 -16.5t-3.5 -14.5t-3 -16t-2.5 -15.5l-2.5 -17.5t-3 -18q-62 -8 -107 -27l-11 11q20 47 93 159l53 22zM535 -42q0 -100 -81 -162t-212 -62q-99 0 -157.5 38.5t-58.5 103.5q0 46 26 62l81 48q-37 10 -52.5 25t-15.5 42
q0 36 17 48l71 54q-45 15 -69 41q-37 40 -37 96q0 79 60.5 129t156.5 50q93 0 152 -43q16 -1 36 -1q31 0 82 5l-5 -64l-77 4q5 -24 5 -47q0 -72 -44 -116q-64 -64 -174 -64q-4 0 -40 2q-29 -17 -29 -39q0 -32 47 -30l146 4h24q148 0 148 -124zM334 299q0 122 -82 122
t-82 -110q0 -56 22.5 -88t61.5 -32q80 0 80 108zM424 -95q0 48 -30.5 64t-121.5 16q-79 0 -101 -11q-23 -11 -37 -34.5t-14 -51.5q0 -47 40.5 -75.5t107.5 -28.5t111.5 34.5t44.5 86.5z" />
    <glyph glyph-name="Hcircumflex" unicode="&#x124;" horiz-adv-x="833" 
d="M796 -3q-78 3 -156 3q-77 0 -155 -3v40l37 3q35 3 41.5 15.5t6.5 79.5v190l-81 2h-146l-81 -2v-190q0 -67 6.5 -79.5t41.5 -15.5l37 -3v-40q-78 3 -156 3q-77 0 -155 -3v40l37 3q35 3 41.5 15.5t6.5 79.5v408q0 67 -6.5 79.5t-41.5 15.5l-37 3v40q78 -3 155 -3
q78 0 156 3v-40l-37 -3q-35 -3 -41.5 -15.5t-6.5 -79.5v-158q23 -2 81 -2h146q57 0 81 2v158q0 67 -6.5 79.5t-41.5 15.5l-37 3v40q78 -3 155 -3q78 0 156 3v-40l-37 -3q-35 -3 -41.5 -15.5t-6.5 -79.5v-408q0 -67 6.5 -79.5t41.5 -15.5l37 -3v-40zM598 738h-62l-121 81
l-122 -81h-59l131 143h101z" />
    <glyph glyph-name="hcircumflex" unicode="&#x125;" horiz-adv-x="611" 
d="M587 -3q-51 3 -101 3q-45 0 -90 -3v272q0 61 -22.5 88.5t-71.5 27.5q-33 0 -59 -21t-26 -47v-217q0 -40 6.5 -51t29.5 -13l35 -2v-37q-68 3 -135 3q-65 0 -129 -3v37l35 2q23 2 29.5 13t6.5 51v468q0 44 -4.5 56.5t-21.5 13.5l-45 3v36q77 10 113 21l72 22l8 -6v-324
l80 62q23 19 70 19q76 0 116 -42q35 -38 35 -143v-186q0 -40 6.5 -51t29.5 -13l33 -2v-37zM488 777h-62l-121 81l-122 -81h-59l131 143h101z" />
    <glyph glyph-name="Hbar" unicode="&#x126;" horiz-adv-x="833" 
d="M796 -3q-78 3 -156 3q-77 0 -155 -3v40l37 3q35 3 41.5 15.5t6.5 79.5v190l-81 2h-146l-81 -2v-190q0 -67 6.5 -79.5t41.5 -15.5l37 -3v-40q-78 3 -156 3q-77 0 -155 -3v40l37 3q35 3 41.5 15.5t6.5 79.5v348h-85v56h85v4q0 67 -6.5 79.5t-41.5 15.5l-37 3v40
q78 -3 155 -3q78 0 156 3v-40l-37 -3q-35 -3 -41.5 -15.5t-6.5 -79.5v-4h308v4q0 67 -6.5 79.5t-41.5 15.5l-37 3v40q78 -3 155 -3q78 0 156 3v-40l-37 -3q-35 -3 -41.5 -15.5t-6.5 -79.5v-4h85v-56h-85v-348q0 -67 6.5 -79.5t41.5 -15.5l37 -3v-40zM570 385v98h-308v-98
q23 -2 81 -2h146q57 0 81 2z" />
    <glyph glyph-name="hbar" unicode="&#x127;" horiz-adv-x="655" 
d="M609 -3q-51 3 -101 3q-45 0 -90 -3v272q0 61 -22.5 88.5t-71.5 27.5q-33 0 -59 -21t-26 -47v-217q0 -40 6.5 -51t29.5 -13l35 -2v-37q-68 3 -135 3q-65 0 -129 -3v37l35 2q23 2 29.5 13t6.5 51v416h-71v71h71q-1 31 -6 40t-20 11l-45 3v36q77 10 113 21l72 22l8 -6v-128
l138 1v-71h-138v-126l80 62q23 19 70 19q76 0 116 -42q35 -38 35 -143v-186q0 -40 6.5 -51t29.5 -13l33 -2v-37z" />
    <glyph glyph-name="Itilde" unicode="&#x128;" horiz-adv-x="389" 
d="M350 -3q-78 3 -156 3q-77 0 -155 -3v40l37 3q35 3 41.5 15.5t6.5 79.5v408q0 67 -6.5 79.5t-41.5 15.5l-37 3v40q78 -3 155 -3q78 0 156 3v-40l-37 -3q-35 -3 -41.5 -15.5t-6.5 -79.5v-408q0 -67 6.5 -79.5t41.5 -15.5l37 -3v-40zM378 872q-18 -65 -46.5 -95.5
t-71.5 -30.5q-31 0 -84 25q-47 23 -77 23q-31 0 -46 -47h-40q6 55 38.5 90t77.5 35q29 0 80 -24t75 -24q18 0 27.5 9.5t23.5 38.5h43z" />
    <glyph glyph-name="itilde" unicode="&#x129;" 
d="M298 -3q-68 3 -135 3q-65 0 -129 -3v37l35 2q23 2 29.5 13t6.5 51v219q0 44 -4.5 56.5t-21.5 13.5l-45 3v36l15 2q56 8 98 19l70 22l10 -6v-365q0 -40 6.5 -51t29.5 -13l35 -2v-37zM348 662q-18 -65 -46.5 -95.5t-71.5 -30.5q-31 0 -84 25q-47 23 -77 23q-31 0 -46 -47
h-40q6 55 38.5 90t77.5 35q29 0 80 -24t75 -24q18 0 27.5 9.5t23.5 38.5h43z" />
    <glyph glyph-name="Imacron" unicode="&#x12a;" horiz-adv-x="389" 
d="M350 -3q-78 3 -156 3q-77 0 -155 -3v40l37 3q35 3 41.5 15.5t6.5 79.5v408q0 67 -6.5 79.5t-41.5 15.5l-37 3v40q78 -3 155 -3q78 0 156 3v-40l-37 -3q-35 -3 -41.5 -15.5t-6.5 -79.5v-408q0 -67 6.5 -79.5t41.5 -15.5l37 -3v-40zM361 774h-331v71h331v-71z" />
    <glyph glyph-name="imacron" unicode="&#x12b;" 
d="M298 -3q-68 3 -135 3q-65 0 -129 -3v37l35 2q23 2 29.5 13t6.5 51v219q0 44 -4.5 56.5t-21.5 13.5l-45 3v36l15 2q56 8 98 19l70 22l10 -6v-365q0 -40 6.5 -51t29.5 -13l35 -2v-37zM331 564h-331v71h331v-71z" />
    <glyph glyph-name="Ibreve" unicode="&#x12c;" horiz-adv-x="389" 
d="M350 -3q-78 3 -156 3q-77 0 -155 -3v40l37 3q35 3 41.5 15.5t6.5 79.5v408q0 67 -6.5 79.5t-41.5 15.5l-37 3v40q78 -3 155 -3q78 0 156 3v-40l-37 -3q-35 -3 -41.5 -15.5t-6.5 -79.5v-408q0 -67 6.5 -79.5t41.5 -15.5l37 -3v-40zM359 876q-16 -133 -164 -133
q-75 0 -117.5 33.5t-46.5 99.5h48q16 -70 112 -70q49 0 84.5 21.5t35.5 46.5v2h48z" />
    <glyph glyph-name="ibreve" unicode="&#x12d;" 
d="M298 -3q-68 3 -135 3q-65 0 -129 -3v37l35 2q23 2 29.5 13t6.5 51v219q0 44 -4.5 56.5t-21.5 13.5l-45 3v36l15 2q56 8 98 19l70 22l10 -6v-365q0 -40 6.5 -51t29.5 -13l35 -2v-37zM317 681q-6 -67 -26 -99q-40 -64 -125 -64q-94 0 -133 74q-16 33 -19 89h44
q16 -87 104 -87q56 0 87 36q24 28 24 49v2h44z" />
    <glyph glyph-name="Iogonek" unicode="&#x12e;" horiz-adv-x="389" 
d="M350 -3l-62 2q-32 1 -66 -47q-27 -39 -27 -76q0 -60 42 -60q52 0 61 23l12 30l30 -7v-59l-53 -37q-23 -16 -84 -16q-41 0 -63.5 29.5t-22.5 71.5q0 92 94 149h-17l-155 -3v40l37 3q35 3 41.5 15.5t6.5 79.5v408q0 67 -6.5 79.5t-41.5 15.5l-37 3v40q78 -3 155 -3
q78 0 156 3v-40l-37 -3q-35 -3 -41.5 -15.5t-6.5 -79.5v-408q0 -67 6.5 -79.5t41.5 -15.5l37 -3v-40z" />
    <glyph glyph-name="iogonek" unicode="&#x12f;" 
d="M298 -3l-54 2q-41 1 -74 -47q-27 -39 -27 -76q0 -60 42 -60q52 0 61 23l12 30l30 -7v-59l-53 -37q-23 -16 -84 -16q-41 0 -63.5 29.5t-22.5 71.5q0 92 94 149l-125 -3v37l35 2q23 2 29.5 13t6.5 51v219q0 44 -4.5 56.5t-21.5 13.5l-45 3v36l15 2q56 8 98 19l70 22l10 -6
v-365q0 -40 6.5 -51t29.5 -13l35 -2v-37zM234 599q0 -28 -19.5 -47.5t-47.5 -19.5t-47.5 20t-19.5 48q0 27 20 46.5t48 19.5q27 0 46.5 -20t19.5 -47z" />
    <glyph glyph-name="Idotaccent" unicode="&#x130;" horiz-adv-x="389" 
d="M350 -3q-78 3 -156 3q-77 0 -155 -3v40l37 3q35 3 41.5 15.5t6.5 79.5v408q0 67 -6.5 79.5t-41.5 15.5l-37 3v40q78 -3 155 -3q78 0 156 3v-40l-37 -3q-35 -3 -41.5 -15.5t-6.5 -79.5v-408q0 -67 6.5 -79.5t41.5 -15.5l37 -3v-40zM263 809q0 -28 -19.5 -47.5t-47.5 -19.5
t-47.5 20t-19.5 48q0 27 20 46.5t48 19.5q27 0 46.5 -20t19.5 -47z" />
    <glyph glyph-name="dotlessi" unicode="&#x131;" 
d="M298 -3q-68 3 -135 3q-65 0 -129 -3v37l35 2q23 2 29.5 13t6.5 51v219q0 44 -4.5 56.5t-21.5 13.5l-45 3v36l15 2q56 8 98 19l70 22l10 -6v-365q0 -40 6.5 -51t29.5 -13l35 -2v-37z" />
    <glyph glyph-name="Jcircumflex" unicode="&#x134;" horiz-adv-x="389" 
d="M350 641l-37 -3q-35 -3 -41.5 -15.5t-6.5 -79.5v-406q0 -78 -5.5 -117t-22.5 -75q-32 -67 -94.5 -112.5t-123.5 -45.5q-14 0 -30 5v89l11 6q1 -1 4 -3t7 -5q35 -27 58 -27q30 0 42.5 29.5t12.5 100.5v561q0 67 -6.5 79.5t-41.5 15.5l-37 3v40q78 -3 155 -3q78 0 156 3
v-40zM377 738h-62l-121 81l-122 -81h-59l131 143h101z" />
    <glyph glyph-name="jcircumflex" unicode="&#x135;" 
d="M227 98q0 -115 -11.5 -176t-41.5 -105q-56 -83 -130 -83q-17 0 -31 2l-10 35l4 6h23q40 0 57.5 43t17.5 142v357q0 44 -4.5 56.5t-21.5 13.5l-45 3v36l18 2q51 5 95 19l70 22l10 -6v-367zM334 512h-57l-112 98l-113 -98h-55l121 175h93z" />
    <glyph glyph-name="Kcommaaccent" unicode="&#x136;" horiz-adv-x="778" 
d="M763 -3q-51 3 -101 3q-51 0 -102 -3l-208 249q-40 49 -53 61.5t-34 24.5v-197q0 -67 6.5 -79.5t41.5 -15.5l37 -3v-40q-78 3 -156 3q-77 0 -155 -3v40l37 3q35 3 41.5 15.5t6.5 79.5v408q0 67 -6.5 79.5t-41.5 15.5l-37 3v40q78 -3 155 -3q78 0 156 3v-40l-37 -3
q-35 -3 -41.5 -15.5t-6.5 -79.5v-200l197 193q94 94 94 120v25q45 -3 91 -3t91 3v-39q-47 -4 -69.5 -11t-40.5 -23l-222 -207l266 -313q42 -49 91 -50v-41zM456 -77q-20 -47 -93 -159l-53 -22l-12 13q5 10 8.5 19.5l7 19t5.5 15.5t4.5 16.5t3.5 14.5t3 16t2.5 15.5l2.5 17.5
t3 18q62 8 107 27z" />
    <glyph glyph-name="kcommaaccent" unicode="&#x137;" horiz-adv-x="611" 
d="M597 0h-172q-82 101 -154 182q-20 22 -39 44h-10v-126q0 -40 6.5 -51t29.5 -13l35 -2v-37q-67 3 -135 3q-64 0 -129 -3v37l35 2q23 2 29.5 13t6.5 51v468q0 44 -4.5 56.5t-21.5 13.5l-53 3v36q80 8 121 21l72 22l8 -6v-465q73 63 106 97l107 113h130v-38h-31
q-24 0 -48 -18q-28 -20 -63 -49.5t-56 -48.5l-21 -19l196 -220q26 -29 55 -32v-34zM368 -77q-20 -47 -93 -159l-53 -22l-12 13q5 10 8.5 19.5l7 19t5.5 15.5t4.5 16.5t3.5 14.5t3 16t2.5 15.5l2.5 17.5t3 18q62 8 107 27z" />
    <glyph glyph-name="Lacute" unicode="&#x139;" horiz-adv-x="611" 
d="M577 174l-11 -166l-5 -8q-57 -3 -140 -3q-37 0 -113 1.5t-113 1.5q-61 0 -123 -3v23l32 18q20 11 20 57v448q0 67 -6.5 79.5t-41.5 15.5l-37 3v40q78 -3 155 -3q78 0 156 3v-40l-37 -3q-35 -3 -41.5 -15.5t-6.5 -79.5v-485l153 -3q32 0 64 5.5t33 11.5l23 102h39z
M340 848q0 -13 -10 -22.5t-37 -21.5l-150 -71h-60l139 121q36 30 71 30q21 0 34 -10t13 -26z" />
    <glyph glyph-name="lacute" unicode="&#x13a;" 
d="M296 -3q-68 3 -135 3q-65 0 -129 -3v37l35 2q23 2 29.5 13t6.5 51v468q0 44 -4.5 56.5t-21.5 13.5l-53 3v36q80 8 121 21l72 22l8 -6v-614q0 -40 6.5 -51t29.5 -13l35 -2v-37zM303 887q0 -13 -10 -22.5t-37 -21.5l-150 -71h-60l139 121q36 30 71 30q21 0 34 -10t13 -26z
" />
    <glyph glyph-name="Lcommaaccent" unicode="&#x13b;" horiz-adv-x="611" 
d="M577 174l-11 -166l-5 -8q-57 -3 -140 -3q-37 0 -113 1.5t-113 1.5q-61 0 -123 -3v23l32 18q20 11 20 57v448q0 67 -6.5 79.5t-41.5 15.5l-37 3v40q78 -3 155 -3q78 0 156 3v-40l-37 -3q-35 -3 -41.5 -15.5t-6.5 -79.5v-485l153 -3q32 0 64 5.5t33 11.5l23 102h39z
M360 -77q-20 -47 -93 -159l-53 -22l-12 13q5 10 8.5 19.5l7 19t5.5 15.5t4.5 16.5t3.5 14.5t3 16t2.5 15.5l2.5 17.5t3 18q62 8 107 27z" />
    <glyph glyph-name="lcommaaccent" unicode="&#x13c;" 
d="M296 -3q-68 3 -135 3q-65 0 -129 -3v37l35 2q23 2 29.5 13t6.5 51v468q0 44 -4.5 56.5t-21.5 13.5l-53 3v36q80 8 121 21l72 22l8 -6v-614q0 -40 6.5 -51t29.5 -13l35 -2v-37zM219 -77q-20 -47 -93 -159l-53 -22l-12 13q5 10 8.5 19.5l7 19t5.5 15.5t4.5 16.5t3.5 14.5
t3 16t2.5 15.5l2.5 17.5t3 18q62 8 107 27z" />
    <glyph glyph-name="Lcaron" unicode="&#x13d;" horiz-adv-x="611" 
d="M577 174l-11 -166l-5 -8q-57 -3 -140 -3q-37 0 -113 1.5t-113 1.5q-61 0 -123 -3v23l32 18q20 11 20 57v448q0 67 -6.5 79.5t-41.5 15.5l-37 3v40q78 -3 155 -3q78 0 156 3v-40l-37 -3q-35 -3 -41.5 -15.5t-6.5 -79.5v-485l153 -3q32 0 64 5.5t33 11.5l23 102h39z
M554 670q-20 -47 -93 -159l-53 -22l-12 13q5 10 8.5 19.5l7 19t5.5 15.5t4.5 16.5t3.5 14.5t3 16t2.5 15.5l2.5 17.5t3 18q62 8 107 27z" />
    <glyph glyph-name="lcaron" unicode="&#x13e;" 
d="M296 -3q-68 3 -135 3q-65 0 -129 -3v37l35 2q23 2 29.5 13t6.5 51v468q0 44 -4.5 56.5t-21.5 13.5l-53 3v36q80 8 121 21l72 22l8 -6v-614q0 -40 6.5 -51t29.5 -13l35 -2v-37zM429 709q-20 -47 -93 -159l-53 -22l-12 13q5 10 8.5 19.5l7 19t5.5 15.5t4.5 16.5t3.5 14.5
t3 16t2.5 15.5l2.5 17.5t3 18q62 8 107 27z" />
    <glyph glyph-name="Ldot" unicode="&#x13f;" horiz-adv-x="611" 
d="M577 174l-11 -166l-5 -8q-57 -3 -140 -3q-37 0 -113 1.5t-113 1.5q-61 0 -123 -3v23l32 18q20 11 20 57v448q0 67 -6.5 79.5t-41.5 15.5l-37 3v40q78 -3 155 -3q78 0 156 3v-40l-37 -3q-35 -3 -41.5 -15.5t-6.5 -79.5v-485l153 -3q32 0 64 5.5t33 11.5l23 102h39z
M567 377q0 -28 -19.5 -47.5t-47.5 -19.5t-47.5 20t-19.5 48q0 27 20 46.5t48 19.5q27 0 46.5 -20t19.5 -47z" />
    <glyph glyph-name="ldot" unicode="&#x140;" horiz-adv-x="351" 
d="M296 -3q-68 3 -135 3q-65 0 -129 -3v37l35 2q23 2 29.5 13t6.5 51v468q0 44 -4.5 56.5t-21.5 13.5l-53 3v36q80 8 121 21l72 22l8 -6v-614q0 -40 6.5 -51t29.5 -13l35 -2v-37zM407 377q0 -28 -19.5 -47.5t-47.5 -19.5t-47.5 20t-19.5 48q0 27 20 46.5t48 19.5
q27 0 46.5 -20t19.5 -47z" />
    <glyph glyph-name="Lslash" unicode="&#x141;" horiz-adv-x="611" 
d="M577 174l-11 -166l-5 -8q-57 -3 -140 -3q-37 0 -113 1.5t-113 1.5q-61 0 -123 -3v23l32 18q20 11 20 57v187l-66 -56l-18 31l84 71v215q0 67 -6.5 79.5t-41.5 15.5l-37 3v40q78 -3 155 -3q78 0 156 3v-40l-37 -3q-35 -3 -41.5 -15.5t-6.5 -79.5v-105l111 94l18 -31
l-129 -110v-333l153 -3q32 0 64 5.5t33 11.5l23 102h39z" />
    <glyph glyph-name="lslash" unicode="&#x142;" 
d="M326 521l-101 -88v-333q0 -40 6.5 -51t29.5 -13l35 -2v-37q-68 3 -135 3q-65 0 -129 -3v37l35 2q23 2 29.5 13t6.5 51v237l-69 -59l-18 31l87 75v184q0 44 -4.5 56.5t-21.5 13.5l-53 3v36q80 8 121 21l72 22l8 -6v-234l83 72z" />
    <glyph glyph-name="Nacute" unicode="&#x143;" horiz-adv-x="833" 
d="M798 644l-37 -3q-34 -3 -41 -17.5t-7 -80.5v-454l3 -101l-7 -4l-82 13l-122 139l-326 392v-393q0 -66 7 -80.5t41 -17.5l37 -3v-37q-57 3 -114 3q-58 0 -115 -3v37l37 3q34 3 41 17.5t7 80.5v408q0 66 -7 80.5t-41 17.5l-37 3v37q60 -3 120 -3q42 0 84 3
q83 -110 103 -133l312 -364v359q0 66 -7 80.5t-41 17.5l-37 3v37q57 -3 115 -3q57 0 114 3v-37zM562 848q0 -13 -10 -22.5t-37 -21.5l-150 -71h-60l139 121q36 30 71 30q21 0 34 -10t13 -26z" />
    <glyph glyph-name="nacute" unicode="&#x144;" horiz-adv-x="611" 
d="M587 -3q-51 3 -101 3q-45 0 -90 -3v273q0 60 -22.5 87.5t-71.5 27.5q-33 0 -59 -21t-26 -47v-217q0 -40 6.5 -51t29.5 -13l35 -2v-37q-68 3 -135 3q-65 0 -129 -3v37l35 2q23 2 29.5 13t6.5 51v219q0 44 -4.5 56.5t-21.5 13.5l-45 3v36q42 2 76 10t111 33l6 -6v-75l80 62
q23 19 70 19q76 0 116 -42q35 -38 35 -143v-186q0 -40 6.5 -51t29.5 -13l33 -2v-37zM456 647q0 -16 -9.5 -28t-33.5 -27q-2 -1 -3 -2t-2.5 -1.5t-9.5 -5.5t-20.5 -13t-39.5 -25t-64 -39h-56l129 148q33 37 65 37q20 0 32 -12t12 -32z" />
    <glyph glyph-name="Ncommaaccent" unicode="&#x145;" horiz-adv-x="833" 
d="M798 644l-37 -3q-34 -3 -41 -17.5t-7 -80.5v-454l3 -101l-7 -4l-82 13l-122 139l-326 392v-393q0 -66 7 -80.5t41 -17.5l37 -3v-37q-57 3 -114 3q-58 0 -115 -3v37l37 3q34 3 41 17.5t7 80.5v408q0 66 -7 80.5t-41 17.5l-37 3v37q60 -3 120 -3q42 0 84 3
q83 -110 103 -133l312 -364v359q0 66 -7 80.5t-41 17.5l-37 3v37q57 -3 115 -3q57 0 114 3v-37zM472 -77q-20 -47 -93 -159l-53 -22l-12 13q5 10 8.5 19.5l7 19t5.5 15.5t4.5 16.5t3.5 14.5t3 16t2.5 15.5l2.5 17.5t3 18q62 8 107 27z" />
    <glyph glyph-name="ncommaaccent" unicode="&#x146;" horiz-adv-x="611" 
d="M587 -3q-51 3 -101 3q-45 0 -90 -3v273q0 60 -22.5 87.5t-71.5 27.5q-33 0 -59 -21t-26 -47v-217q0 -40 6.5 -51t29.5 -13l35 -2v-37q-68 3 -135 3q-65 0 -129 -3v37l35 2q23 2 29.5 13t6.5 51v219q0 44 -4.5 56.5t-21.5 13.5l-45 3v36q42 2 76 10t111 33l6 -6v-75l80 62
q23 19 70 19q76 0 116 -42q35 -38 35 -143v-186q0 -40 6.5 -51t29.5 -13l33 -2v-37zM362 -77q-20 -47 -93 -159l-53 -22l-12 13q5 10 8.5 19.5l7 19t5.5 15.5t4.5 16.5t3.5 14.5t3 16t2.5 15.5l2.5 17.5t3 18q62 8 107 27z" />
    <glyph glyph-name="Ncaron" unicode="&#x147;" horiz-adv-x="833" 
d="M798 644l-37 -3q-34 -3 -41 -17.5t-7 -80.5v-454l3 -101l-7 -4l-82 13l-122 139l-326 392v-393q0 -66 7 -80.5t41 -17.5l37 -3v-37q-57 3 -114 3q-58 0 -115 -3v37l37 3q34 3 41 17.5t7 80.5v408q0 66 -7 80.5t-41 17.5l-37 3v37q60 -3 120 -3q42 0 84 3
q83 -110 103 -133l312 -364v359q0 66 -7 80.5t-41 17.5l-37 3v37q57 -3 115 -3q57 0 114 3v-37zM599 881l-131 -143h-101l-132 143h62l121 -81l122 81h59z" />
    <glyph glyph-name="ncaron" unicode="&#x148;" horiz-adv-x="611" 
d="M587 -3q-51 3 -101 3q-45 0 -90 -3v273q0 60 -22.5 87.5t-71.5 27.5q-33 0 -59 -21t-26 -47v-217q0 -40 6.5 -51t29.5 -13l35 -2v-37q-68 3 -135 3q-65 0 -129 -3v37l35 2q23 2 29.5 13t6.5 51v219q0 44 -4.5 56.5t-21.5 13.5l-45 3v36q42 2 76 10t111 33l6 -6v-75l80 62
q23 19 70 19q76 0 116 -42q35 -38 35 -143v-186q0 -40 6.5 -51t29.5 -13l33 -2v-37zM475 687l-123 -175h-93l-121 175h55l113 -98l112 98h57z" />
    <glyph glyph-name="Eng" unicode="&#x14a;" horiz-adv-x="833" 
d="M798 644l-37 -3q-34 -3 -41 -17.5t-7 -80.5v-454l3 -101q0 -72 -46.5 -123.5t-114.5 -51.5q-101 0 -180 62l56 56q46 -62 124 -62q37 0 54.5 37.5t17.5 90.5l-122 139l-326 392v-393q0 -66 7 -80.5t41 -17.5l37 -3v-37q-57 3 -114 3q-58 0 -115 -3v37l37 3q34 3 41 17.5
t7 80.5v408q0 66 -7 80.5t-41 17.5l-37 3v37q60 -3 120 -3q42 0 84 3q83 -110 103 -133l312 -364v359q0 66 -7 80.5t-41 17.5l-37 3v37q57 -3 115 -3q57 0 114 3v-37z" />
    <glyph glyph-name="eng" unicode="&#x14b;" horiz-adv-x="611" 
d="M518 100q0 -108 -59.5 -187.5t-152.5 -79.5v48q33 0 53 16.5t27.5 56.5t8.5 65.5t1 83.5v31v136q0 60 -22.5 87.5t-71.5 27.5q-33 0 -59 -21t-26 -47v-217q0 -40 6.5 -51t29.5 -13l35 -2v-37q-68 3 -135 3q-65 0 -129 -3v37l35 2q23 2 29.5 13t6.5 51v219q0 44 -4.5 56.5
t-21.5 13.5l-45 3v36q42 2 76 10t111 33l6 -6v-75l80 62q23 19 70 19q76 0 116 -42q35 -38 35 -143v-186z" />
    <glyph glyph-name="Omacron" unicode="&#x14c;" horiz-adv-x="833" 
d="M787 346q0 -171 -100.5 -267t-279.5 -96q-172 0 -266 91t-94 258q0 172 101 267.5t282 95.5q169 0 263 -92t94 -257zM637 325q0 179 -86 263q-53 51 -130 51q-95 0 -154 -57q-70 -70 -70 -227q0 -181 85 -264q52 -52 132 -52q110 0 166.5 72.5t56.5 213.5zM585 774h-331
v71h331v-71z" />
    <glyph glyph-name="omacron" unicode="&#x14d;" horiz-adv-x="556" 
d="M517 236q0 -121 -65 -187t-185 -66q-109 0 -168 63t-59 178q0 119 64 183t183 64q111 0 170.5 -60.5t59.5 -174.5zM381 205q0 218 -106 218q-52 0 -75.5 -42t-23.5 -133q0 -217 109 -217q51 0 73.5 41t22.5 133zM442 564h-331v71h331v-71z" />
    <glyph glyph-name="Obreve" unicode="&#x14e;" horiz-adv-x="833" 
d="M787 346q0 -171 -100.5 -267t-279.5 -96q-172 0 -266 91t-94 258q0 172 101 267.5t282 95.5q169 0 263 -92t94 -257zM637 325q0 179 -86 263q-53 51 -130 51q-95 0 -154 -57q-70 -70 -70 -227q0 -181 85 -264q52 -52 132 -52q110 0 166.5 72.5t56.5 213.5zM583 876
q-16 -133 -164 -133q-75 0 -117.5 33.5t-46.5 99.5h48q16 -70 112 -70q49 0 84.5 21.5t35.5 46.5v2h48z" />
    <glyph glyph-name="obreve" unicode="&#x14f;" horiz-adv-x="556" 
d="M517 236q0 -121 -65 -187t-185 -66q-109 0 -168 63t-59 178q0 119 64 183t183 64q111 0 170.5 -60.5t59.5 -174.5zM381 205q0 218 -106 218q-52 0 -75.5 -42t-23.5 -133q0 -217 109 -217q51 0 73.5 41t22.5 133zM428 681q-6 -67 -26 -99q-40 -64 -125 -64q-94 0 -133 74
q-16 33 -19 89h44q16 -87 104 -87q55 0 87 36q24 28 24 49v2h44z" />
    <glyph glyph-name="Ohungarumlaut" unicode="&#x150;" horiz-adv-x="833" 
d="M787 346q0 -171 -100.5 -267t-279.5 -96q-172 0 -266 91t-94 258q0 172 101 267.5t282 95.5q169 0 263 -92t94 -257zM637 325q0 179 -86 263q-53 51 -130 51q-95 0 -154 -57q-70 -70 -70 -227q0 -181 85 -264q52 -52 132 -52q110 0 166.5 72.5t56.5 213.5zM730 848
q0 -13 -10 -22.5t-37 -21.5l-150 -71h-60l139 121q36 30 71 30q21 0 34 -10t13 -26zM546 848q0 -13 -10 -22.5t-37 -21.5l-150 -71h-60l139 121q36 30 71 30q21 0 34 -10t13 -26z" />
    <glyph glyph-name="ohungarumlaut" unicode="&#x151;" horiz-adv-x="556" 
d="M517 236q0 -121 -65 -187t-185 -66q-109 0 -168 63t-59 178q0 119 64 183t183 64q111 0 170.5 -60.5t59.5 -174.5zM381 205q0 218 -106 218q-52 0 -75.5 -42t-23.5 -133q0 -217 109 -217q51 0 73.5 41t22.5 133zM570 645q0 -25 -19 -37l-165 -101h-54l128 148
q19 22 32 29.5t31 7.5q21 0 34 -13t13 -34zM382 646q0 -26 -19 -38l-165 -101h-54l128 148q19 22 32 29.5t31 7.5q21 0 34 -13t13 -33z" />
    <glyph glyph-name="OE" unicode="&#x152;" horiz-adv-x="1000" 
d="M985 166l-11 -158l-5 -8q-77 -4 -141 -4l-161 3l-66 1q-51 1 -120 -9q-51 -8 -87 -8q-164 0 -257.5 96t-93.5 265q0 168 89 257q94 94 277 94q35 0 107 -9q65 -9 116 -8l187 3q10 0 28.5 0.5t26.5 0.5q45 0 94 -4l6 -7l-14 -142h-36l-8 75q-1 8 -29.5 14t-68.5 6
q-70 0 -145 -4v-240q20 -2 67 -2h66q31 0 43 4.5t14 16.5l6 57h40q-3 -54 -3 -107q0 -54 3 -108h-40l-6 50q-4 37 -57 37h-66q-25 0 -67 -3v-267l131 -3q73 0 116 14l3 3l23 94h39zM532 75v519q-38 26 -65.5 35.5t-63.5 9.5q-210 0 -210 -282q0 -151 58 -234.5t163 -83.5
q63 0 118 36z" />
    <glyph glyph-name="oe" unicode="&#x153;" horiz-adv-x="833" 
d="M799 243q-80 -20 -158 -20h-131q3 -61 24 -98q19 -32 53 -51.5t72 -19.5q55 0 118 35l12 -15l-22 -48q-82 -43 -156 -43q-102 0 -163 64q-70 -64 -176 -64q-107 0 -165.5 63.5t-58.5 178.5q0 119 64 182.5t184 63.5q54 0 91.5 -13t74.5 -44q78 57 154 57
q82 0 132.5 -48.5t50.5 -127.5v-52zM672 276q-1 74 -20.5 106.5t-62.5 32.5t-63 -32.5t-22 -106.5l32 -1l48 -2h4zM389 205q0 218 -106 218q-52 0 -75.5 -42t-23.5 -133q0 -217 109 -217q51 0 73.5 41t22.5 133z" />
    <glyph glyph-name="Racute" unicode="&#x154;" horiz-adv-x="722" 
d="M708 -3q-48 3 -97 3q-45 0 -90 -3l-210 342v23q55 0 87 19q66 39 66 122q0 61 -36.5 94.5t-103.5 33.5q-38 0 -59 -9v-487q0 -67 6.5 -79.5t41.5 -15.5l37 -3v-40q-78 3 -156 3q-77 0 -155 -3v40l37 3q35 3 41.5 15.5t6.5 79.5v408q0 66 -7 80.5t-41 17.5l-37 3v37
q88 -3 178 -3q33 0 99.5 1.5t99.5 1.5q190 0 190 -147q0 -61 -43 -110q-37 -40 -106 -68l181 -274q16 -24 29 -31.5t41 -13.5v-40zM495 848q0 -13 -10 -22.5t-37 -21.5l-150 -71h-60l139 121q36 30 71 30q21 0 34 -10t13 -26z" />
    <glyph glyph-name="racute" unicode="&#x155;" horiz-adv-x="389" 
d="M389 465l-5 -129l-24 -10q-21 36 -57 36q-29 0 -54.5 -20.5t-25.5 -43.5v-198q0 -42 8 -52t40 -12l39 -2v-37q-75 3 -151 3q-65 0 -129 -3v37l35 2q23 2 29.5 13t6.5 51v219q0 44 -4.5 56.5t-21.5 13.5l-45 3v36q77 10 113 21l70 22l10 -6v-95l44 48q29 31 46.5 42
t38.5 11q22 0 37 -6zM372 647q0 -16 -9.5 -28t-33.5 -27q-2 -1 -3 -2t-2.5 -1.5t-9.5 -5.5t-20.5 -13t-39.5 -25t-64 -39h-56l129 148q33 37 65 37q20 0 32 -12t12 -32z" />
    <glyph glyph-name="Rcommaaccent" unicode="&#x156;" horiz-adv-x="722" 
d="M708 -3q-48 3 -97 3q-45 0 -90 -3l-210 342v23q55 0 87 19q66 39 66 122q0 61 -36.5 94.5t-103.5 33.5q-38 0 -59 -9v-487q0 -67 6.5 -79.5t41.5 -15.5l37 -3v-40q-78 3 -156 3q-77 0 -155 -3v40l37 3q35 3 41.5 15.5t6.5 79.5v408q0 66 -7 80.5t-41 17.5l-37 3v37
q88 -3 178 -3q33 0 99.5 1.5t99.5 1.5q190 0 190 -147q0 -61 -43 -110q-37 -40 -106 -68l181 -274q16 -24 29 -31.5t41 -13.5v-40zM405 -77q-20 -47 -93 -159l-53 -22l-12 13q5 10 8.5 19.5l7 19t5.5 15.5t4.5 16.5t3.5 14.5t3 16t2.5 15.5l2.5 17.5t3 18q62 8 107 27z" />
    <glyph glyph-name="rcommaaccent" unicode="&#x157;" horiz-adv-x="389" 
d="M389 465l-5 -129l-24 -10q-21 36 -57 36q-29 0 -54.5 -20.5t-25.5 -43.5v-198q0 -42 8 -52t40 -12l39 -2v-37q-75 3 -151 3q-65 0 -129 -3v37l35 2q23 2 29.5 13t6.5 51v219q0 44 -4.5 56.5t-21.5 13.5l-45 3v36q77 10 113 21l70 22l10 -6v-95l44 48q29 31 46.5 42
t38.5 11q22 0 37 -6zM225 -77q-20 -47 -93 -159l-53 -22l-12 13q5 10 8.5 19.5l7 19t5.5 15.5t4.5 16.5t3.5 14.5t3 16t2.5 15.5l2.5 17.5t3 18q62 8 107 27z" />
    <glyph glyph-name="Rcaron" unicode="&#x158;" horiz-adv-x="722" 
d="M708 -3q-48 3 -97 3q-45 0 -90 -3l-210 342v23q55 0 87 19q66 39 66 122q0 61 -36.5 94.5t-103.5 33.5q-38 0 -59 -9v-487q0 -67 6.5 -79.5t41.5 -15.5l37 -3v-40q-78 3 -156 3q-77 0 -155 -3v40l37 3q35 3 41.5 15.5t6.5 79.5v408q0 66 -7 80.5t-41 17.5l-37 3v37
q88 -3 178 -3q33 0 99.5 1.5t99.5 1.5q190 0 190 -147q0 -61 -43 -110q-37 -40 -106 -68l181 -274q16 -24 29 -31.5t41 -13.5v-40zM532 881l-131 -143h-101l-132 143h62l121 -81l122 81h59z" />
    <glyph glyph-name="rcaron" unicode="&#x159;" horiz-adv-x="389" 
d="M389 465l-5 -129l-24 -10q-21 36 -57 36q-29 0 -54.5 -20.5t-25.5 -43.5v-198q0 -42 8 -52t40 -12l39 -2v-37q-75 3 -151 3q-65 0 -129 -3v37l35 2q23 2 29.5 13t6.5 51v219q0 44 -4.5 56.5t-21.5 13.5l-45 3v36q77 10 113 21l70 22l10 -6v-95l44 48q29 31 46.5 42
t38.5 11q22 0 37 -6zM391 687l-123 -175h-93l-121 175h55l113 -98l112 98h57z" />
    <glyph glyph-name="Sacute" unicode="&#x15a;" horiz-adv-x="611" 
d="M559 220q0 -109 -80 -173t-214 -64q-105 0 -208 46q15 78 15 173h40l7 -88q24 -35 68.5 -56t95.5 -21q65 0 107.5 37t42.5 92q0 71 -83 96l-140 42q-71 21 -108.5 66.5t-37.5 109.5q0 101 70 158t195 57q94 0 185 -34l5 -12q-14 -45 -14 -142h-41l-6 82q-56 55 -136 55
q-60 0 -97 -32.5t-37 -84.5q0 -38 25 -62t81 -39l114 -30q151 -40 151 -176zM442 848q0 -13 -10 -22.5t-37 -21.5l-150 -71h-60l139 121q36 30 71 30q21 0 34 -10t13 -26z" />
    <glyph glyph-name="sacute" unicode="&#x15b;" horiz-adv-x="444" 
d="M405 155q0 -77 -58 -124.5t-153 -47.5q-74 0 -155 28l7 141h39l5 -69q44 -52 112 -52q43 0 67.5 21t24.5 56q0 26 -14 40.5t-49 22.5l-86 21q-106 26 -106 125q0 75 53.5 114.5t154.5 39.5q70 0 123 -23l-8 -122h-36l-10 58q-2 15 -29 27t-58 12q-41 0 -64.5 -17.5
t-23.5 -47.5q0 -24 12.5 -36.5t42.5 -19.5l82 -18q68 -15 97.5 -45t29.5 -84zM370 647q0 -16 -9.5 -28t-33.5 -27q-2 -1 -3 -2t-2.5 -1.5t-9.5 -5.5t-20.5 -13t-39.5 -25t-64 -39h-56l129 148q33 37 65 37q20 0 32 -12t12 -32z" />
    <glyph glyph-name="Scircumflex" unicode="&#x15c;" horiz-adv-x="611" 
d="M559 220q0 -109 -80 -173t-214 -64q-105 0 -208 46q15 78 15 173h40l7 -88q24 -35 68.5 -56t95.5 -21q65 0 107.5 37t42.5 92q0 71 -83 96l-140 42q-71 21 -108.5 66.5t-37.5 109.5q0 101 70 158t195 57q94 0 185 -34l5 -12q-14 -45 -14 -142h-41l-6 82q-56 55 -136 55
q-60 0 -97 -32.5t-37 -84.5q0 -38 25 -62t81 -39l114 -30q151 -40 151 -176zM479 738h-62l-121 81l-122 -81h-59l131 143h101z" />
    <glyph glyph-name="scircumflex" unicode="&#x15d;" horiz-adv-x="444" 
d="M405 155q0 -77 -58 -124.5t-153 -47.5q-74 0 -155 28l7 141h39l5 -69q44 -52 112 -52q43 0 67.5 21t24.5 56q0 26 -14 40.5t-49 22.5l-86 21q-106 26 -106 125q0 75 53.5 114.5t154.5 39.5q70 0 123 -23l-8 -122h-36l-10 58q-2 15 -29 27t-58 12q-41 0 -64.5 -17.5
t-23.5 -47.5q0 -24 12.5 -36.5t42.5 -19.5l82 -18q68 -15 97.5 -45t29.5 -84zM389 512h-57l-112 98l-113 -98h-55l121 175h93z" />
    <glyph glyph-name="Scedilla" unicode="&#x15e;" horiz-adv-x="611" 
d="M559 220q0 -99 -66 -161.5t-180 -73.5l-25 -56q24 6 46 6q35 0 55.5 -19.5t20.5 -53.5q0 -40 -36 -63.5t-97 -23.5q-41 0 -94 18l16 37q44 -9 67 -9q50 0 50 37q0 35 -37 35q-8 0 -37 -4l-10 8l39 86h-6q-105 0 -208 46q15 78 15 173h40l7 -88q24 -35 68.5 -56t95.5 -21
q65 0 107.5 37t42.5 92q0 71 -83 96l-140 42q-71 21 -108.5 66.5t-37.5 109.5q0 101 70 158t195 57q94 0 185 -34l5 -12q-14 -45 -14 -142h-41l-6 82q-56 55 -136 55q-60 0 -97 -32.5t-37 -84.5q0 -38 25 -62t81 -39l114 -30q151 -40 151 -176z" />
    <glyph glyph-name="scedilla" unicode="&#x15f;" horiz-adv-x="444" 
d="M405 155q0 -66 -43.5 -111t-118.5 -57l-25 -58q24 6 46 6q35 0 55.5 -19.5t20.5 -53.5q0 -40 -36 -63.5t-97 -23.5q-41 0 -94 18l16 37q44 -9 67 -9q50 0 50 37q0 35 -37 35q-8 0 -37 -4l-10 8l38 86h-6q-74 0 -155 28l7 141h39l5 -69q44 -52 112 -52q43 0 67.5 21
t24.5 56q0 26 -14 40.5t-49 22.5l-86 21q-106 26 -106 125q0 75 53.5 114.5t154.5 39.5q70 0 123 -23l-8 -122h-36l-10 58q-2 15 -29 27t-58 12q-41 0 -64.5 -17.5t-23.5 -47.5q0 -24 12.5 -36.5t42.5 -19.5l82 -18q68 -15 97.5 -45t29.5 -84z" />
    <glyph glyph-name="Scaron" unicode="&#x160;" horiz-adv-x="611" 
d="M559 220q0 -109 -80 -173t-214 -64q-105 0 -208 46q15 78 15 173h40l7 -88q24 -35 68.5 -56t95.5 -21q65 0 107.5 37t42.5 92q0 71 -83 96l-140 42q-71 21 -108.5 66.5t-37.5 109.5q0 101 70 158t195 57q94 0 185 -34l5 -12q-14 -45 -14 -142h-41l-6 82q-56 55 -136 55
q-60 0 -97 -32.5t-37 -84.5q0 -38 25 -62t81 -39l114 -30q151 -40 151 -176zM479 881l-131 -143h-101l-132 143h62l121 -81l122 81h59z" />
    <glyph glyph-name="scaron" unicode="&#x161;" horiz-adv-x="444" 
d="M405 155q0 -77 -58 -124.5t-153 -47.5q-74 0 -155 28l7 141h39l5 -69q44 -52 112 -52q43 0 67.5 21t24.5 56q0 26 -14 40.5t-49 22.5l-86 21q-106 26 -106 125q0 75 53.5 114.5t154.5 39.5q70 0 123 -23l-8 -122h-36l-10 58q-2 15 -29 27t-58 12q-41 0 -64.5 -17.5
t-23.5 -47.5q0 -24 12.5 -36.5t42.5 -19.5l82 -18q68 -15 97.5 -45t29.5 -84zM389 687l-123 -175h-93l-121 175h55l113 -98l112 98h57z" />
    <glyph glyph-name="Tcedilla" unicode="&#x162;" horiz-adv-x="667" 
d="M650 676q-10 -63 -13 -159h-40l-5 69l-9 24q-12 9 -62 9h-117v-484q0 -67 6.5 -79.5t41.5 -15.5l37 -3v-40l-130 3l-31 -71q24 6 46 6q35 0 55.5 -19.5t20.5 -53.5q0 -40 -36 -63.5t-97 -23.5q-41 0 -94 18l16 37q44 -9 67 -9q50 0 50 37q0 35 -37 35q-8 0 -37 -4l-10 8
l46 103l-140 -3v40l37 3q35 3 41.5 15.5t6.5 79.5v484h-117q-57 0 -63 -10q-8 -13 -8 -23l-5 -69h-40q-4 106 -13 159l6 5l311 -3l310 3z" />
    <glyph glyph-name="tcedilla" unicode="&#x163;" 
d="M324 60l-49 -59q-12 -15 -53 -18l-24 -54q24 6 46 6q35 0 55.5 -19.5t20.5 -53.5q0 -40 -36 -63.5t-97 -23.5q-41 0 -94 18l16 37q44 -9 67 -9q50 0 50 37q0 35 -37 35q-8 0 -37 -4l-10 8l39 88q-49 6 -72 36t-23 89v259l-64 -4v22l66 43v60q0 21 -4 92q78 29 122 50
l14 -10q-12 -67 -12 -136v-58l114 6l-8 -65h-106v-238q0 -37 13.5 -51t48.5 -14q19 0 46 13z" />
    <glyph glyph-name="Tcaron" unicode="&#x164;" horiz-adv-x="667" 
d="M650 676q-10 -63 -13 -159h-40l-5 69q-3 9 -5.5 14.5t-6.5 9.5t-6.5 6t-9 2.5t-10 0.5h-15h-18.5h-117v-484q0 -67 6.5 -79.5t41.5 -15.5l37 -3v-40q-78 3 -156 3q-77 0 -155 -3v40l37 3q35 3 41.5 15.5t6.5 79.5v484h-117q-3 0 -15.5 0.5t-16.5 0t-13.5 -2t-13 -5
t-7.5 -10t-5 -16.5l-5 -69h-40q-4 106 -13 159l6 5q156 -3 311 -3q156 0 310 3zM516 881l-131 -143h-101l-132 143h62l121 -81l122 81h59z" />
    <glyph glyph-name="tcaron" unicode="&#x165;" 
d="M324 60l-49 -59q-15 -18 -65 -18q-65 0 -94.5 30t-29.5 97v259l-64 -4v22l66 43v60q0 21 -4 92q78 29 122 50l14 -10q-12 -67 -12 -136v-58q57 0 114 6l-8 -65h-106v-238q0 -37 13.5 -51t48.5 -14q19 0 46 13zM401 658q-20 -47 -93 -159l-53 -22l-12 13q5 10 8.5 19.5
l7 19t5.5 15.5t4.5 16.5t3.5 14.5t3 16t2.5 15.5l2.5 17.5t3 18q62 8 107 27z" />
    <glyph glyph-name="Utilde" unicode="&#x168;" horiz-adv-x="778" 
d="M760 644l-37 -3q-34 -3 -41 -17.5t-7 -80.5v-292q0 -136 -70 -202t-214 -66q-129 0 -204.5 52.5t-75.5 141.5v366q0 66 -7 80.5t-41 17.5l-37 3v37q78 -3 155 -3q78 0 156 3v-37l-37 -3q-34 -3 -41 -17.5t-7 -80.5v-248q0 -78 8 -118.5t28 -64.5q40 -47 140 -47
q99 0 141 43q26 26 36.5 70.5t10.5 123.5v241q0 66 -7 80.5t-41 17.5l-37 3v37q57 -3 115 -3q57 0 114 3v-37zM617 872q-18 -65 -46.5 -95.5t-71.5 -30.5q-31 0 -84 25q-47 23 -77 23q-31 0 -46 -47h-40q6 55 38.5 90t77.5 35q29 0 80 -24t75 -24q18 0 27.5 9.5t23.5 38.5
h43z" />
    <glyph glyph-name="utilde" unicode="&#x169;" horiz-adv-x="611" 
d="M583 -3q-51 3 -101 3q-47 0 -95 -3l5 83l-76 -74q-23 -23 -69 -23q-73 0 -112 40.5t-39 116.5v179q0 44 -4.5 56.5t-21.5 13.5l-45 3v36q75 10 113 21l70 22l10 -6v-261q0 -72 17.5 -101.5t60.5 -29.5q40 0 68 26.5t28 63.5v156q0 44 -4.5 56.5t-21.5 13.5l-45 3v36
q76 10 113 21l70 22l10 -6v-365q0 -41 6 -52t30 -12l33 -2v-37zM487 662q-18 -65 -46.5 -95.5t-71.5 -30.5q-31 0 -84 25q-47 23 -77 23q-31 0 -46 -47h-40q6 55 38.5 90t77.5 35q29 0 80 -24t75 -24q18 0 27.5 9.5t23.5 38.5h43z" />
    <glyph glyph-name="Umacron" unicode="&#x16a;" horiz-adv-x="778" 
d="M760 644l-37 -3q-34 -3 -41 -17.5t-7 -80.5v-292q0 -136 -70 -202t-214 -66q-129 0 -204.5 52.5t-75.5 141.5v366q0 66 -7 80.5t-41 17.5l-37 3v37q78 -3 155 -3q78 0 156 3v-37l-37 -3q-34 -3 -41 -17.5t-7 -80.5v-248q0 -78 8 -118.5t28 -64.5q40 -47 140 -47
q99 0 141 43q26 26 36.5 70.5t10.5 123.5v241q0 66 -7 80.5t-41 17.5l-37 3v37q57 -3 115 -3q57 0 114 3v-37zM600 774h-331v71h331v-71z" />
    <glyph glyph-name="umacron" unicode="&#x16b;" horiz-adv-x="611" 
d="M583 -3q-51 3 -101 3q-47 0 -95 -3l5 83l-76 -74q-23 -23 -69 -23q-73 0 -112 40.5t-39 116.5v179q0 44 -4.5 56.5t-21.5 13.5l-45 3v36q75 10 113 21l70 22l10 -6v-261q0 -72 17.5 -101.5t60.5 -29.5q40 0 68 26.5t28 63.5v156q0 44 -4.5 56.5t-21.5 13.5l-45 3v36
q76 10 113 21l70 22l10 -6v-365q0 -41 6 -52t30 -12l33 -2v-37zM470 564h-331v71h331v-71z" />
    <glyph glyph-name="Ubreve" unicode="&#x16c;" horiz-adv-x="778" 
d="M760 644l-37 -3q-34 -3 -41 -17.5t-7 -80.5v-292q0 -136 -70 -202t-214 -66q-129 0 -204.5 52.5t-75.5 141.5v366q0 66 -7 80.5t-41 17.5l-37 3v37q78 -3 155 -3q78 0 156 3v-37l-37 -3q-34 -3 -41 -17.5t-7 -80.5v-248q0 -78 8 -118.5t28 -64.5q40 -47 140 -47
q99 0 141 43q26 26 36.5 70.5t10.5 123.5v241q0 66 -7 80.5t-41 17.5l-37 3v37q57 -3 115 -3q57 0 114 3v-37zM598 876q-16 -133 -164 -133q-75 0 -117.5 33.5t-46.5 99.5h48q16 -70 112 -70q49 0 84.5 21.5t35.5 46.5v2h48z" />
    <glyph glyph-name="ubreve" unicode="&#x16d;" horiz-adv-x="611" 
d="M583 -3q-51 3 -101 3q-47 0 -95 -3l5 83l-76 -74q-23 -23 -69 -23q-73 0 -112 40.5t-39 116.5v179q0 44 -4.5 56.5t-21.5 13.5l-45 3v36q75 10 113 21l70 22l10 -6v-261q0 -72 17.5 -101.5t60.5 -29.5q40 0 68 26.5t28 63.5v156q0 44 -4.5 56.5t-21.5 13.5l-45 3v36
q76 10 113 21l70 22l10 -6v-365q0 -41 6 -52t30 -12l33 -2v-37zM456 681q-6 -67 -26 -99q-40 -64 -125 -64q-94 0 -133 74q-16 33 -19 89h44q16 -87 104 -87q55 0 87 36q24 28 24 49v2h44z" />
    <glyph glyph-name="Uring" unicode="&#x16e;" horiz-adv-x="778" 
d="M760 644l-37 -3q-34 -3 -41 -17.5t-7 -80.5v-292q0 -136 -70 -202t-214 -66q-129 0 -204.5 52.5t-75.5 141.5v366q0 66 -7 80.5t-41 17.5l-37 3v37q78 -3 155 -3q78 0 156 3v-37l-37 -3q-34 -3 -41 -17.5t-7 -80.5v-248q0 -78 8 -118.5t28 -64.5q40 -47 140 -47
q99 0 141 43q26 26 36.5 70.5t10.5 123.5v241q0 66 -7 80.5t-41 17.5l-37 3v37q57 -3 115 -3q57 0 114 3v-37zM535 826q0 -41 -29.5 -70.5t-70.5 -29.5t-70.5 29.5t-29.5 71.5q0 41 29.5 70t72.5 29q40 0 69 -29.5t29 -70.5zM485 826q0 20 -14.5 35t-34.5 15
q-22 0 -36.5 -14.5t-14.5 -35.5t14.5 -35.5t35.5 -14.5t35.5 14.5t14.5 35.5z" />
    <glyph glyph-name="uring" unicode="&#x16f;" horiz-adv-x="611" 
d="M583 -3q-51 3 -101 3q-47 0 -95 -3l5 83l-76 -74q-23 -23 -69 -23q-73 0 -112 40.5t-39 116.5v179q0 44 -4.5 56.5t-21.5 13.5l-45 3v36q75 10 113 21l70 22l10 -6v-261q0 -72 17.5 -101.5t60.5 -29.5q40 0 68 26.5t28 63.5v156q0 44 -4.5 56.5t-21.5 13.5l-45 3v36
q76 10 113 21l70 22l10 -6v-365q0 -41 6 -52t30 -12l33 -2v-37zM405 599q0 -41 -29.5 -70.5t-70.5 -29.5t-70.5 29.5t-29.5 71.5q0 41 29.5 70t72.5 29q40 0 69 -29.5t29 -70.5zM355 599q0 20 -14.5 35t-34.5 15q-22 0 -36.5 -14.5t-14.5 -35.5t14.5 -35.5t35.5 -14.5
t35.5 14.5t14.5 35.5z" />
    <glyph glyph-name="Uhungarumlaut" unicode="&#x170;" horiz-adv-x="778" 
d="M760 644l-37 -3q-34 -3 -41 -17.5t-7 -80.5v-292q0 -136 -70 -202t-214 -66q-129 0 -204.5 52.5t-75.5 141.5v366q0 66 -7 80.5t-41 17.5l-37 3v37q78 -3 155 -3q78 0 156 3v-37l-37 -3q-34 -3 -41 -17.5t-7 -80.5v-248q0 -78 8 -118.5t28 -64.5q40 -47 140 -47
q99 0 141 43q26 26 36.5 70.5t10.5 123.5v241q0 66 -7 80.5t-41 17.5l-37 3v37q57 -3 115 -3q57 0 114 3v-37zM745 848q0 -13 -10 -22.5t-37 -21.5l-150 -71h-60l139 121q36 30 71 30q21 0 34 -10t13 -26zM561 848q0 -13 -10 -22.5t-37 -21.5l-150 -71h-60l139 121
q36 30 71 30q21 0 34 -10t13 -26z" />
    <glyph glyph-name="uhungarumlaut" unicode="&#x171;" horiz-adv-x="611" 
d="M583 -3q-51 3 -101 3q-47 0 -95 -3l5 83l-76 -74q-23 -23 -69 -23q-73 0 -112 40.5t-39 116.5v179q0 44 -4.5 56.5t-21.5 13.5l-45 3v36q75 10 113 21l70 22l10 -6v-261q0 -72 17.5 -101.5t60.5 -29.5q40 0 68 26.5t28 63.5v156q0 44 -4.5 56.5t-21.5 13.5l-45 3v36
q76 10 113 21l70 22l10 -6v-365q0 -41 6 -52t30 -12l33 -2v-37zM598 645q0 -25 -19 -37l-165 -101h-54l128 148q19 22 32 29.5t31 7.5q21 0 34 -13t13 -34zM410 646q0 -26 -19 -38l-165 -101h-54l128 148q19 22 32 29.5t31 7.5q21 0 34 -13t13 -33z" />
    <glyph glyph-name="Uogonek" unicode="&#x172;" horiz-adv-x="778" 
d="M760 644l-37 -3q-34 -3 -41 -17.5t-7 -80.5v-292q0 -215 -181 -258q-75 -15 -93 -41q-27 -39 -27 -76q0 -60 42 -60q52 0 61 23l12 30l30 -7v-59l-53 -37q-23 -16 -84 -16q-41 0 -63.5 29.5t-22.5 71.5q0 78 70 133q-118 5 -186.5 56.5t-68.5 136.5v366q0 66 -7 80.5
t-41 17.5l-37 3v37q78 -3 155 -3q78 0 156 3v-37l-37 -3q-34 -3 -41 -17.5t-7 -80.5v-248q0 -78 8 -118.5t28 -64.5q40 -47 140 -47q99 0 141 43q26 26 36.5 70.5t10.5 123.5v241q0 66 -7 80.5t-41 17.5l-37 3v37q57 -3 115 -3q57 0 114 3v-37z" />
    <glyph glyph-name="uogonek" unicode="&#x173;" horiz-adv-x="611" 
d="M583 -197l-53 -37q-23 -16 -84 -16q-41 0 -63.5 29.5t-22.5 71.5q0 90 94 149l-67 -3l5 83l-76 -74q-23 -23 -69 -23q-73 0 -112 40.5t-39 116.5v179q0 44 -4.5 56.5t-21.5 13.5l-45 3v36q75 10 113 21l70 22l10 -6v-261q0 -72 17.5 -101.5t60.5 -29.5q40 0 68 26.5
t28 63.5v156q0 44 -4.5 56.5t-21.5 13.5l-45 3v36q76 10 113 21l70 22l10 -6v-365q0 -41 6 -52t30 -12l33 -2v-37l-40 2q-44 1 -78 -47q-27 -39 -27 -76q0 -60 42 -60q52 0 61 23l12 30l30 -7v-59z" />
    <glyph glyph-name="Wcircumflex" unicode="&#x174;" horiz-adv-x="1000" 
d="M988 644l-33 -3q-24 -3 -43 -69l-122 -432l-33 -143h-73q-4 12 -17 48.5t-21 56.5l-149 375l-155 -355l-47 -125h-70l-139 602q-8 39 -37 42l-32 3v37q78 -3 156 -3q67 0 134 3v-37l-42 -3q-12 -1 -21 -8.5t-9 -16.5q0 -12 3 -26l82 -383l150 355q20 48 31 74.5t20 49.5
h45q32 -92 49 -133l137 -343l97 378q4 15 4 30q0 21 -35 23l-46 3v37q52 -3 106 -3t110 3v-37zM679 738h-62l-121 81l-122 -81h-59l131 143h101z" />
    <glyph glyph-name="wcircumflex" unicode="&#x175;" horiz-adv-x="833" 
d="M820 421l-34 -2q-19 -1 -36 -47l-92 -260q-12 -36 -21 -64.5t-11 -39.5l-3 -11h-81l-132 307q-58 -114 -79 -161t-58 -146h-79l-107 384q-6 20 -15 28.5t-26 9.5l-33 2v38q68 -3 136 -3q67 0 135 3v-38l-47 -2q-19 0 -19 -22q0 -11 2 -19l59 -227l57 125l87 195h50
l138 -317q27 73 39 112l36 113q3 12 3 19q0 19 -29 21l-42 2v38q51 -3 101 -3t101 3v-38zM578 512h-57l-112 98l-113 -98h-55l121 175h93z" />
    <glyph glyph-name="Ycircumflex" unicode="&#x176;" horiz-adv-x="667" 
d="M660 659l-176 -261q-26 -39 -53 -100v-163q0 -67 6.5 -79.5t41.5 -15.5l37 -3v-40q-78 3 -156 3q-77 0 -155 -3v40l37 3q35 3 41.5 15.5t6.5 79.5v139q-23 51 -44 85l-101 163q-39 63 -64.5 81.5t-65.5 18.5v37l159 36q35 -20 59.5 -49.5t54.5 -86.5l107 -203l188 322h77
v-19zM543 738h-62l-121 81l-122 -81h-59l131 143h101z" />
    <glyph glyph-name="ycircumflex" unicode="&#x177;" horiz-adv-x="556" 
d="M546 421l-26 -5q-22 -5 -41 -47l-199 -463q-74 -172 -176 -172q-35 0 -73 17l18 95l11 4q33 -37 70 -37q26 0 50.5 24t41.5 67l23 56l-158 404q-21 54 -42 55l-35 2v38q66 -3 133 -3q66 0 132 3v-38l-35 -2q-26 -2 -26 -23q0 -8 17 -53l84 -218l101 252q4 10 4 22
q0 18 -27 20l-33 2v38q46 -3 93 -3t93 3v-38zM451 512h-57l-112 98l-113 -98h-55l121 175h93z" />
    <glyph glyph-name="Ydieresis" unicode="&#x178;" horiz-adv-x="667" 
d="M660 659l-176 -261q-26 -39 -53 -100v-163q0 -67 6.5 -79.5t41.5 -15.5l37 -3v-40q-78 3 -156 3q-77 0 -155 -3v40l37 3q35 3 41.5 15.5t6.5 79.5v139q-23 51 -44 85l-101 163q-39 63 -64.5 81.5t-65.5 18.5v37l159 36q35 -20 59.5 -49.5t54.5 -86.5l107 -203l188 322h77
v-19zM536 809q0 -28 -19.5 -47.5t-47.5 -19.5t-47.5 20t-19.5 48q0 27 20 46.5t48 19.5q27 0 46.5 -20t19.5 -47zM321 809q0 -28 -19.5 -47.5t-47.5 -19.5t-47.5 19.5t-19.5 47.5t20 47.5t48 19.5q27 0 46.5 -20t19.5 -47z" />
    <glyph glyph-name="Zacute" unicode="&#x179;" horiz-adv-x="667" 
d="M627 174q-14 -80 -16 -177q-143 3 -284 3q-151 0 -303 -3v38q59 74 104 139l306 446h-222q-53 0 -68 -7.5t-19 -38.5l-8 -55h-37v162q136 -3 272 -3t271 3v-35q-49 -60 -83 -110l-325 -479h276q74 0 81 39l15 78h40zM463 848q0 -13 -10 -22.5t-37 -21.5l-150 -71h-60
l139 121q36 30 71 30q21 0 34 -10t13 -26z" />
    <glyph glyph-name="zacute" unicode="&#x17a;" horiz-adv-x="500" 
d="M464 155q-12 -82 -12 -153l-5 -5q-137 3 -273 3q-78 0 -158 -3v33l104 136l170 238h-118q-42 0 -56.5 -11.5t-19.5 -47.5l-3 -25h-38l3 134l7 3q118 -3 236 -3q77 0 153 3v0v-1v-1v-1v-1v-1v-1v-1v-2v-1v-1v-1v-2v-1v-2v-1v-2v-1v-2v-2v-8l-268 -369h163q36 0 49.5 13
t20.5 56l5 31h40zM383 647q0 -16 -9.5 -28t-33.5 -27q-2 -1 -3 -2t-2.5 -1.5t-9.5 -5.5t-20.5 -13t-39.5 -25t-64 -39h-56l129 148q33 37 65 37q20 0 32 -12t12 -32z" />
    <glyph glyph-name="Zdotaccent" unicode="&#x17b;" horiz-adv-x="667" 
d="M627 174q-14 -80 -16 -177q-143 3 -284 3q-151 0 -303 -3v38q59 74 104 139l306 446h-222q-53 0 -68 -7.5t-19 -38.5l-8 -55h-37v162q136 -3 272 -3t271 3v-35q-49 -60 -83 -110l-325 -479h276q74 0 81 39l15 78h40zM386 809q0 -28 -19.5 -47.5t-47.5 -19.5t-47.5 20
t-19.5 48q0 27 20 46.5t48 19.5q27 0 46.5 -20t19.5 -47z" />
    <glyph glyph-name="zdotaccent" unicode="&#x17c;" horiz-adv-x="500" 
d="M464 155q-12 -82 -12 -153l-5 -5q-137 3 -273 3q-78 0 -158 -3v33l104 136l170 238h-118q-42 0 -56.5 -11.5t-19.5 -47.5l-3 -25h-38l3 134l7 3q118 -3 236 -3q77 0 153 3v0v-1v-1v-1v-1v-1v-1v-1v-2v-1v-1v-1v-2v-1v-2v-1v-2v-1v-2v-2v-8l-268 -369h163q36 0 49.5 13
t20.5 56l5 31h40zM301 599q0 -28 -19.5 -47.5t-47.5 -19.5t-47.5 20t-19.5 48q0 27 20 46.5t48 19.5q27 0 46.5 -20t19.5 -47z" />
    <glyph glyph-name="Zcaron" unicode="&#x17d;" horiz-adv-x="667" 
d="M627 174q-14 -80 -16 -177q-143 3 -284 3q-151 0 -303 -3v38q59 74 104 139l306 446h-222q-53 0 -68 -7.5t-19 -38.5l-8 -55h-37v162q136 -3 272 -3t271 3v-35q-49 -60 -83 -110l-325 -479h276q74 0 81 39l15 78h40zM500 881l-131 -143h-101l-132 143h62l121 -81l122 81
h59z" />
    <glyph glyph-name="zcaron" unicode="&#x17e;" horiz-adv-x="500" 
d="M464 155q-12 -82 -12 -153l-5 -5q-137 3 -273 3q-78 0 -158 -3v33l104 136l170 238h-118q-42 0 -56.5 -11.5t-19.5 -47.5l-3 -25h-38l3 134l7 3q118 -3 236 -3q77 0 153 3v0v-1v-1v-1v-1v-1v-1v-1v-2v-1v-1v-1v-2v-1v-2v-1v-2v-1v-2v-2v-8l-268 -369h163q36 0 49.5 13
t20.5 56l5 31h40zM402 687l-123 -175h-93l-121 175h55l113 -98l112 98h57z" />
    <glyph glyph-name="longs" unicode="&#x17f;" horiz-adv-x="389" 
d="M381 617l-16 -7q-39 24 -67 24q-34 0 -46.5 -19.5t-12.5 -72.5v-442q0 -32 3 -46q5 -16 47 -18l45 -2v-37q-79 3 -160 3q-70 0 -140 -3v37l41 2q28 2 35 12.5t7 51.5v272l-79 -5v24q47 23 79 45v43q0 60 9.5 83.5t45.5 53.5l74 62q50 42 93 42q17 0 42 -6v-97z" />
    <glyph glyph-name="Ereversed" unicode="&#x18e;" horiz-adv-x="611" 
d="M577 644l-37 -3q-34 -3 -41 -17.5t-7 -80.5v-448q0 -46 20 -57l32 -18v-23q-62 3 -123 3q-37 0 -113 -1.5t-113 -1.5q-83 0 -140 3l-5 8l-11 158h39l23 -94q2 -6 34.5 -11.5t66.5 -5.5l149 3v267q-42 3 -67 3h-66q-53 0 -57 -37l-6 -50h-40q3 54 3 108q0 53 -3 107h40
l6 -57q2 -12 14 -16.5t43 -4.5h66q47 0 67 2v240l-145 3q-96 0 -98 -19l-8 -75h-36l-14 142l6 7q56 3 95 3q40 0 118.5 -1.5t117.5 -1.5q95 0 190 3v-37z" />
    <glyph glyph-name="florin" unicode="&#x192;" horiz-adv-x="500" 
d="M490 703l-7 -83h-10q-28 20 -49 20q-50 0 -61 -70l-25 -158h114l-13 -44h-110l-52 -310q-22 -130 -95.5 -212.5t-170.5 -87.5q7 38 8 88l14 8q15 -25 49 -25q18 0 33 16.5t19 40.5l73 482h-112l13 44h105q27 117 76 180q82 108 201 111z" />
    <glyph glyph-name="Ohorn" unicode="&#x1a0;" horiz-adv-x="833" 
d="M846 742q-13 -39 -47 -87.5t-81 -78.5q69 -89 69 -230q0 -171 -100.5 -267t-279.5 -96q-172 0 -266 91t-94 258q0 172 101 267.5t282 95.5q158 0 250 -80q37 26 37 98v16q90 16 117 22zM637 325q0 179 -86 263q-53 51 -130 51q-95 0 -154 -57q-70 -70 -70 -227
q0 -181 85 -264q52 -52 132 -52q110 0 166.5 72.5t56.5 213.5z" />
    <glyph glyph-name="ohorn" unicode="&#x1a1;" horiz-adv-x="598" 
d="M623 532q-14 -41 -48.5 -90t-83.5 -79q26 -52 26 -127q0 -121 -65 -187t-185 -66q-109 0 -168 63t-59 178q0 119 64 183t183 64q114 0 173 -64q34 27 34 96v16q90 16 117 22zM381 205q0 218 -106 218q-52 0 -75.5 -42t-23.5 -133q0 -217 109 -217q51 0 73.5 41t22.5 133z
" />
    <glyph glyph-name="Uhorn" unicode="&#x1af;" horiz-adv-x="819" 
d="M844 742q-9 -29 -29 -62.5t-58.5 -71t-81.5 -53.5v-304q0 -136 -70.5 -202t-213.5 -66q-129 0 -204.5 52.5t-75.5 141.5v366q0 66 -7 80.5t-41 17.5l-37 3v37q78 -3 155 -3q78 0 156 3v-37l-37 -3q-34 -3 -41 -17.5t-7 -80.5v-248q0 -77 8 -117t27 -64q40 -49 141 -49
q99 0 141 43q26 26 36.5 70.5t10.5 123.5v241q0 66 -7 80.5t-41 17.5l-37 3v37q57 -3 115 -3q14 0 29 3v-69q40 27 40 101v16q90 16 117 22z" />
    <glyph glyph-name="uhorn" unicode="&#x1b0;" horiz-adv-x="649" 
d="M678 532q-16 -48 -59.5 -104t-104.5 -81v-247q0 -40 6.5 -51t29.5 -13l33 -2v-37q-21 1 -47 1q-28 2 -55 2l-94 -3l5 83l-76 -74q-23 -23 -70 -23q-72 0 -111 40.5t-39 116.5v179q0 44 -4.5 56.5t-21.5 13.5l-45 3v36q75 10 113 21l70 22l10 -6v-261q0 -72 17.5 -101.5
t60.5 -29.5q40 0 68 26.5t28 63.5v156q0 44 -4.5 56.5t-21.5 13.5l-45 3v36q76 10 113 21l70 22l10 -6v-59q35 26 35 97v16q90 16 117 22z" />
    <glyph glyph-name="Acaron" unicode="&#x1cd;" horiz-adv-x="778" 
d="M757 -3q-79 3 -158 3q-75 0 -152 -3v37l53 3q18 1 19.5 22t-5.5 33l-45 114h-251l-42 -112q-8 -16 -2.5 -36t26.5 -21l50 -3v-37q-57 3 -113 3t-113 -3v37l30 3q33 3 56 60l181 438l57 151h71l259 -605q17 -39 55 -44l24 -3v-37zM446 262l-104 254l-100 -254h204z
M566 881l-131 -143h-101l-132 143h62l121 -81l122 81h59z" />
    <glyph glyph-name="acaron" unicode="&#x1ce;" horiz-adv-x="500" 
d="M478 -3q-43 3 -88 3q-46 0 -91 -3l-5 8l5 62l-93 -72q-15 -12 -49 -12q-57 0 -87 31.5t-30 92.5q0 64 38 97t133 53l88 18q-2 61 -27 89.5t-75 28.5q-20 0 -38 -4.5t-20 -9.5l-22 -50l-30 7v69l53 32q56 34 120 34q76 0 118 -37.5t42 -103.5v-232q0 -35 5.5 -47.5
t22.5 -13.5l30 -3v-37zM299 115v118l-45 -12q-53 -14 -72.5 -32.5t-19.5 -55.5q0 -29 13.5 -46t37.5 -17q22 0 46.5 12.5t39.5 32.5zM428 687l-123 -175h-93l-121 175h55l113 -98l112 98h57z" />
    <glyph glyph-name="Icaron" unicode="&#x1cf;" horiz-adv-x="389" 
d="M350 -3q-78 3 -156 3q-77 0 -155 -3v40l37 3q35 3 41.5 15.5t6.5 79.5v408q0 67 -6.5 79.5t-41.5 15.5l-37 3v40q78 -3 155 -3q78 0 156 3v-40l-37 -3q-35 -3 -41.5 -15.5t-6.5 -79.5v-408q0 -67 6.5 -79.5t41.5 -15.5l37 -3v-40zM377 881l-131 -143h-101l-132 143h62
l121 -81l122 81h59z" />
    <glyph glyph-name="icaron" unicode="&#x1d0;" 
d="M298 -3q-68 3 -135 3q-65 0 -129 -3v37l35 2q23 2 29.5 13t6.5 51v219q0 44 -4.5 56.5t-21.5 13.5l-45 3v36l15 2q56 8 98 19l70 22l10 -6v-365q0 -40 6.5 -51t29.5 -13l35 -2v-37zM334 687l-123 -175h-93l-121 175h55l113 -98l112 98h57z" />
    <glyph glyph-name="Ocaron" unicode="&#x1d1;" horiz-adv-x="833" 
d="M787 346q0 -171 -100.5 -267t-279.5 -96q-172 0 -266 91t-94 258q0 172 101 267.5t282 95.5q169 0 263 -92t94 -257zM637 325q0 179 -86 263q-53 51 -130 51q-95 0 -154 -57q-70 -70 -70 -227q0 -181 85 -264q52 -52 132 -52q110 0 166.5 72.5t56.5 213.5zM601 881
l-131 -143h-101l-132 143h62l121 -81l122 81h59z" />
    <glyph glyph-name="ocaron" unicode="&#x1d2;" horiz-adv-x="556" 
d="M517 236q0 -121 -65 -187t-185 -66q-109 0 -168 63t-59 178q0 119 64 183t183 64q111 0 170.5 -60.5t59.5 -174.5zM381 205q0 218 -106 218q-52 0 -75.5 -42t-23.5 -133q0 -217 109 -217q51 0 73.5 41t22.5 133zM445 687l-123 -175h-93l-121 175h55l113 -98l112 98h57z
" />
    <glyph glyph-name="Ucaron" unicode="&#x1d3;" horiz-adv-x="778" 
d="M760 644l-37 -3q-34 -3 -41 -17.5t-7 -80.5v-292q0 -136 -70 -202t-214 -66q-129 0 -204.5 52.5t-75.5 141.5v366q0 66 -7 80.5t-41 17.5l-37 3v37q78 -3 155 -3q78 0 156 3v-37l-37 -3q-34 -3 -41 -17.5t-7 -80.5v-248q0 -78 8 -118.5t28 -64.5q40 -47 140 -47
q99 0 141 43q26 26 36.5 70.5t10.5 123.5v241q0 66 -7 80.5t-41 17.5l-37 3v37q57 -3 115 -3q57 0 114 3v-37zM616 881l-131 -143h-101l-132 143h62l121 -81l122 81h59z" />
    <glyph glyph-name="ucaron" unicode="&#x1d4;" horiz-adv-x="611" 
d="M583 -3q-51 3 -101 3q-47 0 -95 -3l5 83l-76 -74q-23 -23 -69 -23q-73 0 -112 40.5t-39 116.5v179q0 44 -4.5 56.5t-21.5 13.5l-45 3v36q75 10 113 21l70 22l10 -6v-261q0 -72 17.5 -101.5t60.5 -29.5q40 0 68 26.5t28 63.5v156q0 44 -4.5 56.5t-21.5 13.5l-45 3v36
q76 10 113 21l70 22l10 -6v-365q0 -41 6 -52t30 -12l33 -2v-37zM473 687l-123 -175h-93l-121 175h55l113 -98l112 98h57z" />
    <glyph glyph-name="Udieresisacute" unicode="&#x1d7;" horiz-adv-x="778" 
d="M760 644l-37 -3q-34 -3 -41 -17.5t-7 -80.5v-292q0 -136 -70 -202t-214 -66q-129 0 -204.5 52.5t-75.5 141.5v366q0 66 -7 80.5t-41 17.5l-37 3v37q78 -3 155 -3q78 0 156 3v-37l-37 -3q-34 -3 -41 -17.5t-7 -80.5v-248q0 -78 8 -118.5t28 -64.5q40 -47 140 -47
q99 0 141 43q26 26 36.5 70.5t10.5 123.5v241q0 66 -7 80.5t-41 17.5l-37 3v37q57 -3 115 -3q57 0 114 3v-37zM608 809q0 -28 -19.5 -47.5t-47.5 -19.5t-47.5 20t-19.5 48q0 27 20 46.5t48 19.5q27 0 46.5 -20t19.5 -47zM393 809q0 -28 -19.5 -47.5t-47.5 -19.5t-47.5 19.5
t-19.5 47.5t20 47.5t48 19.5q27 0 46.5 -20t19.5 -47zM579 1043q0 -13 -10 -22.5t-37 -21.5l-150 -71h-60l139 121q36 30 71 30q21 0 34 -10t13 -26z" />
    <glyph glyph-name="udieresisacute" unicode="&#x1d8;" horiz-adv-x="611" 
d="M583 -3q-51 3 -101 3q-47 0 -95 -3l5 83l-76 -74q-23 -23 -69 -23q-73 0 -112 40.5t-39 116.5v179q0 44 -4.5 56.5t-21.5 13.5l-45 3v36q75 10 113 21l70 22l10 -6v-261q0 -72 17.5 -101.5t60.5 -29.5q40 0 68 26.5t28 63.5v156q0 44 -4.5 56.5t-21.5 13.5l-45 3v36
q76 10 113 21l70 22l10 -6v-365q0 -41 6 -52t30 -12l33 -2v-37zM479 599q0 -28 -19.5 -47.5t-47.5 -19.5t-47.5 20t-19.5 48q0 27 20 46.5t48 19.5q27 0 46.5 -20t19.5 -47zM264 599q0 -28 -19.5 -47.5t-47.5 -19.5t-47.5 19.5t-19.5 47.5t20 47.5t48 19.5q27 0 46.5 -20
t19.5 -47zM450 838q0 -13 -10 -22.5t-37 -21.5l-150 -71h-60l139 121q36 30 71 30q21 0 34 -10t13 -26z" />
    <glyph glyph-name="Udieresiscaron" unicode="&#x1d9;" horiz-adv-x="778" 
d="M760 644l-37 -3q-34 -3 -41 -17.5t-7 -80.5v-292q0 -136 -70 -202t-214 -66q-129 0 -204.5 52.5t-75.5 141.5v366q0 66 -7 80.5t-41 17.5l-37 3v37q78 -3 155 -3q78 0 156 3v-37l-37 -3q-34 -3 -41 -17.5t-7 -80.5v-248q0 -78 8 -118.5t28 -64.5q40 -47 140 -47
q99 0 141 43q26 26 36.5 70.5t10.5 123.5v241q0 66 -7 80.5t-41 17.5l-37 3v37q57 -3 115 -3q57 0 114 3v-37zM608 809q0 -28 -19.5 -47.5t-47.5 -19.5t-47.5 20t-19.5 48q0 27 20 46.5t48 19.5q27 0 46.5 -20t19.5 -47zM393 809q0 -28 -19.5 -47.5t-47.5 -19.5t-47.5 19.5
t-19.5 47.5t20 47.5t48 19.5q27 0 46.5 -20t19.5 -47zM615 1076l-131 -143h-101l-132 143h62l121 -81l122 81h59z" />
    <glyph glyph-name="udieresiscaron" unicode="&#x1da;" horiz-adv-x="611" 
d="M583 -3q-51 3 -101 3q-47 0 -95 -3l5 83l-76 -74q-23 -23 -69 -23q-73 0 -112 40.5t-39 116.5v179q0 44 -4.5 56.5t-21.5 13.5l-45 3v36q75 10 113 21l70 22l10 -6v-261q0 -72 17.5 -101.5t60.5 -29.5q40 0 68 26.5t28 63.5v156q0 44 -4.5 56.5t-21.5 13.5l-45 3v36
q76 10 113 21l70 22l10 -6v-365q0 -41 6 -52t30 -12l33 -2v-37zM479 599q0 -28 -19.5 -47.5t-47.5 -19.5t-47.5 20t-19.5 48q0 27 20 46.5t48 19.5q27 0 46.5 -20t19.5 -47zM264 599q0 -28 -19.5 -47.5t-47.5 -19.5t-47.5 19.5t-19.5 47.5t20 47.5t48 19.5q27 0 46.5 -20
t19.5 -47zM487 871l-131 -143h-101l-132 143h62l121 -81l122 81h59z" />
    <glyph glyph-name="Udieresisgrave" unicode="&#x1db;" horiz-adv-x="778" 
d="M760 644l-37 -3q-34 -3 -41 -17.5t-7 -80.5v-292q0 -136 -70 -202t-214 -66q-129 0 -204.5 52.5t-75.5 141.5v366q0 66 -7 80.5t-41 17.5l-37 3v37q78 -3 155 -3q78 0 156 3v-37l-37 -3q-34 -3 -41 -17.5t-7 -80.5v-248q0 -78 8 -118.5t28 -64.5q40 -47 140 -47
q99 0 141 43q26 26 36.5 70.5t10.5 123.5v241q0 66 -7 80.5t-41 17.5l-37 3v37q57 -3 115 -3q57 0 114 3v-37zM608 809q0 -28 -19.5 -47.5t-47.5 -19.5t-47.5 20t-19.5 48q0 27 20 46.5t48 19.5q27 0 46.5 -20t19.5 -47zM393 809q0 -28 -19.5 -47.5t-47.5 -19.5t-47.5 19.5
t-19.5 47.5t20 47.5t48 19.5q27 0 46.5 -20t19.5 -47zM545 928h-60l-150 71q-27 12 -37 21.5t-10 22.5q0 16 13 26t34 10q35 0 71 -30z" />
    <glyph glyph-name="udieresisgrave" unicode="&#x1dc;" horiz-adv-x="611" 
d="M583 -3q-51 3 -101 3q-47 0 -95 -3l5 83l-76 -74q-23 -23 -69 -23q-73 0 -112 40.5t-39 116.5v179q0 44 -4.5 56.5t-21.5 13.5l-45 3v36q75 10 113 21l70 22l10 -6v-261q0 -72 17.5 -101.5t60.5 -29.5q40 0 68 26.5t28 63.5v156q0 44 -4.5 56.5t-21.5 13.5l-45 3v36
q76 10 113 21l70 22l10 -6v-365q0 -41 6 -52t30 -12l33 -2v-37zM479 599q0 -28 -19.5 -47.5t-47.5 -19.5t-47.5 20t-19.5 48q0 27 20 46.5t48 19.5q27 0 46.5 -20t19.5 -47zM264 599q0 -28 -19.5 -47.5t-47.5 -19.5t-47.5 19.5t-19.5 47.5t20 47.5t48 19.5q27 0 46.5 -20
t19.5 -47zM417 723h-60l-150 71q-27 12 -37 21.5t-10 22.5q0 16 13 26t34 10q35 0 71 -30z" />
    <glyph glyph-name="eturned" unicode="&#x1dd;" horiz-adv-x="500" 
d="M461 228q0 -138 -95 -194l-47 -28q-39 -23 -87 -23q-87 0 -138.5 48t-51.5 128v52q81 20 158 20h131q-3 63 -25 100q-19 31 -52.5 50t-71.5 19q-55 0 -118 -35l-12 15l22 48q49 25 82 34t76 9q112 0 170.5 -62t58.5 -181zM337 178l-32 1q-15 1 -25 1t-12.5 0.5t-4 0.5h-3
h-7.5l-84 -3q0 -74 20 -106.5t63 -32.5q44 0 64.5 33t20.5 106z" />
    <glyph glyph-name="Gcaron" unicode="&#x1e6;" horiz-adv-x="833" 
d="M776 242q-28 -6 -34.5 -12t-6.5 -24v-163q-90 -34 -155.5 -47t-141.5 -13q-178 0 -284.5 99t-106.5 264q0 162 111 255.5t303 93.5q135 0 261 -47l6 -11q-11 -45 -23 -153h-39l-5 86q-72 69 -205 69q-122 0 -190.5 -74.5t-68.5 -206.5q0 -143 74 -231t195 -88
q60 0 127 25v132q0 19 -12.5 27t-44.5 10l-53 2v41q72 -3 143 -3q75 0 150 3v-34zM592 881l-131 -143h-101l-132 143h62l121 -81l122 81h59z" />
    <glyph glyph-name="gcaron" unicode="&#x1e7;" horiz-adv-x="556" 
d="M535 -42q0 -100 -81 -162t-212 -62q-99 0 -157.5 38.5t-58.5 103.5q0 46 26 62l81 48q-37 10 -52.5 25t-15.5 42q0 36 17 48l71 54q-45 15 -69 41q-37 40 -37 96q0 79 60.5 129t156.5 50q93 0 152 -43q16 -1 36 -1q31 0 82 5l-5 -64l-77 4q5 -24 5 -47q0 -72 -44 -116
q-64 -64 -174 -64q-4 0 -40 2q-29 -17 -29 -39q0 -32 47 -30l146 4h24q148 0 148 -124zM334 299q0 122 -82 122t-82 -110q0 -56 22.5 -88t61.5 -32q80 0 80 108zM424 -95q0 48 -30.5 64t-121.5 16q-79 0 -101 -11q-23 -11 -37 -34.5t-14 -51.5q0 -47 40.5 -75.5t107.5 -28.5
t111.5 34.5t44.5 86.5zM432 687l-123 -175h-93l-121 175h55l113 -98l112 98h57z" />
    <glyph glyph-name="Oogonek" unicode="&#x1ea;" horiz-adv-x="833" 
d="M787 346q0 -145 -73 -236.5t-206 -117.5q-70 -12 -90 -40q-27 -39 -27 -76q0 -60 42 -60q53 0 61 23l12 30l30 -7v-59l-53 -37q-23 -16 -84 -16q-41 0 -63.5 29.5t-22.5 71.5q0 79 70 132q-161 7 -248.5 98t-87.5 251q0 172 101 267.5t282 95.5q169 0 263 -92t94 -257z
M637 325q0 179 -86 263q-53 51 -130 51q-95 0 -154 -57q-70 -70 -70 -227q0 -181 85 -264q52 -52 132 -52q110 0 166.5 72.5t56.5 213.5z" />
    <glyph glyph-name="oogonek" unicode="&#x1eb;" horiz-adv-x="556" 
d="M517 236q0 -97 -42 -159t-121 -83q-60 -16 -77 -42q-27 -39 -27 -76q0 -60 42 -60q52 0 61 23l12 30l30 -7v-59l-53 -37q-23 -16 -84 -16q-41 0 -63.5 29.5t-22.5 71.5q0 80 70 133q-97 7 -149.5 69t-52.5 171q0 119 64 183t183 64q111 0 170.5 -60.5t59.5 -174.5z
M381 205q0 218 -106 218q-52 0 -75.5 -42t-23.5 -133q0 -217 109 -217q51 0 73.5 41t22.5 133z" />
    <glyph glyph-name="jcaron" unicode="&#x1f0;" 
d="M227 98q0 -115 -11.5 -176t-41.5 -105q-56 -83 -130 -83q-17 0 -31 2l-10 35l4 6h23q40 0 57.5 43t17.5 142v357q0 44 -4.5 56.5t-21.5 13.5l-45 3v36l18 2q51 5 95 19l70 22l10 -6v-367zM334 687l-123 -175h-93l-121 175h55l113 -98l112 98h57z" />
    <glyph glyph-name="Gacute" unicode="&#x1f4;" horiz-adv-x="833" 
d="M776 242q-28 -6 -34.5 -12t-6.5 -24v-163q-90 -34 -155.5 -47t-141.5 -13q-178 0 -284.5 99t-106.5 264q0 162 111 255.5t303 93.5q135 0 261 -47l6 -11q-11 -45 -23 -153h-39l-5 86q-72 69 -205 69q-122 0 -190.5 -74.5t-68.5 -206.5q0 -143 74 -231t195 -88
q60 0 127 25v132q0 19 -12.5 27t-44.5 10l-53 2v41q72 -3 143 -3q75 0 150 3v-34zM555 848q0 -13 -10 -22.5t-37 -21.5l-150 -71h-60l139 121q36 30 71 30q21 0 34 -10t13 -26z" />
    <glyph glyph-name="gacute" unicode="&#x1f5;" horiz-adv-x="556" 
d="M535 -42q0 -100 -81 -162t-212 -62q-99 0 -157.5 38.5t-58.5 103.5q0 46 26 62l81 48q-37 10 -52.5 25t-15.5 42q0 36 17 48l71 54q-45 15 -69 41q-37 40 -37 96q0 79 60.5 129t156.5 50q93 0 152 -43q16 -1 36 -1q31 0 82 5l-5 -64l-77 4q5 -24 5 -47q0 -72 -44 -116
q-64 -64 -174 -64q-4 0 -40 2q-29 -17 -29 -39q0 -32 47 -30l146 4h24q148 0 148 -124zM334 299q0 122 -82 122t-82 -110q0 -56 22.5 -88t61.5 -32q80 0 80 108zM424 -95q0 48 -30.5 64t-121.5 16q-79 0 -101 -11q-23 -11 -37 -34.5t-14 -51.5q0 -47 40.5 -75.5t107.5 -28.5
t111.5 34.5t44.5 86.5zM413 647q0 -16 -9.5 -28t-33.5 -27q-2 -1 -3 -2t-2.5 -1.5t-9.5 -5.5t-20.5 -13t-39.5 -25t-64 -39h-56l129 148q33 37 65 37q20 0 32 -12t12 -32z" />
    <glyph glyph-name="Aringacute" unicode="&#x1fa;" horiz-adv-x="778" 
d="M757 -3q-79 3 -158 3q-75 0 -152 -3v37l53 3q18 1 19.5 22t-5.5 33l-45 114h-251l-42 -112q-8 -16 -2.5 -36t26.5 -21l50 -3v-37q-57 3 -113 3t-113 -3v37l30 3q33 3 56 60l181 438l57 151h71l259 -605q17 -39 55 -44l24 -3v-37zM446 262l-104 254l-100 -254h204z
M529 1061q0 -13 -10 -22.5t-37 -21.5l-150 -71h-60l139 121q36 30 71 30q21 0 34 -10t13 -26zM485 826q0 -41 -29.5 -70.5t-70.5 -29.5t-70.5 29.5t-29.5 71.5q0 41 29.5 70t72.5 29q40 0 69 -29.5t29 -70.5zM435 826q0 20 -14.5 35t-34.5 15q-22 0 -36.5 -14.5t-14.5 -35.5
t14.5 -35.5t35.5 -14.5t35.5 14.5t14.5 35.5z" />
    <glyph glyph-name="aringacute" unicode="&#x1fb;" horiz-adv-x="500" 
d="M478 -3q-43 3 -88 3q-46 0 -91 -3l-5 8l5 62l-93 -72q-15 -12 -49 -12q-57 0 -87 31.5t-30 92.5q0 64 38 97t133 53l88 18q-2 61 -27 89.5t-75 28.5q-20 0 -38 -4.5t-20 -9.5l-22 -50l-30 7v69l53 32q56 34 120 34q76 0 118 -37.5t42 -103.5v-232q0 -35 5.5 -47.5
t22.5 -13.5l30 -3v-37zM299 115v118l-45 -12q-53 -14 -72.5 -32.5t-19.5 -55.5q0 -29 13.5 -46t37.5 -17q22 0 46.5 12.5t39.5 32.5zM405 834q0 -13 -10 -22.5t-37 -21.5l-150 -71h-60l139 121q36 30 71 30q21 0 34 -10t13 -26zM361 599q0 -41 -29.5 -70.5t-70.5 -29.5
t-70.5 29.5t-29.5 71.5q0 41 29.5 70t72.5 29q40 0 69 -29.5t29 -70.5zM311 599q0 20 -14.5 35t-34.5 15q-22 0 -36.5 -14.5t-14.5 -35.5t14.5 -35.5t35.5 -14.5t35.5 14.5t14.5 35.5z" />
    <glyph glyph-name="AEacute" unicode="&#x1fc;" horiz-adv-x="1000" 
d="M954 166l-11 -158l-5 -8q-95 -5 -141 -4l-161 3l-65 1l-122 -3v23l32 18q20 11 20 57v119h-260l-62 -107q-19 -33 -19 -55q10 -15 24 -15l54 -3v-37l-118 3l-108 -3v37l38 3q21 1 54 57l290 490q17 28 17 40q0 15 -43 17l-52 3v37l262 -3l142 2q81 2 83 2h39q44 0 95 -4
l6 -7l-14 -142h-36l-8 75q-1 8 -29.5 14t-68.5 6q-70 0 -145 -4v-240q20 -2 67 -2h66q31 0 43 4.5t14 16.5l6 57h40q-3 -54 -3 -107q0 -54 3 -108h-40l-6 50q-4 37 -57 37h-66q-25 0 -67 -3v-267l131 -3q69 -1 116 14l3 3l23 94h39zM501 267v339l-7 17h-7l-216 -356h230z
M717 848q0 -13 -10 -22.5t-37 -21.5l-150 -71h-60l139 121q36 30 71 30q21 0 34 -10t13 -26z" />
    <glyph glyph-name="aeacute" unicode="&#x1fd;" horiz-adv-x="778" 
d="M731 243q-80 -20 -158 -20h-131q3 -61 24 -98q19 -32 53 -51.5t72 -19.5q55 0 118 35l12 -15l-22 -48q-48 -25 -82 -34t-78 -9q-68 0 -114.5 22.5t-80.5 72.5l-114 -82q-19 -13 -63 -13q-53 0 -87 35t-34 89q0 59 29 90q30 34 156 60l88 18q-3 58 -22 86q-28 39 -85 39
q-37 0 -72 -24l-16 -42l-32 4v67l53 32q56 34 122 34q46 0 76 -11.5t62 -40.5q63 52 142 52q83 0 133.5 -48.5t50.5 -127.5v-52zM604 276q-1 74 -20.5 106.5t-62.5 32.5t-63 -32.5t-22 -106.5l32 -1l48 -2h4zM319 115v114l-55 -13q-92 -22 -92 -88q0 -58 58 -58
q25 0 49.5 12.5t39.5 32.5zM538 647q0 -16 -9.5 -28t-33.5 -27q-2 -1 -3 -2t-2.5 -1.5t-9.5 -5.5t-20.5 -13t-39.5 -25t-64 -39h-56l129 148q33 37 65 37q20 0 32 -12t12 -32z" />
    <glyph glyph-name="Oslashacute" unicode="&#x1fe;" horiz-adv-x="833" 
d="M808 659l-89 -82q38 -55 53 -104t15 -120q0 -177 -99.5 -273.5t-282.5 -96.5q-77 0 -146 21q-33 10 -52.5 21.5t-46.5 36.5l-90 -82l-38 40l91 83q-42 49 -59 99t-17 124q0 176 99.5 272.5t281.5 96.5q72 0 136 -18q37 -11 60.5 -23t57.5 -37l89 81zM592 534
q-33 58 -71 81.5t-97 23.5q-227 0 -227 -290q0 -97 25 -157zM637 333q0 94 -22 148l-373 -343q38 -55 75.5 -77t92.5 -22q227 0 227 294zM562 848q0 -13 -10 -22.5t-37 -21.5l-150 -71h-60l139 121q36 30 71 30q21 0 34 -10t13 -26z" />
    <glyph glyph-name="oslashacute" unicode="&#x1ff;" horiz-adv-x="556" 
d="M534 446l-60 -56q24 -35 33.5 -67t9.5 -80q0 -126 -64.5 -193t-185.5 -67q-48 0 -84 13t-76 44l-61 -58l-23 23l63 59q-46 59 -46 160q0 119 63.5 183t182.5 64q105 0 168 -57l56 54zM368 333q-15 49 -36 69.5t-56 20.5q-100 0 -100 -165q0 -44 8 -100zM381 207
q0 52 -7 87l-184 -175q18 -47 40 -67.5t56 -20.5q50 0 72.5 41.5t22.5 134.5zM427 647q0 -16 -9.5 -28t-33.5 -27q-2 -1 -3 -2t-2.5 -1.5t-9.5 -5.5t-20.5 -13t-39.5 -25t-64 -39h-56l129 148q33 37 65 37q20 0 32 -12t12 -32z" />
    <glyph glyph-name="Adblgrave" unicode="&#x200;" horiz-adv-x="778" 
d="M757 -3q-79 3 -158 3q-75 0 -152 -3v37l53 3q18 1 19.5 22t-5.5 33l-45 114h-251l-42 -112q-8 -16 -2.5 -36t26.5 -21l50 -3v-37q-57 3 -113 3t-113 -3v37l30 3q33 3 56 60l181 438l57 151h71l259 -605q17 -39 55 -44l24 -3v-37zM446 262l-104 254l-100 -254h204z
M331 733h-60l-150 71q-27 12 -37 21.5t-10 22.5q0 16 13 26t34 10q35 0 71 -30zM515 733h-60l-150 71q-27 12 -37 21.5t-10 22.5q0 16 13 26t34 10q35 0 71 -30z" />
    <glyph glyph-name="adblgrave" unicode="&#x201;" horiz-adv-x="500" 
d="M478 -3q-43 3 -88 3q-46 0 -91 -3l-5 8l5 62l-93 -72q-15 -12 -49 -12q-57 0 -87 31.5t-30 92.5q0 64 38 97t133 53l88 18q-2 61 -27 89.5t-75 28.5q-20 0 -38 -4.5t-20 -9.5l-22 -50l-30 7v69l53 32q56 34 120 34q76 0 118 -37.5t42 -103.5v-232q0 -35 5.5 -47.5
t22.5 -13.5l30 -3v-37zM299 115v118l-45 -12q-53 -14 -72.5 -32.5t-19.5 -55.5q0 -29 13.5 -46t37.5 -17q22 0 46.5 12.5t39.5 32.5zM205 507h-54l-165 101q-19 12 -19 37q0 21 13 34t34 13q18 0 31 -7.5t32 -29.5zM393 507h-54l-165 101q-19 12 -19 38q0 20 13 33t34 13
q18 0 31 -7.5t32 -29.5z" />
    <glyph glyph-name="Edblgrave" unicode="&#x204;" horiz-adv-x="611" 
d="M577 166l-11 -158l-5 -8q-57 -3 -140 -3q-37 0 -113 1.5t-113 1.5q-61 0 -123 -3v23l32 18q20 11 20 57v448q0 66 -7 80.5t-41 17.5l-37 3v37q95 -3 190 -3q39 0 118 1.5t118 1.5t95 -3l6 -7l-14 -142h-36l-8 75q-2 19 -98 19l-145 -3v-240q20 -2 67 -2h66q31 0 43 4.5
t14 16.5l6 57h40q-3 -54 -3 -107q0 -54 3 -108h-40l-6 50q-4 37 -57 37h-66q-25 0 -67 -3v-267l149 -3q34 0 66.5 5.5t34.5 11.5l23 94h39zM264 733h-60l-150 71q-27 12 -37 21.5t-10 22.5q0 16 13 26t34 10q35 0 71 -30zM448 733h-60l-150 71q-27 12 -37 21.5t-10 22.5
q0 16 13 26t34 10q35 0 71 -30z" />
    <glyph glyph-name="edblgrave" unicode="&#x205;" horiz-adv-x="500" 
d="M461 243q-81 -20 -158 -20h-131q3 -63 25 -100q19 -31 52.5 -50t71.5 -19q55 0 118 35l12 -15l-22 -48q-49 -25 -82 -34t-76 -9q-112 0 -170.5 62t-58.5 181q0 138 95 194l47 28q39 23 87 23q87 0 138.5 -48t51.5 -128v-52zM334 276q0 74 -20 106.5t-63 32.5
q-44 0 -64.5 -33t-20.5 -106l32 -1q15 -1 25 -1t12.5 -0.5t4 -0.5h3h7.5zM216 507h-54l-165 101q-19 12 -19 37q0 21 13 34t34 13q18 0 31 -7.5t32 -29.5zM404 507h-54l-165 101q-19 12 -19 38q0 20 13 33t34 13q18 0 31 -7.5t32 -29.5z" />
    <glyph glyph-name="Idblgrave" unicode="&#x208;" horiz-adv-x="389" 
d="M350 -3q-78 3 -156 3q-77 0 -155 -3v40l37 3q35 3 41.5 15.5t6.5 79.5v408q0 67 -6.5 79.5t-41.5 15.5l-37 3v40q78 -3 155 -3q78 0 156 3v-40l-37 -3q-35 -3 -41.5 -15.5t-6.5 -79.5v-408q0 -67 6.5 -79.5t41.5 -15.5l37 -3v-40zM142 733h-60l-150 71q-27 12 -37 21.5
t-10 22.5q0 16 13 26t34 10q35 0 71 -30zM326 733h-60l-150 71q-27 12 -37 21.5t-10 22.5q0 16 13 26t34 10q35 0 71 -30z" />
    <glyph glyph-name="idblgrave" unicode="&#x209;" 
d="M298 -3q-68 3 -135 3q-65 0 -129 -3v37l35 2q23 2 29.5 13t6.5 51v219q0 44 -4.5 56.5t-21.5 13.5l-45 3v36l15 2q56 8 98 19l70 22l10 -6v-365q0 -40 6.5 -51t29.5 -13l35 -2v-37zM111 507h-54l-165 101q-19 12 -19 37q0 21 13 34t34 13q18 0 31 -7.5t32 -29.5zM299 507
h-54l-165 101q-19 12 -19 38q0 20 13 33t34 13q18 0 31 -7.5t32 -29.5z" />
    <glyph glyph-name="Odblgrave" unicode="&#x20c;" horiz-adv-x="833" 
d="M787 346q0 -171 -100.5 -267t-279.5 -96q-172 0 -266 91t-94 258q0 172 101 267.5t282 95.5q169 0 263 -92t94 -257zM637 325q0 179 -86 263q-53 51 -130 51q-95 0 -154 -57q-70 -70 -70 -227q0 -181 85 -264q52 -52 132 -52q110 0 166.5 72.5t56.5 213.5zM366 733h-60
l-150 71q-27 12 -37 21.5t-10 22.5q0 16 13 26t34 10q35 0 71 -30zM550 733h-60l-150 71q-27 12 -37 21.5t-10 22.5q0 16 13 26t34 10q35 0 71 -30z" />
    <glyph glyph-name="odblgrave" unicode="&#x20d;" horiz-adv-x="556" 
d="M517 236q0 -121 -65 -187t-185 -66q-109 0 -168 63t-59 178q0 119 64 183t183 64q111 0 170.5 -60.5t59.5 -174.5zM381 205q0 218 -106 218q-52 0 -75.5 -42t-23.5 -133q0 -217 109 -217q51 0 73.5 41t22.5 133zM222 507h-54l-165 101q-19 12 -19 37q0 21 13 34t34 13
q18 0 31 -7.5t32 -29.5zM410 507h-54l-165 101q-19 12 -19 38q0 20 13 33t34 13q18 0 31 -7.5t32 -29.5z" />
    <glyph glyph-name="Rdblgrave" unicode="&#x210;" horiz-adv-x="722" 
d="M708 -3q-48 3 -97 3q-45 0 -90 -3l-210 342v23q55 0 87 19q66 39 66 122q0 61 -36.5 94.5t-103.5 33.5q-38 0 -59 -9v-487q0 -67 6.5 -79.5t41.5 -15.5l37 -3v-40q-78 3 -156 3q-77 0 -155 -3v40l37 3q35 3 41.5 15.5t6.5 79.5v408q0 66 -7 80.5t-41 17.5l-37 3v37
q88 -3 178 -3q33 0 99.5 1.5t99.5 1.5q190 0 190 -147q0 -61 -43 -110q-37 -40 -106 -68l181 -274q16 -24 29 -31.5t41 -13.5v-40zM297 733h-60l-150 71q-27 12 -37 21.5t-10 22.5q0 16 13 26t34 10q35 0 71 -30zM481 733h-60l-150 71q-27 12 -37 21.5t-10 22.5q0 16 13 26
t34 10q35 0 71 -30z" />
    <glyph glyph-name="rdblgrave" unicode="&#x211;" horiz-adv-x="389" 
d="M389 465l-5 -129l-24 -10q-21 36 -57 36q-29 0 -54.5 -20.5t-25.5 -43.5v-198q0 -42 8 -52t40 -12l39 -2v-37q-75 3 -151 3q-65 0 -129 -3v37l35 2q23 2 29.5 13t6.5 51v219q0 44 -4.5 56.5t-21.5 13.5l-45 3v36q77 10 113 21l70 22l10 -6v-95l44 48q29 31 46.5 42
t38.5 11q22 0 37 -6zM168 507h-54l-165 101q-19 12 -19 37q0 21 13 34t34 13q18 0 31 -7.5t32 -29.5zM356 507h-54l-165 101q-19 12 -19 38q0 20 13 33t34 13q18 0 31 -7.5t32 -29.5z" />
    <glyph glyph-name="Udblgrave" unicode="&#x214;" horiz-adv-x="778" 
d="M760 644l-37 -3q-34 -3 -41 -17.5t-7 -80.5v-292q0 -136 -70 -202t-214 -66q-129 0 -204.5 52.5t-75.5 141.5v366q0 66 -7 80.5t-41 17.5l-37 3v37q78 -3 155 -3q78 0 156 3v-37l-37 -3q-34 -3 -41 -17.5t-7 -80.5v-248q0 -78 8 -118.5t28 -64.5q40 -47 140 -47
q99 0 141 43q26 26 36.5 70.5t10.5 123.5v241q0 66 -7 80.5t-41 17.5l-37 3v37q57 -3 115 -3q57 0 114 3v-37zM381 733h-60l-150 71q-27 12 -37 21.5t-10 22.5q0 16 13 26t34 10q35 0 71 -30zM565 733h-60l-150 71q-27 12 -37 21.5t-10 22.5q0 16 13 26t34 10q35 0 71 -30z
" />
    <glyph glyph-name="udblgrave" unicode="&#x215;" horiz-adv-x="611" 
d="M583 -3q-51 3 -101 3q-47 0 -95 -3l5 83l-76 -74q-23 -23 -69 -23q-73 0 -112 40.5t-39 116.5v179q0 44 -4.5 56.5t-21.5 13.5l-45 3v36q75 10 113 21l70 22l10 -6v-261q0 -72 17.5 -101.5t60.5 -29.5q40 0 68 26.5t28 63.5v156q0 44 -4.5 56.5t-21.5 13.5l-45 3v36
q76 10 113 21l70 22l10 -6v-365q0 -41 6 -52t30 -12l33 -2v-37zM250 507h-54l-165 101q-19 12 -19 37q0 21 13 34t34 13q18 0 31 -7.5t32 -29.5zM438 507h-54l-165 101q-19 12 -19 38q0 20 13 33t34 13q18 0 31 -7.5t32 -29.5z" />
    <glyph glyph-name="uni0218" unicode="&#x218;" horiz-adv-x="611" 
d="M559 220q0 -109 -80 -173t-214 -64q-105 0 -208 46q15 78 15 173h40l7 -88q24 -35 68.5 -56t95.5 -21q65 0 107.5 37t42.5 92q0 71 -83 96l-140 42q-71 21 -108.5 66.5t-37.5 109.5q0 101 70 158t195 57q94 0 185 -34l5 -12q-14 -45 -14 -142h-41l-6 82q-56 55 -136 55
q-60 0 -97 -32.5t-37 -84.5q0 -38 25 -62t81 -39l114 -30q151 -40 151 -176zM352 -77q-20 -47 -93 -159l-53 -22l-12 13q5 10 8.5 19.5l7 19t5.5 15.5t4.5 16.5t3.5 14.5t3 16t2.5 15.5l2.5 17.5t3 18q62 8 107 27z" />
    <glyph glyph-name="uni0219" unicode="&#x219;" horiz-adv-x="444" 
d="M405 155q0 -77 -58 -124.5t-153 -47.5q-74 0 -155 28l7 141h39l5 -69q44 -52 112 -52q43 0 67.5 21t24.5 56q0 26 -14 40.5t-49 22.5l-86 21q-106 26 -106 125q0 75 53.5 114.5t154.5 39.5q70 0 123 -23l-8 -122h-36l-10 58q-2 15 -29 27t-58 12q-41 0 -64.5 -17.5
t-23.5 -47.5q0 -24 12.5 -36.5t42.5 -19.5l82 -18q68 -15 97.5 -45t29.5 -84zM276 -77q-20 -47 -93 -159l-53 -22l-12 13q5 10 8.5 19.5l7 19t5.5 15.5t4.5 16.5t3.5 14.5t3 16t2.5 15.5l2.5 17.5t3 18q62 8 107 27z" />
    <glyph glyph-name="uni021A" unicode="&#x21a;" horiz-adv-x="667" 
d="M650 676q-10 -63 -13 -159h-40l-5 69q-3 9 -5.5 14.5t-6.5 9.5t-6.5 6t-9 2.5t-10 0.5h-15h-18.5h-117v-484q0 -67 6.5 -79.5t41.5 -15.5l37 -3v-40q-78 3 -156 3q-77 0 -155 -3v40l37 3q35 3 41.5 15.5t6.5 79.5v484h-117q-3 0 -15.5 0.5t-16.5 0t-13.5 -2t-13 -5
t-7.5 -10t-5 -16.5l-5 -69h-40q-4 106 -13 159l6 5q156 -3 311 -3q156 0 310 3zM389 -77q-20 -47 -93 -159l-53 -22l-12 13q5 10 8.5 19.5l7 19t5.5 15.5t4.5 16.5t3.5 14.5t3 16t2.5 15.5l2.5 17.5t3 18q62 8 107 27z" />
    <glyph glyph-name="uni021B" unicode="&#x21b;" 
d="M324 60l-49 -59q-15 -18 -65 -18q-65 0 -94.5 30t-29.5 97v259l-64 -4v22l66 43v60q0 21 -4 92q78 29 122 50l14 -10q-12 -67 -12 -136v-58q57 0 114 6l-8 -65h-106v-238q0 -37 13.5 -51t48.5 -14q19 0 46 13zM221 -77q-20 -47 -93 -159l-53 -22l-12 13q5 10 8.5 19.5
l7 19t5.5 15.5t4.5 16.5t3.5 14.5t3 16t2.5 15.5l2.5 17.5t3 18q62 8 107 27z" />
    <glyph glyph-name="uni0237" unicode="&#x237;" 
d="M227 98q0 -115 -11.5 -176t-41.5 -105q-56 -83 -130 -83q-17 0 -31 2l-10 35l4 6h23q40 0 57.5 43t17.5 142v357q0 44 -4.5 56.5t-21.5 13.5l-45 3v36l18 2q51 5 95 19l70 22l10 -6v-367z" />
    <glyph glyph-name="ereversed" unicode="&#x258;" horiz-adv-x="500" 
d="M461 226q0 -119 -58.5 -181t-170.5 -62q-43 0 -76 9t-82 34l-22 48l12 15q63 -35 118 -35q38 0 71.5 19t52.5 50q22 37 25 100h-131q-77 0 -158 20v52q0 80 51.5 128t138.5 48q48 0 87 -23l47 -28q95 -56 95 -194zM337 276q0 73 -20.5 106t-64.5 33q-43 0 -63 -32.5
t-20 -106.5q51 -3 84 -3h7.5h3t4 0.5t12.5 0.5t25 1z" />
    <glyph glyph-name="schwa" unicode="&#x259;" horiz-adv-x="500" 
d="M461 228q0 -138 -95 -194l-47 -28q-39 -23 -87 -23q-87 0 -138.5 48t-51.5 128v52q81 20 158 20h131q-3 63 -25 100q-19 31 -52.5 50t-71.5 19q-55 0 -118 -35l-12 15l22 48q49 25 82 34t76 9q112 0 170.5 -62t58.5 -181zM337 178l-32 1q-15 1 -25 1t-12.5 0.5t-4 0.5h-3
h-7.5l-84 -3q0 -74 20 -106.5t63 -32.5q44 0 64.5 33t20.5 106z" />
    <glyph glyph-name="ringhalfright" unicode="&#x2be;" horiz-adv-x="359" 
d="M313 494q0 -46 -19 -75.5t-66 -57.5l-34 -21q-26 -15 -64 -15q-31 0 -72 14q-2 0 -4 4l-5 8q0 1 -0.5 2t-0.5 2v2q10 47 14 93q0 7 8 7h24q6 0 8 -7l4 -40q1 -10 16 -16t35 -6q57 0 57 85q0 60 -26 95t-72 35q-25 0 -53 -12q-1 0 -3 -1q-4 0 -6 3l-6 7q-2 1 -2 5v3l14 31
q1 3 4 4q45 23 93 23q76 0 116 -44t40 -128z" />
    <glyph glyph-name="ringhalfleft" unicode="&#x2bf;" horiz-adv-x="359" 
d="M313 383l-14 -31q-1 -3 -4 -4q-45 -23 -93 -23q-76 0 -116 44t-40 128q0 46 19 75.5t66 57.5l34 21q26 15 64 15q31 0 72 -14q2 0 4 -4l5 -8v-2l1 -2v-2q-10 -47 -14 -93q0 -7 -8 -7h-24q-6 0 -8 7l-4 40q-1 10 -16 16t-35 6q-57 0 -57 -85q0 -60 26 -95t72 -35
q25 0 53 12h1q1 1 2 1q5 0 6 -3l6 -7q2 -1 2 -5v-3z" />
    <glyph glyph-name="circumflex" unicode="&#x2c6;" 
d="M335 512h-57l-112 98l-113 -98h-55l121 175h93z" />
    <glyph glyph-name="caron" unicode="&#x2c7;" 
d="M335 687l-123 -175h-93l-121 175h55l113 -98l112 98h57z" />
    <glyph glyph-name="breve" unicode="&#x2d8;" 
d="M318 681q-6 -67 -26 -99q-40 -64 -125 -64q-94 0 -133 74q-16 33 -19 89h44q16 -87 104 -87q55 0 87 36q24 28 24 49v2h44z" />
    <glyph glyph-name="dotaccent" unicode="&#x2d9;" 
d="M234 599q0 -28 -19.5 -47.5t-47.5 -19.5t-47.5 20t-19.5 48q0 27 20 46.5t48 19.5q27 0 46.5 -20t19.5 -47z" />
    <glyph glyph-name="ring" unicode="&#x2da;" 
d="M267 599q0 -41 -29.5 -70.5t-70.5 -29.5t-70.5 29.5t-29.5 71.5q0 41 29.5 70t72.5 29q40 0 69 -29.5t29 -70.5zM217 599q0 20 -14.5 35t-34.5 15q-22 0 -36.5 -14.5t-14.5 -35.5t14.5 -35.5t35.5 -14.5t35.5 14.5t14.5 35.5z" />
    <glyph glyph-name="ogonek" unicode="&#x2db;" 
d="M278 -197l-53 -37q-23 -16 -84 -16q-41 0 -63.5 29.5t-22.5 71.5q0 101 119 163h44q-85 -73 -85 -138q0 -60 42 -60q52 0 61 23l12 30l30 -7v-59z" />
    <glyph glyph-name="tilde" unicode="&#x2dc;" 
d="M349 662q-18 -65 -46.5 -95.5t-71.5 -30.5q-31 0 -84 25q-47 23 -77 23q-31 0 -46 -47h-40q6 55 38.5 90t77.5 35q29 0 80 -24t75 -24q18 0 27.5 9.5t23.5 38.5h43z" />
    <glyph glyph-name="hungarumlaut" unicode="&#x2dd;" 
d="M460 645q0 -25 -19 -37l-165 -101h-54l128 148q19 22 32 29.5t31 7.5q21 0 34 -13t13 -34zM272 646q0 -26 -19 -38l-165 -101h-54l128 148q19 22 32 29.5t31 7.5q21 0 34 -13t13 -33z" />
    <glyph glyph-name="uni0300" unicode="&#x300;" horiz-adv-x="0" 
d="M-161 506h-56q-119 73 -135 84l-4 2q-24 15 -33.5 27t-9.5 28q0 20 12 32t32 12q32 0 65 -37z" />
    <glyph glyph-name="uni0301" unicode="&#x301;" horiz-adv-x="0" 
d="M-100 647q0 -16 -9.5 -28t-33.5 -27q-2 -1 -3 -2t-2.5 -1.5t-9.5 -5.5t-20.5 -13t-39.5 -25t-64 -39h-56l129 148q33 37 65 37q20 0 32 -12t12 -32z" />
    <glyph glyph-name="uni0302" unicode="&#x302;" horiz-adv-x="0" 
d="M-81 512h-57l-112 98l-113 -98h-55l121 175h93z" />
    <glyph glyph-name="uni0303" unicode="&#x303;" horiz-adv-x="0" 
d="M-67 662q-18 -65 -46.5 -95.5t-71.5 -30.5q-31 0 -84 25q-47 23 -77 23q-31 0 -46 -47h-40q6 55 38.5 90t77.5 35q29 0 80 -24t75 -24q18 0 27.5 9.5t23.5 38.5h43z" />
    <glyph glyph-name="uni0304" unicode="&#x304;" horiz-adv-x="0" 
d="M-84 564h-331v71h331v-71z" />
    <glyph glyph-name="uni0306" unicode="&#x306;" horiz-adv-x="0" 
d="M-98 681q-6 -67 -26 -99q-40 -64 -125 -64q-94 0 -133 74q-16 33 -19 89h44q16 -87 104 -87q55 0 87 36q24 28 24 49v2h44z" />
    <glyph glyph-name="uni0307" unicode="&#x307;" horiz-adv-x="0" 
d="M-182 599q0 -28 -19.5 -47.5t-47.5 -19.5t-47.5 20t-19.5 48q0 27 20 46.5t48 19.5q27 0 46.5 -20t19.5 -47z" />
    <glyph glyph-name="uni0308" unicode="&#x308;" horiz-adv-x="0" 
d="M-75 599q0 -28 -19.5 -47.5t-47.5 -19.5t-47.5 20t-19.5 48q0 27 20 46.5t48 19.5q27 0 46.5 -20t19.5 -47zM-290 599q0 -28 -19.5 -47.5t-47.5 -19.5t-47.5 19.5t-19.5 47.5t20 47.5t48 19.5q27 0 46.5 -20t19.5 -47z" />
    <glyph glyph-name="uni0309" unicode="&#x309;" horiz-adv-x="0" 
d="M-162 652q0 -31 -33 -53l-34 -22q-25 -17 -25 -27q0 -8 7 -18l-24 -7q-16 19 -16 33q0 9 27.5 44t27.5 43q0 11 -10.5 17.5t-26.5 6.5q-22 0 -27 -5l-15 -29l-26 5l16 56q36 18 72 18q40 0 63.5 -17t23.5 -45z" />
    <glyph glyph-name="uni030A" unicode="&#x30a;" horiz-adv-x="0" 
d="M-149 599q0 -41 -29.5 -70.5t-70.5 -29.5t-70.5 29.5t-29.5 71.5q0 41 29.5 70t72.5 29q40 0 69 -29.5t29 -70.5zM-199 599q0 20 -14.5 35t-34.5 15q-22 0 -36.5 -14.5t-14.5 -35.5t14.5 -35.5t35.5 -14.5t35.5 14.5t14.5 35.5z" />
    <glyph glyph-name="uni030B" unicode="&#x30b;" horiz-adv-x="0" 
d="M44 645q0 -25 -19 -37l-165 -101h-54l128 148q19 22 32 29.5t31 7.5q21 0 34 -13t13 -34zM-144 646q0 -26 -19 -38l-165 -101h-54l128 148q19 22 32 29.5t31 7.5q21 0 34 -13t13 -33z" />
    <glyph glyph-name="uni030C" unicode="&#x30c;" horiz-adv-x="0" 
d="M-81 687l-123 -175h-93l-121 175h55l113 -98l112 98h57z" />
    <glyph glyph-name="uni030F" unicode="&#x30f;" horiz-adv-x="0" 
d="M-305 507h-54l-165 101q-19 12 -19 37q0 21 13 34t34 13q18 0 31 -7.5t32 -29.5zM-117 507h-54l-165 101q-19 12 -19 38q0 20 13 33t34 13q18 0 31 -7.5t32 -29.5z" />
    <glyph glyph-name="uni0311" unicode="&#x311;" horiz-adv-x="0" 
d="M-98 518h-44q-16 87 -104 87q-56 0 -87 -36q-24 -28 -24 -49v-2h-44q6 67 26 99q40 64 125 64q94 0 133 -74q16 -33 19 -89z" />
    <glyph glyph-name="uni0323" unicode="&#x323;" horiz-adv-x="0" 
d="M-66 -145q0 -28 -19.5 -47.5t-47.5 -19.5t-47.5 20t-19.5 48q0 27 20 46.5t48 19.5q27 0 46.5 -20t19.5 -47z" />
    <glyph glyph-name="uni0326" unicode="&#x326;" horiz-adv-x="0" 
d="M-195 -77q-20 -47 -93 -159l-53 -22l-12 13q5 10 8.5 19.5l7 19t5.5 15.5t4.5 16.5t3.5 14.5t3 16t2.5 15.5l2.5 17.5t3 18q62 8 107 27z" />
    <glyph glyph-name="uni032E" unicode="&#x32e;" horiz-adv-x="0" 
d="M-85 -78q-16 -133 -164 -133q-75 0 -117.5 33.5t-46.5 99.5h48q16 -70 112 -70q49 0 84.5 21.5t35.5 46.5v2h48z" />
    <glyph glyph-name="uni032F" unicode="&#x32f;" horiz-adv-x="0" 
d="M-85 -211h-48q-16 70 -112 70q-49 0 -84.5 -21.5t-35.5 -46.5v-2h-48q16 133 164 133q75 0 117.5 -33.5t46.5 -99.5z" />
    <glyph glyph-name="uni0330" unicode="&#x330;" horiz-adv-x="0" 
d="M-67 -82q-18 -65 -46.5 -95.5t-71.5 -30.5q-31 0 -84 25q-47 23 -77 23q-31 0 -46 -47h-40q6 55 38.5 90t77.5 35q29 0 80 -24t75 -24q18 0 27.5 9.5t23.5 38.5h43z" />
    <glyph glyph-name="uni0331" unicode="&#x331;" horiz-adv-x="0" 
d="M-84 -180h-331v71h331v-71z" />
    <glyph glyph-name="uni0332" unicode="&#x332;" horiz-adv-x="0" 
d="M-84 -180h-331v71h331v-71z" />
    <glyph glyph-name="Alpha" unicode="&#x391;" horiz-adv-x="778" 
d="M757 -3q-79 3 -158 3q-75 0 -152 -3v37l53 3q18 1 19.5 22t-5.5 33l-45 114h-251l-42 -112q-8 -16 -2.5 -36t26.5 -21l50 -3v-37q-57 3 -113 3t-113 -3v37l30 3q33 3 56 60l181 438l57 151h71l259 -605q17 -39 55 -44l24 -3v-37zM446 262l-104 254l-100 -254h204z" />
    <glyph glyph-name="Beta" unicode="&#x392;" horiz-adv-x="667" 
d="M611 216q0 -93 -84 -156t-187 -63q-70 3 -142 3q-63 0 -126 -3v23l32 18q20 11 20 57v448q0 66 -7 80.5t-41 17.5l-37 3v37q84 -3 168 -3q32 0 96 1.5t96 1.5q189 0 189 -135q0 -61 -38 -96q-23 -21 -51.5 -35.5t-92.5 -37.5q103 -6 150 -39q55 -39 55 -122zM461 202
q0 77 -39.5 111.5t-126.5 34.5h-30v-292q23 -4 43 -4q80 0 116.5 36t36.5 114zM440 524q0 56 -28 81.5t-89 25.5q-26 0 -58 -4v-227h30q76 0 110.5 29.5t34.5 94.5z" />
    <glyph glyph-name="Gamma" unicode="&#x393;" horiz-adv-x="556" 
d="M539 671l-14 -142h-36l-8 75q-2 19 -111 19l-116 -3v-485q0 -66 7 -79.5t41 -15.5l47 -3v-40q-83 3 -166 3q-77 0 -155 -3v40l37 3q35 3 41.5 15.5t6.5 79.5v408q0 66 -7 80.5t-41 17.5l-37 3v37q89 -3 178 -3q39 0 116.5 1.5t115.5 1.5q57 0 95 -3z" />
    <glyph glyph-name="Delta" unicode="&#x394;" horiz-adv-x="659" 
d="M657 0h-654l318 731h23zM468 122l-186 439l-188 -439h374z" />
    <glyph glyph-name="Epsilon" unicode="&#x395;" horiz-adv-x="611" 
d="M577 166l-11 -158l-5 -8q-57 -3 -140 -3q-37 0 -113 1.5t-113 1.5q-61 0 -123 -3v23l32 18q20 11 20 57v448q0 66 -7 80.5t-41 17.5l-37 3v37q95 -3 190 -3q39 0 118 1.5t118 1.5t95 -3l6 -7l-14 -142h-36l-8 75q-2 19 -98 19l-145 -3v-240q20 -2 67 -2h66q31 0 43 4.5
t14 16.5l6 57h40q-3 -54 -3 -107q0 -54 3 -108h-40l-6 50q-4 37 -57 37h-66q-25 0 -67 -3v-267l149 -3q34 0 66.5 5.5t34.5 11.5l23 94h39z" />
    <glyph glyph-name="Zeta" unicode="&#x396;" horiz-adv-x="667" 
d="M627 174q-14 -80 -16 -177q-143 3 -284 3q-151 0 -303 -3v38q59 74 104 139l306 446h-222q-53 0 -68 -7.5t-19 -38.5l-8 -55h-37v162q136 -3 272 -3t271 3v-35q-49 -60 -83 -110l-325 -479h276q74 0 81 39l15 78h40z" />
    <glyph glyph-name="Eta" unicode="&#x397;" horiz-adv-x="833" 
d="M796 -3q-78 3 -156 3q-77 0 -155 -3v40l37 3q35 3 41.5 15.5t6.5 79.5v190l-81 2h-146l-81 -2v-190q0 -67 6.5 -79.5t41.5 -15.5l37 -3v-40q-78 3 -156 3q-77 0 -155 -3v40l37 3q35 3 41.5 15.5t6.5 79.5v408q0 67 -6.5 79.5t-41.5 15.5l-37 3v40q78 -3 155 -3
q78 0 156 3v-40l-37 -3q-35 -3 -41.5 -15.5t-6.5 -79.5v-158q23 -2 81 -2h146q57 0 81 2v158q0 67 -6.5 79.5t-41.5 15.5l-37 3v40q78 -3 155 -3q78 0 156 3v-40l-37 -3q-35 -3 -41.5 -15.5t-6.5 -79.5v-408q0 -67 6.5 -79.5t41.5 -15.5l37 -3v-40z" />
    <glyph glyph-name="Theta" unicode="&#x398;" horiz-adv-x="833" 
d="M787 346q0 -171 -100.5 -267t-279.5 -96q-172 0 -266 91t-94 258q0 172 101 267.5t282 95.5q169 0 263 -92t94 -257zM637 325q0 179 -86 263q-53 51 -130 51q-95 0 -154 -57q-70 -70 -70 -227q0 -181 85 -264q52 -52 132 -52q110 0 166.5 72.5t56.5 213.5zM547 234h-33
q-1 24 -5 36q-5 15 -8.5 21t-14.5 10t-33 4h-79q-39 0 -46 -22q-4 -11 -9 -49h-33l2 122q0 28 -1.5 65t-1.5 53h33q1 -24 5 -36q5 -15 8.5 -21t14.5 -10t33 -4h79q39 0 46 22q4 11 9 49h33l-1 -114z" />
    <glyph glyph-name="Iota" unicode="&#x399;" horiz-adv-x="389" 
d="M350 -3q-78 3 -156 3q-77 0 -155 -3v40l37 3q35 3 41.5 15.5t6.5 79.5v408q0 67 -6.5 79.5t-41.5 15.5l-37 3v40q78 -3 155 -3q78 0 156 3v-40l-37 -3q-35 -3 -41.5 -15.5t-6.5 -79.5v-408q0 -67 6.5 -79.5t41.5 -15.5l37 -3v-40z" />
    <glyph glyph-name="Kappa" unicode="&#x39a;" horiz-adv-x="778" 
d="M763 -3q-51 3 -101 3q-51 0 -102 -3l-208 249q-40 49 -53 61.5t-34 24.5v-197q0 -67 6.5 -79.5t41.5 -15.5l37 -3v-40q-78 3 -156 3q-77 0 -155 -3v40l37 3q35 3 41.5 15.5t6.5 79.5v408q0 67 -6.5 79.5t-41.5 15.5l-37 3v40q78 -3 155 -3q78 0 156 3v-40l-37 -3
q-35 -3 -41.5 -15.5t-6.5 -79.5v-200l197 193q94 94 94 120v25q45 -3 91 -3t91 3v-39q-47 -4 -69.5 -11t-40.5 -23l-222 -207l266 -313q42 -49 91 -50v-41z" />
    <glyph glyph-name="Lambda" unicode="&#x39b;" horiz-adv-x="778" 
d="M757 -3q-79 3 -158 3q-75 0 -152 -3v37l53 3q18 1 19.5 22t-5.5 33l-172 424l-166 -422q-8 -16 -2.5 -36t26.5 -21l50 -3v-37q-57 3 -113 3t-113 -3v37l30 3q33 3 56 60l181 438l57 151h71l259 -605q17 -39 55 -44l24 -3v-37z" />
    <glyph glyph-name="Mu" unicode="&#x39c;" horiz-adv-x="1000" 
d="M968 -3q-78 3 -156 3q-77 0 -155 -3v40l37 3q35 3 41.5 15.5t6.5 79.5v416l-206 -429q-36 -74 -60 -132h-34q-19 47 -36 83l-230 479v-417q0 -66 7 -80.5t41 -17.5l37 -3v-37q-57 3 -114 3q-58 0 -115 -3v37l37 3q34 3 41 17.5t7 80.5v408q0 66 -7 80.5t-41 17.5l-37 3
v37q60 -3 120 -3t120 3l75 -161l158 -330l183 378l49 113q57 -3 115 -3t116 3v-37l-37 -3q-34 -3 -41 -17.5t-7 -80.5v-408q0 -67 6.5 -79.5t41.5 -15.5l37 -3v-40z" />
    <glyph glyph-name="Nu" unicode="&#x39d;" horiz-adv-x="833" 
d="M798 644l-37 -3q-34 -3 -41 -17.5t-7 -80.5v-454l3 -101l-7 -4l-82 13l-122 139l-326 392v-393q0 -66 7 -80.5t41 -17.5l37 -3v-37q-57 3 -114 3q-58 0 -115 -3v37l37 3q34 3 41 17.5t7 80.5v408q0 66 -7 80.5t-41 17.5l-37 3v37q60 -3 120 -3q42 0 84 3
q83 -110 103 -133l312 -364v359q0 66 -7 80.5t-41 17.5l-37 3v37q57 -3 115 -3q57 0 114 3v-37z" />
    <glyph glyph-name="Xi" unicode="&#x39e;" horiz-adv-x="690" 
d="M605 494h-37q-4 26 -9 42q-7 26 -27 30q-16 3 -68 3h-241q-54 0 -69 -3q-15 -5 -22 -14q-4 -7 -15 -58h-37q3 39 3 85l-2 106l5 4q157 -2 257 -2q130 0 256 2l6 -4q-3 -69 -3 -103q0 -42 3 -88zM652 231l-19 -231l-7 -3q-86 3 -270 3q-174 0 -297 -3l-7 3l-7 104l-11 127
h37q21 -79 42 -94q15 -11 88 -11h263q66 0 80 2q32 3 48 37q8 16 23 66h37zM476 234h-33q-1 24 -5 36q-5 15 -8.5 21t-14.5 10t-33 4h-79q-39 0 -46 -22q-4 -11 -9 -49h-33l2 122q0 28 -1.5 65t-1.5 53h33q1 -24 5 -36q5 -15 8.5 -21t14.5 -10t33 -4h79q39 0 46 22
q4 11 9 49h33l-1 -114z" />
    <glyph glyph-name="Omicron" unicode="&#x39f;" horiz-adv-x="833" 
d="M787 346q0 -171 -100.5 -267t-279.5 -96q-172 0 -266 91t-94 258q0 172 101 267.5t282 95.5q169 0 263 -92t94 -257zM637 325q0 179 -86 263q-53 51 -130 51q-95 0 -154 -57q-70 -70 -70 -227q0 -181 85 -264q52 -52 132 -52q110 0 166.5 72.5t56.5 213.5z" />
    <glyph glyph-name="Pi" unicode="&#x3a0;" horiz-adv-x="733" 
d="M736 -3q-78 3 -156 3q-77 0 -155 -3v40l37 3q35 3 41.5 15.5t6.5 79.5v478h-248v-478q0 -67 6.5 -79.5t41.5 -15.5l37 -3v-40q-78 3 -156 3q-77 0 -155 -3v40l37 3q35 3 41.5 15.5t6.5 79.5v408q0 67 -6.5 79.5t-41.5 15.5l-37 3v40h700v-40l-37 -3q-35 -3 -41.5 -15.5
t-6.5 -79.5v-408q0 -67 6.5 -79.5t41.5 -15.5l37 -3v-40z" />
    <glyph glyph-name="Rho" unicode="&#x3a1;" horiz-adv-x="611" 
d="M594 531q0 -91 -64 -151.5t-161 -60.5q-14 0 -58 7v39h18h18q47 0 75 36t28 96q0 134 -125 134q-37 0 -60 -9v-487q0 -66 7 -79.5t41 -15.5l47 -3v-40q-82 3 -165 3q-78 0 -156 -3v40l37 3q35 3 41.5 15.5t6.5 79.5v408q0 66 -7 80.5t-41 17.5l-37 3v37q87 -3 173 -3
q32 0 96.5 1.5t96.5 1.5q71 0 130 -40t59 -110z" />
    <glyph glyph-name="Sigma" unicode="&#x3a3;" horiz-adv-x="660" 
d="M637 231l-91 -300h-40q15 57 15 58q0 11 -13 11h-501v28l335 289l-335 372v30h441q42 0 42 17q0 5 -8 45h37l72 -223h-41q-29 84 -52 106q-18 17 -75 17h-236l268 -300v-18l-280 -239h336q43 0 49 8q6 9 35 99h42z" />
    <glyph glyph-name="Tau" unicode="&#x3a4;" horiz-adv-x="667" 
d="M650 676q-10 -63 -13 -159h-40l-5 69q-3 9 -5.5 14.5t-6.5 9.5t-6.5 6t-9 2.5t-10 0.5h-15h-18.5h-117v-484q0 -67 6.5 -79.5t41.5 -15.5l37 -3v-40q-78 3 -156 3q-77 0 -155 -3v40l37 3q35 3 41.5 15.5t6.5 79.5v484h-117q-3 0 -15.5 0.5t-16.5 0t-13.5 -2t-13 -5
t-7.5 -10t-5 -16.5l-5 -69h-40q-4 106 -13 159l6 5q156 -3 311 -3q156 0 310 3z" />
    <glyph glyph-name="Upsilon" unicode="&#x3a5;" horiz-adv-x="782" 
d="M764 552q0 -18 -4 -41l-15 -7l-9 3q-15 70 -83 70q-64 0 -120.5 -68.5t-71.5 -173.5q-7 -60 -7 -121q0 -37 6 -151q3 -14 17 -19q4 -1 57 -4v-43q-74 3 -153 3q-63 0 -142 -3v43q53 3 57 4q14 5 17 19q6 39 6 151q0 67 -8 119q-17 101 -72 175.5t-114 74.5q-61 0 -89 -78
l-6 -2l-15 14q17 75 54 121q46 57 116 57q73 0 124.5 -62.5t67.5 -172.5q9 -75 12 -134h9l14 115q23 123 86 189t147 66q76 0 106 -68q13 -32 13 -76z" />
    <glyph glyph-name="Phi" unicode="&#x3a6;" horiz-adv-x="716" 
d="M669 339q0 -81 -68 -129t-173 -61v-14q0 -67 6.5 -79.5t41.5 -15.5l37 -3v-40q-78 3 -156 3q-77 0 -155 -3v40l37 3q35 3 41.5 15.5t6.5 79.5v14q-105 13 -173 61t-68 129t68 129t173 61v14q0 67 -6.5 79.5t-41.5 15.5l-37 3v40q78 -3 155 -3q78 0 156 3v-40l-37 -3
q-35 -3 -41.5 -15.5t-6.5 -79.5v-14q105 -13 173 -61t68 -129zM287 205v268q-47 -16 -76 -51.5t-29 -82.5t29 -82.5t76 -51.5zM533 339q0 47 -29 82.5t-76 51.5v-268q47 16 76 51.5t29 82.5z" />
    <glyph glyph-name="Chi" unicode="&#x3a7;" horiz-adv-x="667" 
d="M650 -3q-48 3 -95 3q-48 0 -96 -3l-149 266l-140 -201q-14 -20 -36 -62h-117v34l31 3q20 2 33 18l199 261l-94 166q-43 76 -86 123q-18 18 -41 18q-13 0 -32 -6l-5 41l183 37q37 -28 73 -91l95 -169l165 243h111v-34l-28 -3q-15 -1 -23.5 -8t-24.5 -28l-170 -224
q65 -113 128 -221l33 -58l-1 1q21 -37 33.5 -50.5t28.5 -15.5l25 -3v-37z" />
    <glyph glyph-name="Psi" unicode="&#x3a8;" horiz-adv-x="880" 
d="M835 521q-47 0 -78.5 -37.5t-31.5 -88.5q0 -89 -60.5 -154.5t-153.5 -86.5v-19q0 -67 6.5 -79.5t41.5 -15.5l37 -3v-40q-78 3 -156 3q-77 0 -155 -3v40l37 3q35 3 41.5 15.5t6.5 79.5v19q-93 21 -153.5 86.5t-60.5 154.5q0 51 -31.5 88.5t-77.5 37.5v48q99 0 172 -47
t73 -127q0 -56 20.5 -104.5t57.5 -74.5v327q0 67 -6.5 79.5t-41.5 15.5l-37 3v40q78 -3 155 -3q78 0 156 3v-40l-37 -3q-35 -3 -41.5 -15.5t-6.5 -79.5v-327q37 26 57.5 74.5t20.5 104.5q0 80 73 127t173 47v-48z" />
    <glyph glyph-name="Omega" unicode="&#x3a9;" horiz-adv-x="766" 
d="M754 190l-57 -190h-252q45 92 68 163q41 123 41 260q0 132 -43 201q-42 68 -127 68q-47 0 -82 -21q-33 -21 -55 -64q-34 -70 -34 -188q0 -96 30 -213q21 -78 80 -206h-253l-57 190h33l26 -82h147v11q-73 55 -115 133.5t-42 166.5q0 135 89 221q94 91 233 91
q138 0 232 -91q90 -87 90 -221q0 -87 -42.5 -165.5t-115.5 -134.5v-11h147l26 82h33z" />
    <glyph glyph-name="alpha" unicode="&#x3b1;" horiz-adv-x="723" 
d="M677 89q0 -43 -23.5 -74.5t-60.5 -31.5q-98 0 -149 111q-60 -111 -151 -111q-102 0 -174.5 70t-72.5 171q0 102 72 174.5t175 72.5q62 0 115 -32t85 -86q38 101 57 120l68 -48l18 -38q-87 -90 -109 -118q3 -15 7 -40q3 -31 4.5 -45t5 -43t7.5 -44t10 -32.5t14 -25.5
t18 -8q17 0 26.5 17.5t9.5 40.5h48zM423 156q-8 33 -11 62q-4 42 -10.5 74t-19.5 64t-35.5 49.5t-53.5 17.5q-58 0 -84.5 -58t-26.5 -141q0 -81 27 -137t84 -56q78 0 130 125z" />
    <glyph glyph-name="beta" unicode="&#x3b2;" horiz-adv-x="642" 
d="M603 189q0 -95 -87.5 -150.5t-206.5 -55.5q-74 0 -141 32v-15q0 -123 -31 -226l-86 -15l-42 15q37 117 37 226v454q0 102 77.5 173t185.5 71q94 0 163.5 -48.5t69.5 -127.5q0 -50 -36 -89.5t-91 -58.5q80 -20 134 -68.5t54 -116.5zM467 189q0 74 -70.5 116t-167.5 42v48
q72 0 124.5 34.5t52.5 92.5q0 52 -27 90t-70 38q-64 0 -102.5 -58t-38.5 -138v-385q64 -38 141 -38q65 0 111.5 46.5t46.5 111.5z" />
    <glyph glyph-name="gamma" unicode="&#x3b3;" horiz-adv-x="650" 
d="M604 454q0 -49 -14 -95.5t-45 -95.5t-55 -79.5t-68 -82.5q5 -90 5 -163q0 -77 -31 -132.5t-89 -55.5q-61 0 -84 65t14 134q12 23 132 164q-31 236 -181 236q-39 0 -66.5 -29t-27.5 -70h-48q0 90 37 155.5t105 65.5q189 0 227 -298q67 111 67 281l82 15zM379 -62
q0 60 -4 109q-85 -101 -95 -121q-25 -45 -17 -86.5t44 -41.5q72 0 72 140z" />
    <glyph glyph-name="delta" unicode="&#x3b4;" horiz-adv-x="579" 
d="M533 204q0 -93 -72 -157t-171 -64q-100 0 -172 64t-72 157q0 77 64.5 120.5t167.5 55.5q-101 83 -101 169q0 61 36.5 105t91.5 44q71 0 126 -25.5t74 -79.5l-73 -41l-43 1q-10 29 -18.5 47t-26 34t-39.5 16q-30 0 -45.5 -29.5t-15.5 -71.5q0 -23 9 -43.5t29 -40.5
t33.5 -30.5t41.5 -30.5q39 -28 62 -45.5t53.5 -45.5t45.5 -55t15 -54zM397 204q0 77 -61 131q-65 -6 -109.5 -41t-44.5 -90q0 -71 27.5 -122t80.5 -51t80 51t27 122z" />
    <glyph glyph-name="epsilon" unicode="&#x3b5;" horiz-adv-x="549" 
d="M503 83q-33 -44 -81.5 -68.5t-103.5 -24.5q-72 0 -130.5 14t-100 50.5t-41.5 90.5q0 80 87 112q-39 33 -39 82q0 59 56.5 92.5t133.5 33.5q97 0 174 -60l-29 -38q-66 50 -145 50q-29 0 -48.5 -23t-19.5 -55q0 -36 35 -59q48 4 112 4l10 -52l-10 -25q-80 0 -137 12
q-58 -22 -58 -74q0 -49 44.5 -78t105.5 -29q91 0 147 73z" />
    <glyph glyph-name="zeta" unicode="&#x3b6;" horiz-adv-x="528" 
d="M505 -128q0 -50 -20.5 -86t-58.5 -36q-45 0 -74 35l37 30q14 -17 37 -17q20 0 25.5 19.5t5.5 54.5q0 26 -19.5 45.5t-49.5 29.5l-98 30q-44 14 -71 23.5t-63.5 27.5t-57.5 36t-36.5 45.5t-15.5 60.5q0 134 50.5 247.5t139.5 166.5q-35 42 -31 97l58 10l29 -10
q-4 -36 14 -69q32 8 65 8q97 0 97 -49q0 -48 -97 -48q-47 0 -88 22q-101 -74 -101 -375q0 -51 34.5 -91t87.5 -56l99 -31q44 -13 73 -45.5t29 -74.5z" />
    <glyph glyph-name="eta" unicode="&#x3b7;" horiz-adv-x="611" 
d="M518 -200h-122v470q0 60 -22.5 87.5t-71.5 27.5q-33 0 -59 -21t-26 -47v-317h-122v319q0 44 -4.5 56.5t-21.5 13.5l-45 3v36q42 2 76 10t111 33l6 -6v-75l80 62q23 19 70 19q76 0 116 -42q35 -38 35 -143v-486z" />
    <glyph glyph-name="theta" unicode="&#x3b8;" horiz-adv-x="506" 
d="M460 337q0 -68 -11.5 -129t-35 -112.5t-65 -82t-95.5 -30.5t-95.5 30.5t-65 82t-35 112.5t-11.5 129q0 70 11 131.5t34.5 114.5t65 84t96.5 31t96.5 -31t65 -84t34.5 -114.5t11 -131.5zM324 361q0 62 -2 103.5t-8.5 89t-21.5 72t-39 24.5t-39 -24.5t-21.5 -72t-8.5 -89
t-2 -103.5h142zM324 313h-142q0 -61 2 -101t8.5 -86.5t21.5 -70.5t39 -24t39 24t21.5 70.5t8.5 86.5t2 101z" />
    <glyph glyph-name="iota" unicode="&#x3b9;" horiz-adv-x="455" 
d="M409 114q0 -53 -34 -92t-83 -39q-82 0 -141 34t-59 97v340h122v-340q0 -34 22.5 -58.5t55.5 -24.5q30 0 49.5 24.5t19.5 58.5h48z" />
    <glyph glyph-name="kappa" unicode="&#x3ba;" horiz-adv-x="611" 
d="M565 114q0 -54 -37.5 -92.5t-90.5 -38.5q-69 0 -117 49.5t-48 118.5q0 63 -104 72v-223h-122v454h122v-158q21 16 61 67q82 108 160 108q40 0 71.5 -24t42.5 -62l-46 -13q-7 23 -26 37t-42 14q-25 0 -49.5 -15.5t-37.5 -30.5t-35 -43q-28 -38 -57 -63q78 -6 131 -35
t53 -85q0 -28 1 -43t4.5 -36t13 -31t24.5 -10q34 0 57 24t23 59h48z" />
    <glyph glyph-name="lambda" unicode="&#x3bb;" horiz-adv-x="599" 
d="M553 129q0 -58 -21 -99t-63 -41q-22 0 -40 13.5t-32.5 43t-22 50.5t-19.5 59l-40 131l-133 -262l-92 -16l-44 16l217 429l-18 59q-7 22 -11 33.5t-12 28t-17.5 24.5t-21.5 8q-32 0 -32 -54h-48q0 58 19.5 99t60.5 41q16 0 31 -11t24.5 -25t21 -41t16.5 -42.5l15 -46.5
l110 -357q9 -29 15 -45t20.5 -32.5t32.5 -16.5q17 0 26.5 16t9.5 38h48z" />
    <glyph glyph-name="mu.greek" unicode="&#x3bc;" horiz-adv-x="729" 
d="M683 114q0 -53 -26.5 -92t-70.5 -39q-89 0 -140 53q-50 -53 -123 -53q-90 0 -148 32q12 -134 56 -265l-93 -17l-46 17q17 171 17 364v340h122v-340q0 -35 27.5 -59t64.5 -24q59 0 97 48q-5 18 -5 35v340h122v-340q0 -35 12 -59t37 -24q24 0 36.5 24.5t12.5 58.5h48z" />
    <glyph glyph-name="nu" unicode="&#x3bd;" horiz-adv-x="616" 
d="M570 286q0 -66 -31 -122.5t-86 -89.5l-166 -95l-66 305q-7 31 -11.5 49t-13 42t-19.5 36t-25 12q-58 0 -58 -111h-48q0 65 28 112t78 47q64 0 114.5 -36t62.5 -95l54 -250l46 26q44 26 68.5 71.5t24.5 98.5q0 19 -8 34.5t-26 30t-30 22t-37 21.5l27 78l32 28
q90 -48 90 -214z" />
    <glyph glyph-name="xi" unicode="&#x3be;" horiz-adv-x="589" 
d="M566 -128q0 -49 -23.5 -85.5t-62.5 -36.5q-47 0 -80 33l35 34q19 -19 45 -19q38 0 38 74q0 28 -23 47.5t-56 26.5l-147 30q-44 9 -69.5 15t-64 18.5t-59.5 25.5t-37 33.5t-16 45.5q0 111 120 164q-82 31 -82 102q0 76 49.5 131t130.5 83q-31 41 -34 87l58 10l28 -10
q3 -39 24 -67q38 6 78 6q33 0 51 -1t43.5 -5t37.5 -15t12 -28t-12 -27.5t-37.5 -14.5t-43.5 -5t-51 -1q-52 0 -98 24q-45 -25 -72.5 -69.5t-27.5 -97.5q0 -50 63 -68q75 13 183 13l9 -51l-9 -26q-112 0 -165 4q-119 -41 -119 -138q0 -65 120 -90l147 -31q49 -10 83 -43
t34 -78z" />
    <glyph glyph-name="omicron" unicode="&#x3bf;" horiz-adv-x="556" 
d="M517 236q0 -121 -65 -187t-185 -66q-109 0 -168 63t-59 178q0 119 64 183t183 64q111 0 170.5 -60.5t59.5 -174.5zM381 205q0 218 -106 218q-52 0 -75.5 -42t-23.5 -133q0 -217 109 -217q51 0 73.5 41t22.5 133z" />
    <glyph glyph-name="pi" unicode="&#x3c0;" horiz-adv-x="725" 
d="M679 367q-66 -27 -132 -34v-248q0 -54 102 -54v-48q-46 0 -80.5 3.5t-70 13t-54.5 31.5t-19 54v246q-35 3 -151 22v-141q0 -98 -58 -169.5t-146 -71.5v86q65 0 110.5 45.5t45.5 109.5v147q-44 4 -66 4q-66 0 -66 -22h-48q0 58 31.5 101t82.5 43q54 0 162 -18t163 -17
q78 2 150 30l43 -71z" />
    <glyph glyph-name="rho" unicode="&#x3c1;" horiz-adv-x="564" 
d="M518 224q0 -100 -69 -170.5t-167 -70.5q-42 0 -77 13q4 -52 4 -79q0 -82 -43 -151l-77 31l-27 33q25 41 25 87q0 51 -20.5 153t-20.5 154q0 101 69 174t167 73t167 -73t69 -174zM382 224q0 199 -100 199t-100 -199q0 -43 16 -173q40 -20 84 -20q100 0 100 193z" />
    <glyph glyph-name="uni03C2" unicode="&#x3c2;" horiz-adv-x="496" 
d="M449 435l-30 -51l-26 -14q-62 53 -90 53q-58 0 -96.5 -46t-38.5 -109q0 -34 1 -52.5t9 -44t23 -37.5q24 -18 81.5 -45t82.5 -48q56 -45 56 -103q0 -35 -20 -61t-51 -26q-81 0 -138 54l32 36q45 -42 106 -42q23 0 23 39q0 35 -38 66q-25 20 -84 43t-84 42q-56 43 -88.5 85
t-32.5 94q0 89 76.5 146t180.5 57q105 0 146 -36z" />
    <glyph glyph-name="sigma" unicode="&#x3c3;" horiz-adv-x="604" 
d="M558 496q-55 -39 -134 -55q99 -56 99 -205q0 -121 -65 -187t-185 -66q-109 0 -168 63t-59 178q0 119 64 183t183 64q12 0 34 -2q86 14 191 87l34 -35zM387 205q0 218 -106 218q-52 0 -75.5 -42t-23.5 -133q0 -217 109 -217q51 0 73.5 41t22.5 133z" />
    <glyph glyph-name="tau" unicode="&#x3c4;" horiz-adv-x="613" 
d="M567 371q-94 -56 -200 -54v-203q0 -34 23 -58.5t56 -24.5q29 0 48.5 24.5t19.5 58.5h48q0 -53 -33.5 -92t-82.5 -39q-82 0 -141.5 34t-59.5 97v226q-59 23 -85 23q-66 0 -66 -22h-48q0 58 31.5 101t82.5 43q18 0 147 -37q104 -28 196 28l55 -63z" />
    <glyph glyph-name="upsilon" unicode="&#x3c5;" horiz-adv-x="640" 
d="M594 250q0 -108 -63.5 -187.5t-160.5 -79.5q-93 0 -161.5 46t-68.5 122q0 32 12 95t12 95q0 19 -0.5 29.5t-3.5 25t-10 21t-18 6.5q-38 0 -38 -82h-48q0 53 22.5 91.5t63.5 38.5q62 0 108 -37t46 -93q0 -32 -5 -95t-5 -95q0 -48 26.5 -84t67.5 -36q77 0 126.5 65
t49.5 154q0 80 -125 142l23 80l31 30q62 -32 90.5 -99.5t28.5 -152.5z" />
    <glyph glyph-name="phi" unicode="&#x3c6;" horiz-adv-x="662" 
d="M616 227q0 -86 -59.5 -150t-149.5 -85l2 -75q0 -98 -70 -163l-67 49l-17 39q32 32 32 75l-2 69q-101 14 -170 80.5t-69 160.5q0 69 44 125.5t118 113.5l29 -38q-26 -20 -38.5 -57.5t-14.5 -65t-2 -78.5q0 -62 27 -114t73 -72q-12 168 -12 209q0 90 47 155.5t123 65.5
q80 0 128 -72.5t48 -171.5zM480 227v45t-1 43t-4 42.5t-7 32.5t-11 25t-17 8q-17 0 -27.5 -14.5t-14.5 -45t-5 -52t-1 -61.5q0 -53 11 -196q36 25 56.5 72t20.5 101z" />
    <glyph glyph-name="chi" unicode="&#x3c7;" horiz-adv-x="546" 
d="M546 -96q0 -61 -20.5 -104.5t-63.5 -43.5q-29 0 -52.5 21t-35 44t-26.5 61l-47 129q-72 -135 -72 -244l-82 -15l-40 15q0 23 2 44.5t9 46t10.5 40t17 44t17 38.5t22 43t21 37.5t24.5 42t23 38.5l-55 146q-10 28 -17 43.5t-21 32t-30 16.5q-18 0 -27 -18.5t-9 -43.5h-48
q0 61 20.5 104.5t63.5 43.5q13 0 25 -6t23 -20.5t19 -26.5t18 -35.5t14.5 -35t14.5 -37.5l40 -109q79 147 79 259l82 15l40 -15q0 -30 -4 -58.5t-15 -61t-18 -52.5t-27 -57.5t-27 -50.5t-32.5 -56t-30.5 -51l63 -168q9 -25 26.5 -41t41.5 -16q18 0 27 18.5t9 43.5h48z" />
    <glyph glyph-name="psi" unicode="&#x3c8;" horiz-adv-x="724" 
d="M678 250q0 -110 -75.5 -188.5t-182.5 -78.5h-2v-233h-48v235q-99 9 -164.5 50.5t-65.5 115.5q0 32 12 95t12 95q0 19 -0.5 29.5t-3.5 25t-10 21t-18 6.5q-38 0 -38 -82h-48q0 53 22.5 91.5t63.5 38.5q62 0 108 -37t46 -93q0 -32 -5 -95t-5 -95q0 -40 26.5 -70t67.5 -42
v188q0 223 -37 454l82 15l40 -15q-37 -222 -37 -454v-196h2q88 0 149 64.5t61 154.5q0 80 -125 142l23 80l31 30q62 -32 90.5 -99.5t28.5 -152.5z" />
    <glyph glyph-name="omega" unicode="&#x3c9;" horiz-adv-x="675" 
d="M629 231q0 -101 -54.5 -174.5t-140.5 -73.5q-66 0 -104 56q-33 -56 -89 -56q-86 0 -140.5 73.5t-54.5 174.5q0 135 170 243l26 -40q-74 -49 -74 -203v-35.5t1 -34.5t3 -34.5t5 -30t8.5 -27t13 -19.5t18.5 -14.5t24 -4.5q47 0 64 58q-28 76 -28 214l81 14l41 -14
q0 -60 0.5 -94t3.5 -82.5t11 -72t20 -23.5q13 0 24 4.5t18.5 14.5t13 19.5t8.5 27t5 30t3 34.5t1 34.5v35.5q0 154 -74 203l26 40q170 -108 170 -243z" />
    <glyph glyph-name="uni03D1" unicode="&#x3d1;" horiz-adv-x="703" 
d="M657 455q-31 -10 -70 -16q9 -48 9 -98q0 -93 -25 -172.5t-80.5 -132.5t-130.5 -53q-96 0 -166.5 45.5t-70.5 122.5q0 33 20.5 95t20.5 95q0 19 -0.5 29.5t-2.5 24.5t-7 21t-14 7q-46 0 -46 -82h-48q0 53 25.5 91.5t68.5 38.5q60 0 103 -37.5t43 -92.5q0 -33 -13.5 -95.5
t-13.5 -94.5q0 -49 28.5 -84.5t72.5 -35.5q18 0 33 7t25 22.5t17.5 31t12 42.5t7 46.5t4 53.5t1.5 52.5v54.5l-1 90q-70 6 -122.5 36t-73.5 85q-19 54 6.5 100t75.5 46q84 0 143.5 -59t87.5 -154q37 6 67 16zM456 479q-7 80 -32 125.5t-79 45.5q-25 0 -36.5 -26t0.5 -55
q28 -79 147 -90z" />
    <glyph glyph-name="uni03D5" unicode="&#x3d5;" horiz-adv-x="569" 
d="M523 236q0 -112 -55.5 -177t-159.5 -74l1 -235h-48v233q-104 4 -159.5 66.5t-55.5 174.5q0 108 52.5 171t151.5 74q-9 101 -26 212l81 15l41 -15q-18 -105 -27 -211q99 -7 151.5 -67t52.5 -167zM261 36v191q0 81 -7 193q-72 -20 -72 -172q0 -183 79 -212zM387 205
q0 181 -72 212q-6 -94 -6 -190l-1 -195q42 7 60.5 48t18.5 125z" />
    <glyph glyph-name="uni03D6" unicode="&#x3d6;" horiz-adv-x="675" 
d="M629 231q0 -101 -54.5 -174.5t-140.5 -73.5q-66 0 -104 56q-33 -56 -89 -56q-86 0 -140.5 73.5t-54.5 174.5q0 135 170 243l26 -40q-74 -49 -74 -203v-35.5t1 -34.5t3 -34.5t5 -30t8.5 -27t13 -19.5t18.5 -14.5t24 -4.5q47 0 64 58q-28 76 -28 214l81 14l41 -14
q0 -60 0.5 -94t3.5 -82.5t11 -72t20 -23.5q13 0 24 4.5t18.5 14.5t13 19.5t8.5 27t5 30t3 34.5t1 34.5v35.5q0 51 -2 89.5t-10.5 83t-23 73.5t-41 48t-63.5 19q-111 0 -214 -46l-20 43q114 51 234 51q80 0 141 -52.5t91 -134t30 -174.5z" />
    <glyph glyph-name="uni03F1" unicode="&#x3f1;" horiz-adv-x="569" 
d="M523 236q0 -121 -65 -187t-185 -66q-98 0 -156 52q34 -114 127 -129q10 -3 45 -1t45 2q64 -3 108 -48.5t44 -108.5h-48q0 55 -108 59q-12 1 -51 -1t-51 2q-58 10 -96.5 48.5t-56 102t-23.5 123.5t-6 140q0 119 64 183t183 64q111 0 170.5 -60.5t59.5 -174.5zM387 205
q0 218 -106 218q-52 0 -75.5 -42t-23.5 -133q0 -217 109 -217q51 0 73.5 41t22.5 133z" />
    <glyph glyph-name="uni03F5" unicode="&#x3f5;" horiz-adv-x="530" 
d="M484 34q-49 -51 -164 -51q-113 0 -193.5 74.5t-80.5 183.5q0 73 50 126.5t126 78.5t164 25h67v-48h-67q-80 0 -139.5 -49t-64.5 -122q23 2 56 11.5t56.5 17t56 10t54.5 -10.5l-37 -78q-26 12 -54.5 13.5t-72 -4t-57.5 -6.5q7 -74 42 -124t94 -50q43 0 102 63l49 -33z" />
    <glyph glyph-name="baht" unicode="&#xe3f;" horiz-adv-x="667" 
d="M611 216q0 -83 -68.5 -143t-161.5 -73v-83h-56v81l-127 2l-126 -3v23l32 18q20 11 20 57v448q0 66 -7 80.5t-41 17.5l-37 3v37l168 -3l117 2l1 84h56v-83h18q189 0 189 -135q0 -61 -38 -96q-23 -21 -51.5 -35.5t-92.5 -37.5q103 -6 150 -39q55 -39 55 -122zM461 202
q0 106 -80 134l-1 -274q81 27 81 140zM325 347q-10 1 -30 1h-30v-292q23 -4 43 -4h17v295zM440 524q0 78 -59 99v-209q59 27 59 110zM325 631h-2q-26 0 -58 -4v-227h30q20 0 30 1v230z" />
    <glyph glyph-name="Ddotbelow" unicode="&#x1e0c;" horiz-adv-x="833" 
d="M786 376q0 -162 -104 -263q-118 -116 -303 -116q-26 0 -78 1.5t-78 1.5q-77 0 -155 -3v23l32 18q20 11 20 57v448q0 66 -7 80.5t-41 17.5l-37 3v37q81 -3 162 -3q40 0 119.5 1.5t119.5 1.5q101 0 165 -19.5t108 -63.5q77 -75 77 -222zM636 348q0 146 -66 211
q-73 72 -246 72q-31 0 -63 -4v-570q31 -5 68 -5q162 0 234 71q73 73 73 225zM446 -145q0 -28 -19.5 -47.5t-47.5 -19.5t-47.5 20t-19.5 48q0 27 20 46.5t48 19.5q27 0 46.5 -20t19.5 -47z" />
    <glyph glyph-name="ddotbelow" unicode="&#x1e0d;" horiz-adv-x="611" 
d="M577 -3q-51 3 -101 3q-45 0 -90 -3l-5 8l5 75l-104 -85q-15 -12 -49 -12q-88 0 -139.5 63.5t-51.5 170.5q0 126 84 181l72 47q41 26 88 26q37 0 80 -17l20 -8v122q0 44 -4.5 56.5t-21.5 13.5l-53 3v36q80 8 121 21l72 22l8 -6v-614q0 -40 6.5 -51t29.5 -13l33 -2v-37z
M386 160v184q-48 63 -112 63q-106 0 -106 -152q0 -81 31.5 -129t84.5 -48q41 0 71.5 24t30.5 58zM373 -145q0 -28 -19.5 -47.5t-47.5 -19.5t-47.5 20t-19.5 48q0 27 20 46.5t48 19.5q27 0 46.5 -20t19.5 -47z" />
    <glyph glyph-name="Dlinebelow" unicode="&#x1e0e;" horiz-adv-x="833" 
d="M786 376q0 -162 -104 -263q-118 -116 -303 -116q-26 0 -78 1.5t-78 1.5q-77 0 -155 -3v23l32 18q20 11 20 57v448q0 66 -7 80.5t-41 17.5l-37 3v37q81 -3 162 -3q40 0 119.5 1.5t119.5 1.5q101 0 165 -19.5t108 -63.5q77 -75 77 -222zM636 348q0 146 -66 211
q-73 72 -246 72q-31 0 -63 -4v-570q31 -5 68 -5q162 0 234 71q73 73 73 225zM545 -180h-331v71h331v-71z" />
    <glyph glyph-name="dlinebelow" unicode="&#x1e0f;" horiz-adv-x="611" 
d="M577 -3q-51 3 -101 3q-45 0 -90 -3l-5 8l5 75l-104 -85q-15 -12 -49 -12q-88 0 -139.5 63.5t-51.5 170.5q0 126 84 181l72 47q41 26 88 26q37 0 80 -17l20 -8v122q0 44 -4.5 56.5t-21.5 13.5l-53 3v36q80 8 121 21l72 22l8 -6v-614q0 -40 6.5 -51t29.5 -13l33 -2v-37z
M386 160v184q-48 63 -112 63q-106 0 -106 -152q0 -81 31.5 -129t84.5 -48q41 0 71.5 24t30.5 58zM471 -180h-331v71h331v-71z" />
    <glyph glyph-name="Hdotbelow" unicode="&#x1e24;" horiz-adv-x="833" 
d="M796 -3q-78 3 -156 3q-77 0 -155 -3v40l37 3q35 3 41.5 15.5t6.5 79.5v190l-81 2h-146l-81 -2v-190q0 -67 6.5 -79.5t41.5 -15.5l37 -3v-40q-78 3 -156 3q-77 0 -155 -3v40l37 3q35 3 41.5 15.5t6.5 79.5v408q0 67 -6.5 79.5t-41.5 15.5l-37 3v40q78 -3 155 -3
q78 0 156 3v-40l-37 -3q-35 -3 -41.5 -15.5t-6.5 -79.5v-158q23 -2 81 -2h146q57 0 81 2v158q0 67 -6.5 79.5t-41.5 15.5l-37 3v40q78 -3 155 -3q78 0 156 3v-40l-37 -3q-35 -3 -41.5 -15.5t-6.5 -79.5v-408q0 -67 6.5 -79.5t41.5 -15.5l37 -3v-40zM483 -145
q0 -28 -19.5 -47.5t-47.5 -19.5t-47.5 20t-19.5 48q0 27 20 46.5t48 19.5q27 0 46.5 -20t19.5 -47z" />
    <glyph glyph-name="hdotbelow" unicode="&#x1e25;" horiz-adv-x="611" 
d="M587 -3q-51 3 -101 3q-45 0 -90 -3v272q0 61 -22.5 88.5t-71.5 27.5q-33 0 -59 -21t-26 -47v-217q0 -40 6.5 -51t29.5 -13l35 -2v-37q-68 3 -135 3q-65 0 -129 -3v37l35 2q23 2 29.5 13t6.5 51v468q0 44 -4.5 56.5t-21.5 13.5l-45 3v36q77 10 113 21l72 22l8 -6v-324
l80 62q23 19 70 19q76 0 116 -42q35 -38 35 -143v-186q0 -40 6.5 -51t29.5 -13l33 -2v-37zM373 -145q0 -28 -19.5 -47.5t-47.5 -19.5t-47.5 20t-19.5 48q0 27 20 46.5t48 19.5q27 0 46.5 -20t19.5 -47z" />
    <glyph glyph-name="Hdieresis" unicode="&#x1e26;" horiz-adv-x="833" 
d="M796 -3q-78 3 -156 3q-77 0 -155 -3v40l37 3q35 3 41.5 15.5t6.5 79.5v190l-81 2h-146l-81 -2v-190q0 -67 6.5 -79.5t41.5 -15.5l37 -3v-40q-78 3 -156 3q-77 0 -155 -3v40l37 3q35 3 41.5 15.5t6.5 79.5v408q0 67 -6.5 79.5t-41.5 15.5l-37 3v40q78 -3 155 -3
q78 0 156 3v-40l-37 -3q-35 -3 -41.5 -15.5t-6.5 -79.5v-158q23 -2 81 -2h146q57 0 81 2v158q0 67 -6.5 79.5t-41.5 15.5l-37 3v40q78 -3 155 -3q78 0 156 3v-40l-37 -3q-35 -3 -41.5 -15.5t-6.5 -79.5v-408q0 -67 6.5 -79.5t41.5 -15.5l37 -3v-40zM591 809
q0 -28 -19.5 -47.5t-47.5 -19.5t-47.5 20t-19.5 48q0 27 20 46.5t48 19.5q27 0 46.5 -20t19.5 -47zM376 809q0 -28 -19.5 -47.5t-47.5 -19.5t-47.5 19.5t-19.5 47.5t20 47.5t48 19.5q27 0 46.5 -20t19.5 -47z" />
    <glyph glyph-name="hdieresis" unicode="&#x1e27;" horiz-adv-x="611" 
d="M587 -3q-51 3 -101 3q-45 0 -90 -3v272q0 61 -22.5 88.5t-71.5 27.5q-33 0 -59 -21t-26 -47v-217q0 -40 6.5 -51t29.5 -13l35 -2v-37q-68 3 -135 3q-65 0 -129 -3v37l35 2q23 2 29.5 13t6.5 51v468q0 44 -4.5 56.5t-21.5 13.5l-45 3v36q77 10 113 21l72 22l8 -6v-324
l80 62q23 19 70 19q76 0 116 -42q35 -38 35 -143v-186q0 -40 6.5 -51t29.5 -13l33 -2v-37zM480 848q0 -28 -19.5 -47.5t-47.5 -19.5t-47.5 20t-19.5 48q0 27 20 46.5t48 19.5q27 0 46.5 -20t19.5 -47zM265 848q0 -28 -19.5 -47.5t-47.5 -19.5t-47.5 19.5t-19.5 47.5t20 47.5
t48 19.5q27 0 46.5 -20t19.5 -47z" />
    <glyph glyph-name="Hbrevebelow" unicode="&#x1e2a;" horiz-adv-x="833" 
d="M796 -3q-78 3 -156 3q-77 0 -155 -3v40l37 3q35 3 41.5 15.5t6.5 79.5v190l-81 2h-146l-81 -2v-190q0 -67 6.5 -79.5t41.5 -15.5l37 -3v-40q-78 3 -156 3q-77 0 -155 -3v40l37 3q35 3 41.5 15.5t6.5 79.5v408q0 67 -6.5 79.5t-41.5 15.5l-37 3v40q78 -3 155 -3
q78 0 156 3v-40l-37 -3q-35 -3 -41.5 -15.5t-6.5 -79.5v-158q23 -2 81 -2h146q57 0 81 2v158q0 67 -6.5 79.5t-41.5 15.5l-37 3v40q78 -3 155 -3q78 0 156 3v-40l-37 -3q-35 -3 -41.5 -15.5t-6.5 -79.5v-408q0 -67 6.5 -79.5t41.5 -15.5l37 -3v-40zM580 -78
q-16 -133 -164 -133q-75 0 -117.5 33.5t-46.5 99.5h48q16 -70 112 -70q49 0 84.5 21.5t35.5 46.5v2h48z" />
    <glyph glyph-name="hbrevebelow" unicode="&#x1e2b;" horiz-adv-x="611" 
d="M587 -3q-51 3 -101 3q-45 0 -90 -3v272q0 61 -22.5 88.5t-71.5 27.5q-33 0 -59 -21t-26 -47v-217q0 -40 6.5 -51t29.5 -13l35 -2v-37q-68 3 -135 3q-65 0 -129 -3v37l35 2q23 2 29.5 13t6.5 51v468q0 44 -4.5 56.5t-21.5 13.5l-45 3v36q77 10 113 21l72 22l8 -6v-324
l80 62q23 19 70 19q76 0 116 -42q35 -38 35 -143v-186q0 -40 6.5 -51t29.5 -13l33 -2v-37zM470 -78q-16 -133 -164 -133q-75 0 -117.5 33.5t-46.5 99.5h48q16 -70 112 -70q49 0 84.5 21.5t35.5 46.5v2h48z" />
    <glyph glyph-name="Idieresisacute" unicode="&#x1e2e;" horiz-adv-x="389" 
d="M350 -3q-78 3 -156 3q-77 0 -155 -3v40l37 3q35 3 41.5 15.5t6.5 79.5v408q0 67 -6.5 79.5t-41.5 15.5l-37 3v40q78 -3 155 -3q78 0 156 3v-40l-37 -3q-35 -3 -41.5 -15.5t-6.5 -79.5v-408q0 -67 6.5 -79.5t41.5 -15.5l37 -3v-40zM369 809q0 -28 -19.5 -47.5t-47.5 -19.5
t-47.5 20t-19.5 48q0 27 20 46.5t48 19.5q27 0 46.5 -20t19.5 -47zM154 809q0 -28 -19.5 -47.5t-47.5 -19.5t-47.5 19.5t-19.5 47.5t20 47.5t48 19.5q27 0 46.5 -20t19.5 -47zM340 1043q0 -13 -10 -22.5t-37 -21.5l-150 -71h-60l139 121q36 30 71 30q21 0 34 -10t13 -26z
" />
    <glyph glyph-name="idieresisacute" unicode="&#x1e2f;" 
d="M298 -3q-68 3 -135 3q-65 0 -129 -3v37l35 2q23 2 29.5 13t6.5 51v219q0 44 -4.5 56.5t-21.5 13.5l-45 3v36l15 2q56 8 98 19l70 22l10 -6v-365q0 -40 6.5 -51t29.5 -13l35 -2v-37zM340 599q0 -28 -19.5 -47.5t-47.5 -19.5t-47.5 20t-19.5 48q0 27 20 46.5t48 19.5
q27 0 46.5 -20t19.5 -47zM125 599q0 -28 -19.5 -47.5t-47.5 -19.5t-47.5 19.5t-19.5 47.5t20 47.5t48 19.5q27 0 46.5 -20t19.5 -47zM311 838q0 -13 -10 -22.5t-37 -21.5l-150 -71h-60l139 121q36 30 71 30q21 0 34 -10t13 -26z" />
    <glyph glyph-name="Ldotbelow" unicode="&#x1e36;" horiz-adv-x="611" 
d="M577 174l-11 -166l-5 -8q-57 -3 -140 -3q-37 0 -113 1.5t-113 1.5q-61 0 -123 -3v23l32 18q20 11 20 57v448q0 67 -6.5 79.5t-41.5 15.5l-37 3v40q78 -3 155 -3q78 0 156 3v-40l-37 -3q-35 -3 -41.5 -15.5t-6.5 -79.5v-485l153 -3q32 0 64 5.5t33 11.5l23 102h39z
M373 -145q0 -28 -19.5 -47.5t-47.5 -19.5t-47.5 20t-19.5 48q0 27 20 46.5t48 19.5q27 0 46.5 -20t19.5 -47z" />
    <glyph glyph-name="ldotbelow" unicode="&#x1e37;" 
d="M296 -3q-68 3 -135 3q-65 0 -129 -3v37l35 2q23 2 29.5 13t6.5 51v468q0 44 -4.5 56.5t-21.5 13.5l-53 3v36q80 8 121 21l72 22l8 -6v-614q0 -40 6.5 -51t29.5 -13l35 -2v-37zM231 -145q0 -28 -19.5 -47.5t-47.5 -19.5t-47.5 20t-19.5 48q0 27 20 46.5t48 19.5
q27 0 46.5 -20t19.5 -47z" />
    <glyph glyph-name="Ldotbelowmacron" unicode="&#x1e38;" horiz-adv-x="611" 
d="M577 174l-11 -166l-5 -8q-57 -3 -140 -3q-37 0 -113 1.5t-113 1.5q-61 0 -123 -3v23l32 18q20 11 20 57v448q0 67 -6.5 79.5t-41.5 15.5l-37 3v40q78 -3 155 -3q78 0 156 3v-40l-37 -3q-35 -3 -41.5 -15.5t-6.5 -79.5v-485l153 -3q32 0 64 5.5t33 11.5l23 102h39z
M373 -145q0 -28 -19.5 -47.5t-47.5 -19.5t-47.5 20t-19.5 48q0 27 20 46.5t48 19.5q27 0 46.5 -20t19.5 -47zM360 774h-331v71h331v-71z" />
    <glyph glyph-name="ldotbelowmacron" unicode="&#x1e39;" 
d="M296 -3q-68 3 -135 3q-65 0 -129 -3v37l35 2q23 2 29.5 13t6.5 51v468q0 44 -4.5 56.5t-21.5 13.5l-53 3v36q80 8 121 21l72 22l8 -6v-614q0 -40 6.5 -51t29.5 -13l35 -2v-37zM231 -145q0 -28 -19.5 -47.5t-47.5 -19.5t-47.5 20t-19.5 48q0 27 20 46.5t48 19.5
q27 0 46.5 -20t19.5 -47zM330 813h-331v71h331v-71z" />
    <glyph glyph-name="Mdotbelow" unicode="&#x1e42;" horiz-adv-x="1000" 
d="M968 -3q-78 3 -156 3q-77 0 -155 -3v40l37 3q35 3 41.5 15.5t6.5 79.5v416l-206 -429q-36 -74 -60 -132h-34q-19 47 -36 83l-230 479v-417q0 -66 7 -80.5t41 -17.5l37 -3v-37q-57 3 -114 3q-58 0 -115 -3v37l37 3q34 3 41 17.5t7 80.5v408q0 66 -7 80.5t-41 17.5l-37 3
v37q60 -3 120 -3t120 3l75 -161l158 -330l183 378l49 113q57 -3 115 -3t116 3v-37l-37 -3q-34 -3 -41 -17.5t-7 -80.5v-408q0 -67 6.5 -79.5t41.5 -15.5l37 -3v-40zM567 -145q0 -28 -19.5 -47.5t-47.5 -19.5t-47.5 20t-19.5 48q0 27 20 46.5t48 19.5q27 0 46.5 -20t19.5 -47
z" />
    <glyph glyph-name="mdotbelow" unicode="&#x1e43;" horiz-adv-x="889" 
d="M864 -3q-49 3 -98 3q-46 0 -93 -3v272q0 116 -86 116q-30 0 -55.5 -21.5t-25.5 -46.5v-217q0 -40 6.5 -51t29.5 -13l35 -2v-37q-66 3 -131 3q-64 0 -129 -3v37l31 2q24 1 30 12t6 52v169q0 116 -86 116q-30 0 -55.5 -21.5t-25.5 -46.5v-217q0 -41 6 -52t30 -12l27 -2v-37
q-63 3 -127 3q-65 0 -129 -3v37l35 2q23 2 29.5 13t6.5 51v219q0 44 -4.5 56.5t-21.5 13.5l-45 3v36q42 2 76 10t111 33l6 -6v-75l80 62q25 19 71 19q52 0 83.5 -19t48.5 -62l80 62q25 19 72 19q80 0 111.5 -40.5t31.5 -144.5v-186q0 -40 6.5 -51t29.5 -13l33 -2v-37z
M512 -145q0 -28 -19.5 -47.5t-47.5 -19.5t-47.5 20t-19.5 48q0 27 20 46.5t48 19.5q27 0 46.5 -20t19.5 -47z" />
    <glyph glyph-name="Ndotaccent" unicode="&#x1e44;" horiz-adv-x="833" 
d="M798 644l-37 -3q-34 -3 -41 -17.5t-7 -80.5v-454l3 -101l-7 -4l-82 13l-122 139l-326 392v-393q0 -66 7 -80.5t41 -17.5l37 -3v-37q-57 3 -114 3q-58 0 -115 -3v37l37 3q34 3 41 17.5t7 80.5v408q0 66 -7 80.5t-41 17.5l-37 3v37q60 -3 120 -3q42 0 84 3
q83 -110 103 -133l312 -364v359q0 66 -7 80.5t-41 17.5l-37 3v37q57 -3 115 -3q57 0 114 3v-37zM485 809q0 -28 -19.5 -47.5t-47.5 -19.5t-47.5 20t-19.5 48q0 27 20 46.5t48 19.5q27 0 46.5 -20t19.5 -47z" />
    <glyph glyph-name="ndotaccent" unicode="&#x1e45;" horiz-adv-x="611" 
d="M587 -3q-51 3 -101 3q-45 0 -90 -3v273q0 60 -22.5 87.5t-71.5 27.5q-33 0 -59 -21t-26 -47v-217q0 -40 6.5 -51t29.5 -13l35 -2v-37q-68 3 -135 3q-65 0 -129 -3v37l35 2q23 2 29.5 13t6.5 51v219q0 44 -4.5 56.5t-21.5 13.5l-45 3v36q42 2 76 10t111 33l6 -6v-75l80 62
q23 19 70 19q76 0 116 -42q35 -38 35 -143v-186q0 -40 6.5 -51t29.5 -13l33 -2v-37zM374 599q0 -28 -19.5 -47.5t-47.5 -19.5t-47.5 20t-19.5 48q0 27 20 46.5t48 19.5q27 0 46.5 -20t19.5 -47z" />
    <glyph glyph-name="Ndotbelow" unicode="&#x1e46;" horiz-adv-x="833" 
d="M798 644l-37 -3q-34 -3 -41 -17.5t-7 -80.5v-454l3 -101l-7 -4l-82 13l-122 139l-326 392v-393q0 -66 7 -80.5t41 -17.5l37 -3v-37q-57 3 -114 3q-58 0 -115 -3v37l37 3q34 3 41 17.5t7 80.5v408q0 66 -7 80.5t-41 17.5l-37 3v37q60 -3 120 -3q42 0 84 3
q83 -110 103 -133l312 -364v359q0 66 -7 80.5t-41 17.5l-37 3v37q57 -3 115 -3q57 0 114 3v-37zM484 -145q0 -28 -19.5 -47.5t-47.5 -19.5t-47.5 20t-19.5 48q0 27 20 46.5t48 19.5q27 0 46.5 -20t19.5 -47z" />
    <glyph glyph-name="ndotbelow" unicode="&#x1e47;" horiz-adv-x="611" 
d="M587 -3q-51 3 -101 3q-45 0 -90 -3v273q0 60 -22.5 87.5t-71.5 27.5q-33 0 -59 -21t-26 -47v-217q0 -40 6.5 -51t29.5 -13l35 -2v-37q-68 3 -135 3q-65 0 -129 -3v37l35 2q23 2 29.5 13t6.5 51v219q0 44 -4.5 56.5t-21.5 13.5l-45 3v36q42 2 76 10t111 33l6 -6v-75l80 62
q23 19 70 19q76 0 116 -42q35 -38 35 -143v-186q0 -40 6.5 -51t29.5 -13l33 -2v-37zM374 -145q0 -28 -19.5 -47.5t-47.5 -19.5t-47.5 20t-19.5 48q0 27 20 46.5t48 19.5q27 0 46.5 -20t19.5 -47z" />
    <glyph glyph-name="Rdotaccent" unicode="&#x1e58;" horiz-adv-x="722" 
d="M708 -3q-48 3 -97 3q-45 0 -90 -3l-210 342v23q55 0 87 19q66 39 66 122q0 61 -36.5 94.5t-103.5 33.5q-38 0 -59 -9v-487q0 -67 6.5 -79.5t41.5 -15.5l37 -3v-40q-78 3 -156 3q-77 0 -155 -3v40l37 3q35 3 41.5 15.5t6.5 79.5v408q0 66 -7 80.5t-41 17.5l-37 3v37
q88 -3 178 -3q33 0 99.5 1.5t99.5 1.5q190 0 190 -147q0 -61 -43 -110q-37 -40 -106 -68l181 -274q16 -24 29 -31.5t41 -13.5v-40zM418 809q0 -28 -19.5 -47.5t-47.5 -19.5t-47.5 20t-19.5 48q0 27 20 46.5t48 19.5q27 0 46.5 -20t19.5 -47z" />
    </font>
</defs>
</svg>
